<svg width="279" height="296" viewBox="0 0 279 296" fill="none" xmlns="http://www.w3.org/2000/svg">
<g clip-path="url(#clip0_1305_1034)">
<rect width="279" height="296" fill="white"/>
<path d="M348.75 24.9111L348.75 44.8397L19.9286 44.8397L19.9286 24.9111L348.75 24.9111Z" fill="#CDCDCD"/>
<path d="M249.107 84.1982L249.107 104.127L19.9288 104.127L19.9288 84.1982L249.107 84.1982Z" fill="#CDCDCD"/>
<path d="M348.75 143.485L348.75 183.343L-39.8571 183.342L-39.8571 143.485L348.75 143.485Z" fill="#CDCDCD"/>
<path d="M0 0H19.9286V295.939H0V0Z" fill="#CDCDCD"/>
<path d="M90.042 235.487L228.515 222.743L230.341 242.588L87.3213 255.751L5.46875 225.057L12.4668 206.396L90.042 235.487Z" fill="#CDCDCD"/>
<path d="M209.25 0H249.107V295.939H209.25V0Z" fill="#7948D3"/>
<rect x="67.2588" y="178.36" width="94.1625" height="29.3946" rx="4.98214" fill="#333333"/>
<g clip-path="url(#clip1_1305_1034)">
<path d="M86.2278 196.44H84.793V196.007H86.2278C89.8761 196.007 92.8437 193.04 92.8437 189.392C92.8437 187.374 91.9388 185.49 90.3653 184.231L90.6343 183.893C92.3138 185.238 93.2758 187.243 93.2758 189.392C93.2758 193.276 90.1167 196.44 86.2278 196.44Z" fill="white"/>
<path d="M86.9574 202.207C85.4573 201.164 84.5605 199.452 84.5605 197.625C84.5605 194.548 87.0634 192.045 90.141 192.045H98.4567V192.477H90.141C87.3039 192.477 84.9926 194.788 84.9926 197.625C84.9926 199.309 85.8201 200.891 87.202 201.853L86.9574 202.207Z" fill="white"/>
<path d="M98.7336 202.301H79.4648V183.814H98.7336V202.301ZM79.8969 201.868H98.3015V184.247H79.8969V201.873V201.868Z" fill="white"/>
<path d="M82.8484 196.353H79.6934V195.925H82.4163V184.161H82.8484V196.353Z" fill="white"/>
<path d="M98.129 184.018L87.6562 201.825L88.0287 202.044L98.5014 184.237L98.129 184.018Z" fill="white"/>
<path d="M104.188 187.003H108.273V187.59H104.918V192.278H105.892C107.18 192.278 108.403 192.184 109.537 191.956V192.543C108.44 192.771 107.18 192.873 105.892 192.873H104.188V187.003ZM110.062 186.481H110.792V194.903H110.062V186.481Z" fill="white"/>
<path d="M119.389 189.759H117.836C117.714 191.275 116.662 192.164 115.517 192.164C114.294 192.164 113.177 191.161 113.177 189.465C113.177 187.77 114.294 186.767 115.517 186.767C116.654 186.767 117.706 187.639 117.836 189.135H119.389V186.481H120.119V194.903H119.389V189.759ZM117.119 189.465C117.119 188.157 116.409 187.37 115.517 187.37C114.624 187.37 113.915 188.157 113.915 189.465C113.915 190.774 114.624 191.556 115.517 191.556C116.409 191.556 117.119 190.77 117.119 189.465Z" fill="white"/>
<path d="M122.128 193.142H130.415V193.729H122.128V193.142ZM122.666 191.132C123.869 190.46 124.928 189.628 125.564 188.829C125.764 188.572 125.886 188.328 125.886 187.998V186.767H126.644V187.998C126.644 188.328 126.767 188.576 126.967 188.829C127.602 189.624 128.662 190.46 129.865 191.132L129.478 191.605C128.405 191.026 126.995 189.958 126.265 189.106C125.536 189.958 124.125 191.03 123.053 191.605L122.666 191.132Z" fill="white"/>
<path d="M131.666 192.901C132.575 192.248 133.39 191.311 133.826 190.447C133.969 190.161 134.034 189.774 134.034 189.436V188.156H131.988V187.569H134.034V186.387H134.793V187.569H136.847V188.156H134.793V189.444C134.793 189.758 134.858 190.096 134.992 190.345C135.449 191.217 136.244 192.106 137.124 192.815L136.696 193.259C135.836 192.538 134.992 191.686 134.442 190.871C133.977 191.649 133.019 192.681 132.131 193.341L131.666 192.897V192.901ZM138.05 186.48H138.779V194.902H138.05V186.48Z" fill="white"/>
<path d="M140.879 192.62H142.754V189.702H143.492V192.62C144.486 192.6 145.905 192.535 146.712 192.429V193.008C145.775 193.13 143.973 193.207 143.019 193.207H140.879V192.62ZM141.364 187.003H145.978C145.921 188.622 145.742 190.175 145.514 191.406H144.821C145.029 190.232 145.2 188.658 145.228 187.59H141.364V187.003ZM147.14 186.481H147.87V189.91H149.215V190.537H147.87V194.903H147.14V186.481Z" fill="white"/>
<path d="M105.056 199.497C104.934 199.648 104.779 199.717 104.563 199.717H103.951V197.977H104.563C104.779 197.977 104.934 198.046 105.056 198.197C105.182 198.352 105.186 198.568 105.186 198.849C105.186 199.13 105.182 199.342 105.056 199.497ZM104.832 198.331C104.758 198.246 104.656 198.209 104.534 198.209H104.216V199.481H104.534C104.66 199.481 104.758 199.448 104.832 199.363C104.917 199.269 104.925 199.106 104.925 198.845C104.925 198.584 104.917 198.425 104.832 198.327V198.331Z" fill="white"/>
<path d="M106.612 199.717V197.977H107.725V198.213H106.877V198.723H107.599V198.959H106.877V199.481H107.725V199.717H106.612Z" fill="white"/>
<path d="M110.233 199.717L110.115 199.367H109.43L109.312 199.717H109.03L109.666 197.977H109.878L110.518 199.717H110.237H110.233ZM109.776 198.368L109.503 199.138H110.037L109.772 198.368H109.776Z" fill="white"/>
<path d="M112.694 199.717L112.328 198.983H111.997V199.717H111.732V197.977H112.405C112.735 197.977 112.947 198.189 112.947 198.486C112.947 198.735 112.796 198.894 112.601 198.947L113 199.717H112.69H112.694ZM112.389 198.213H111.997V198.759H112.389C112.564 198.759 112.682 198.661 112.682 198.49C112.682 198.319 112.564 198.217 112.389 198.217V198.213Z" fill="white"/>
<path d="M114.965 199.729C114.704 199.729 114.517 199.668 114.35 199.501L114.521 199.326C114.647 199.452 114.794 199.493 114.969 199.493C115.197 199.493 115.328 199.395 115.328 199.224C115.328 199.146 115.308 199.085 115.259 199.044C115.214 199.004 115.157 198.983 115.067 198.971L114.863 198.942C114.721 198.922 114.61 198.877 114.537 198.804C114.452 198.726 114.407 198.612 114.407 198.47C114.407 198.168 114.627 197.96 114.99 197.96C115.222 197.96 115.381 198.021 115.532 198.16L115.365 198.327C115.259 198.225 115.128 198.192 114.981 198.192C114.778 198.192 114.668 198.306 114.668 198.465C114.668 198.531 114.684 198.588 114.733 198.628C114.778 198.669 114.827 198.694 114.924 198.706L115.132 198.739C115.291 198.763 115.381 198.8 115.454 198.869C115.548 198.955 115.597 199.073 115.597 199.228C115.597 199.55 115.336 199.737 114.969 199.737L114.965 199.729Z" fill="white"/>
<path d="M119.159 199.497C119.037 199.648 118.882 199.717 118.666 199.717H118.055V197.977H118.666C118.882 197.977 119.037 198.046 119.159 198.197C119.286 198.352 119.29 198.568 119.29 198.849C119.29 199.13 119.286 199.342 119.159 199.497ZM118.931 198.331C118.858 198.246 118.756 198.209 118.634 198.209H118.316V199.481H118.634C118.76 199.481 118.858 199.448 118.931 199.363C119.017 199.269 119.025 199.106 119.025 198.845C119.025 198.584 119.017 198.425 118.931 198.327V198.331Z" fill="white"/>
<path d="M120.64 199.717V197.977H121.752V198.213H120.905V198.723H121.626V198.959H120.905V199.481H121.752V199.717H120.64Z" fill="white"/>
<path d="M124.132 199.717L123.329 198.494V199.717H123.064V197.977H123.305L124.108 199.199V197.977H124.373V199.717H124.132Z" fill="white"/>
<path d="M126.375 198.213V199.717H126.11V198.213H125.629V197.977H126.852V198.213H126.371H126.375Z" fill="white"/>
<path d="M129.233 199.717L129.115 199.367H128.43L128.312 199.717H128.03L128.67 197.977H128.882L129.522 199.717H129.241H129.233ZM128.776 198.368L128.503 199.138H129.037L128.772 198.368H128.776Z" fill="white"/>
<path d="M130.74 199.717V197.977H131.005V199.481H131.845V199.717H130.74Z" fill="white"/>
<path d="M134.626 199.729C134.434 199.729 134.287 199.668 134.177 199.554C134.006 199.383 134.002 199.207 134.002 198.845C134.002 198.482 134.01 198.306 134.177 198.135C134.291 198.021 134.434 197.96 134.626 197.96C134.948 197.96 135.184 198.152 135.245 198.494H134.976C134.935 198.315 134.817 198.192 134.626 198.192C134.52 198.192 134.434 198.233 134.369 198.298C134.279 198.392 134.263 198.498 134.263 198.84C134.263 199.183 134.279 199.289 134.369 199.383C134.43 199.452 134.52 199.489 134.626 199.489C134.817 199.489 134.94 199.366 134.984 199.187H135.249C135.188 199.529 134.948 199.721 134.63 199.721L134.626 199.729Z" fill="white"/>
<path d="M136.595 199.717V197.977H136.86V199.481H137.699V199.717H136.599H136.595Z" fill="white"/>
<path d="M139.537 199.717V197.977H139.802V199.717H139.537Z" fill="white"/>
<path d="M142.607 199.717L141.804 198.494V199.717H141.539V197.977H141.78L142.583 199.199V197.977H142.848V199.717H142.607Z" fill="white"/>
<path d="M144.584 199.717V197.977H144.849V199.717H144.584Z" fill="white"/>
<path d="M147.242 199.729C147.05 199.729 146.904 199.668 146.793 199.554C146.622 199.383 146.618 199.207 146.618 198.845C146.618 198.482 146.626 198.306 146.793 198.135C146.908 198.021 147.05 197.96 147.242 197.96C147.564 197.96 147.8 198.152 147.861 198.494H147.592C147.552 198.315 147.433 198.192 147.242 198.192C147.136 198.192 147.05 198.233 146.985 198.298C146.895 198.392 146.879 198.498 146.879 198.84C146.879 199.183 146.895 199.289 146.985 199.383C147.046 199.452 147.136 199.489 147.242 199.489C147.433 199.489 147.556 199.366 147.601 199.187H147.866C147.804 199.529 147.564 199.721 147.246 199.721L147.242 199.729Z" fill="white"/>
</g>
<path d="M114.589 215.727L109.843 207.506L119.335 207.506L114.589 215.727Z" fill="#333333"/>
<path d="M35.0048 109.177L34.0192 110.151C33.2927 110.864 32.3501 111.781 31.1911 112.902C30.4668 113.602 29.3178 113.602 28.5936 112.901L25.6947 110.082C25.3304 109.724 25.0254 109.422 24.7798 109.177C21.9562 106.353 21.9562 101.775 24.7798 98.9517C27.6033 96.1281 32.1813 96.1281 35.0048 98.9517C37.8283 101.775 37.8283 106.353 35.0048 109.177ZM31.9684 104.292C31.9684 103.146 31.0388 102.216 29.8923 102.216C28.7457 102.216 27.8162 103.146 27.8162 104.292C27.8162 105.439 28.7457 106.368 29.8923 106.368C31.0388 106.368 31.9684 105.439 31.9684 104.292Z" fill="#333333"/>
<path d="M46.7413 116.897C46.7466 118.144 47.6779 119.257 49.0747 119.712L48.6787 120.376C47.5815 120.012 46.752 119.257 46.3399 118.299C45.9331 119.391 45.0554 120.242 43.9155 120.654L43.4873 119.98C44.9109 119.498 45.9064 118.272 45.9171 116.897V116.49H43.7442V115.794H48.882V116.49H46.7413V116.897ZM44.7504 122.827C44.7557 121.73 45.9492 121.093 47.908 121.093C49.8614 121.093 51.0442 121.73 51.0442 122.827C51.0442 123.94 49.8614 124.582 47.908 124.582C45.9492 124.582 44.7557 123.94 44.7504 122.827ZM45.596 122.827C45.5853 123.512 46.4737 123.913 47.908 123.908C49.3476 123.913 50.2254 123.512 50.2307 122.827C50.2254 122.163 49.3476 121.767 47.908 121.767C46.4737 121.767 45.5853 122.163 45.596 122.827ZM50.1237 120.836V115.088H50.9586V117.518H52.3929V118.224H50.9586V120.836H50.1237Z" fill="#333333"/>
<path d="M37.6534 118.192C37.6587 119.717 38.6488 121.275 40.0296 121.938L39.5372 122.591C38.4883 122.077 37.6587 121.034 37.2627 119.808C36.8452 121.136 35.9622 122.238 34.8811 122.763L34.3994 122.11C35.7963 121.457 36.8345 119.83 36.8399 118.192V117.432H34.6563V116.747H36.8292V115.27H37.6748V116.747H39.8155V117.432H37.6534V118.192ZM41.0144 124.604V115.088H41.8493V118.995H43.4441V119.712H41.8493V124.604H41.0144Z" fill="#333333"/>
<path d="M30.2562 116.436C30.2509 117.71 31.9474 118.791 33.6065 119.037L33.2961 119.7C31.8136 119.449 30.3633 118.657 29.7852 117.512C29.2072 118.657 27.7569 119.449 26.2958 119.7L25.964 119.037C27.6177 118.791 29.3089 117.71 29.3143 116.436V116.372H26.2637V115.687H33.2961V116.372H30.2562V116.436ZM25.4502 121.21V120.514H34.1203V121.21H30.1813V124.603H29.3571V121.21H25.4502Z" fill="#333333"/>
<path d="M19.038 115.666C19.8408 115.661 20.5205 115.966 20.9647 116.469H23.4587V115.088H24.3043V120.729H23.4587V119.369H20.9647C20.5259 119.872 19.8408 120.178 19.038 120.172C17.6144 120.178 16.5601 119.246 16.5654 117.924C16.5601 116.592 17.6144 115.661 19.038 115.666ZM17.3682 117.924C17.3682 118.807 18.064 119.46 19.038 119.455C19.98 119.46 20.6864 118.807 20.6864 117.924C20.6864 117.02 19.98 116.388 19.038 116.394C18.064 116.388 17.3682 117.02 17.3682 117.924ZM17.9569 122.763C17.9516 121.617 19.1718 120.954 21.1467 120.954C23.1162 120.954 24.3364 121.617 24.3364 122.763C24.3364 123.919 23.1162 124.582 21.1467 124.582C19.1718 124.582 17.9516 123.919 17.9569 122.763ZM18.7811 122.763C18.7758 123.48 19.6856 123.913 21.1467 123.908C22.6078 123.913 23.5176 123.48 23.5122 122.763C23.5176 122.04 22.6078 121.612 21.1467 121.607C19.6856 121.612 18.7758 122.04 18.7811 122.763ZM21.3661 117.154C21.4517 117.389 21.4999 117.646 21.4999 117.924C21.4999 118.192 21.4517 118.444 21.3715 118.674H23.4587V117.154H21.3661Z" fill="#333333"/>
<path d="M11.6848 121.103C13.7239 121.103 15.0191 121.745 15.0244 122.848C15.0191 123.94 13.7239 124.582 11.6848 124.582C9.64573 124.582 8.35057 123.94 8.35592 122.848C8.35057 121.745 9.64573 121.103 11.6848 121.103ZM7.39258 120.215V119.53H10.9784V117.689H11.8026V119.53H16.052V120.215H7.39258ZM8.42015 116.265V115.58H14.9495V116.383C14.9441 117.154 14.9441 117.924 14.6819 118.909L13.8577 118.813C14.1146 117.833 14.1146 117.127 14.1146 116.383V116.265H8.42015ZM9.19082 122.848C9.18547 123.512 10.1702 123.918 11.6848 123.918C13.2048 123.918 14.1788 123.512 14.1895 122.848C14.1788 122.168 13.2048 121.751 11.6848 121.745C10.1702 121.751 9.18547 122.168 9.19082 122.848Z" fill="#333333"/>
<path d="M86.5419 223.267L85.5563 224.242C84.8298 224.955 83.8873 225.872 82.7282 226.992C82.0039 227.693 80.8549 227.693 80.1307 226.992L77.2318 224.173C76.8675 223.815 76.5625 223.513 76.3169 223.267C73.4933 220.444 73.4933 215.866 76.3169 213.042C79.1404 210.219 83.7184 210.219 86.5419 213.042C89.3655 215.866 89.3655 220.444 86.5419 223.267ZM83.5055 218.383C83.5055 217.236 82.576 216.307 81.4294 216.307C80.2828 216.307 79.3533 217.236 79.3533 218.383C79.3533 219.53 80.2828 220.459 81.4294 220.459C82.576 220.459 83.5055 219.53 83.5055 218.383Z" fill="#333333"/>
<path d="M103.898 230.988C103.903 232.235 104.834 233.348 106.231 233.803L105.835 234.466C104.738 234.102 103.908 233.348 103.496 232.39C103.089 233.482 102.212 234.333 101.072 234.745L100.644 234.07C102.067 233.589 103.063 232.363 103.073 230.988V230.581H100.9V229.885H106.038V230.581H103.898V230.988ZM101.907 236.918C101.912 235.82 103.105 235.184 105.064 235.184C107.018 235.184 108.2 235.82 108.2 236.918C108.2 238.031 107.018 238.673 105.064 238.673C103.105 238.673 101.912 238.031 101.907 236.918ZM102.752 236.918C102.742 237.603 103.63 238.004 105.064 237.999C106.504 238.004 107.382 237.603 107.387 236.918C107.382 236.254 106.504 235.858 105.064 235.858C103.63 235.858 102.742 236.254 102.752 236.918ZM107.28 234.927V229.179H108.115V231.608H109.549V232.315H108.115V234.927H107.28Z" fill="#333333"/>
<path d="M94.8096 232.283C94.815 233.808 95.8051 235.366 97.1859 236.029L96.6935 236.682C95.6445 236.168 94.815 235.125 94.4189 233.899C94.0015 235.226 93.1184 236.329 92.0373 236.853L91.5557 236.2C92.9525 235.547 93.9908 233.921 93.9961 232.283V231.523H91.8126V230.838H93.9854V229.361H94.831V230.838H96.9718V231.523H94.8096V232.283ZM98.1706 238.694V229.179H99.0055V233.086H100.6V233.803H99.0055V238.694H98.1706Z" fill="#333333"/>
<path d="M87.4125 230.527C87.4071 231.8 89.1037 232.881 90.7628 233.128L90.4523 233.791C88.9699 233.54 87.5195 232.748 86.9415 231.602C86.3635 232.748 84.9131 233.54 83.452 233.791L83.1202 233.128C84.774 232.881 86.4652 231.8 86.4705 230.527V230.462H83.4199V229.777H90.4523V230.462H87.4125V230.527ZM82.6064 235.301V234.605H91.2765V235.301H87.3375V238.694H86.5133V235.301H82.6064Z" fill="#333333"/>
<path d="M74.6318 230.56C74.6211 231.946 75.6273 233.182 77.0402 233.674L76.612 234.338C75.5095 233.931 74.6372 233.112 74.209 232.058C73.7916 233.187 72.9139 234.076 71.7953 234.509L71.3564 233.846C72.7801 233.316 73.7755 231.999 73.7755 230.56V229.65H74.6318V230.56ZM72.7158 236.083V235.387H79.1167V238.694H78.2818V236.083H72.7158ZM78.2818 234.916V229.179H79.1167V234.916H78.2818Z" fill="#333333"/>
<path d="M70.3712 229.179V238.694H69.5684V229.179H70.3712ZM62.2148 236.029C64.286 234.804 65.3243 233.086 65.4902 231.095H62.643V230.399H66.3251C66.3251 230.886 66.2823 231.368 66.1967 231.833H67.6417V229.436H68.4445V238.213H67.6417V234.916H65.8756V234.22H67.6417V232.529H66.0308C65.5705 234.14 64.5269 235.564 62.7286 236.639L62.2148 236.029Z" fill="#333333"/>
<path d="M61.0582 229.179V238.694H60.2126V229.179H61.0582ZM53.3086 236.222C55.8829 235.002 57.1994 233.177 57.3868 230.902H53.7475V230.217H58.2431C58.2324 232.952 56.9586 235.376 53.7689 236.907L53.3086 236.222Z" fill="#333333"/>
<rect x="220.21" y="131.031" width="17.9357" height="17.9357" rx="8.96786" fill="white"/>
<rect x="220.21" y="131.031" width="17.9357" height="17.9357" rx="8.96786" stroke="#551FBA" stroke-width="1.99286"/>
<path d="M228.945 144.134C227.548 144.134 226.489 143.272 226.43 142.079H227.361C227.43 142.769 228.105 143.283 228.945 143.288C229.951 143.283 230.679 142.55 230.679 141.576C230.679 140.57 229.924 139.826 228.881 139.82C228.228 139.81 227.719 140.013 227.436 140.516H226.505L227.051 136.277H231.246V137.134H227.853L227.564 139.403H227.639C227.987 139.135 228.506 138.953 229.052 138.953C230.529 138.953 231.616 140.045 231.621 141.554C231.616 143.053 230.492 144.134 228.945 144.134Z" fill="#551FBA"/>
<path d="M241.932 156.096V159.479H241.087V156.771H235.531V156.096H241.932ZM234.193 152.778C234.188 151.451 235.242 150.503 236.666 150.509C237.49 150.503 238.191 150.83 238.63 151.365H241.087V149.963H241.932V155.572H241.087V154.202H238.635C238.197 154.742 237.496 155.063 236.666 155.058C235.242 155.069 234.188 154.132 234.193 152.778ZM234.996 152.778C234.996 153.704 235.692 154.351 236.666 154.351C237.603 154.351 238.314 153.704 238.314 152.778C238.314 151.884 237.603 151.226 236.666 151.226C235.692 151.226 234.996 151.884 234.996 152.778ZM239.015 153.506H241.087V152.061H239.01C239.085 152.286 239.128 152.521 239.128 152.778C239.128 153.035 239.085 153.281 239.015 153.506Z" fill="white"/>
<path d="M227.706 150.316C229.13 150.321 230.163 151.188 230.168 152.425C230.163 153.666 229.13 154.523 227.706 154.523C226.266 154.523 225.228 153.666 225.233 152.425C225.228 151.188 226.266 150.321 227.706 150.316ZM226.058 152.425C226.047 153.26 226.748 153.838 227.706 153.838C228.648 153.838 229.354 153.26 229.354 152.425C229.354 151.601 228.648 151.017 227.706 151.023C226.748 151.017 226.047 151.601 226.058 152.425ZM226.678 155.989V155.315H232.865V157.605H227.524V158.676H233.208V159.35H226.7V156.974H232.03V155.989H226.678ZM232.03 154.855V149.963H232.865V154.855H232.03Z" fill="white"/>
<path d="M223.863 149.963V155.604H223.017V154.105H220.791V154.919H216.424V150.691H220.791V151.515H223.017V149.963H223.863ZM217.259 154.234H219.967V151.376H217.259V154.234ZM217.516 157.68C217.51 156.535 218.725 155.877 220.705 155.882C222.68 155.877 223.895 156.535 223.895 157.68C223.895 158.815 222.68 159.457 220.705 159.457C218.725 159.457 217.51 158.815 217.516 157.68ZM218.351 157.68C218.345 158.371 219.244 158.794 220.705 158.794C222.161 158.794 223.06 158.371 223.06 157.68C223.06 156.963 222.161 156.546 220.705 156.535C219.244 156.546 218.345 156.963 218.351 157.68ZM220.791 153.399H223.017V152.211H220.791V153.399Z" fill="white"/>
<rect x="190.816" y="65.7648" width="14.9464" height="14.9464" rx="7.47321" fill="#FDEC74"/>
<rect x="190.816" y="65.7648" width="14.9464" height="14.9464" rx="7.47321" stroke="#333333" stroke-width="0.996429"/>
<path d="M199.266 69.5166V77.2662H198.292V70.5228H198.249L196.365 71.7751V70.8011L198.292 69.5166H199.266Z" fill="#333333"/>
<rect x="252.595" y="125.052" width="14.9464" height="14.9464" rx="7.47321" fill="#FDEC74"/>
<rect x="252.595" y="125.052" width="14.9464" height="14.9464" rx="7.47321" stroke="#333333" stroke-width="0.996429"/>
<path d="M257.115 134.969V134.177L260.605 128.804H261.793V134.124H262.874V134.969H261.793V136.553H260.872V134.969H257.115ZM258.154 134.124H260.872V130.024H260.776L258.154 134.059V134.124Z" fill="#333333"/>
</g>
<rect x="0.5" y="0.5" width="278" height="295" stroke="#CDCDCD"/>
<defs>
<clipPath id="clip0_1305_1034">
<rect width="279" height="296" fill="white"/>
</clipPath>
<clipPath id="clip1_1305_1034">
<rect width="69.75" height="18.6" fill="white" transform="translate(79.4648 183.758)"/>
</clipPath>
</defs>
</svg>
