<svg width="412" height="427" viewBox="0 0 412 427" fill="none" xmlns="http://www.w3.org/2000/svg">
<path d="M96.1892 217.094H82.7301V234.07H96.1892V217.094ZM37.4252 345.778C56.8416 371.353 90.9674 365.547 90.9674 365.547C95.086 329.315 80.4502 317.557 80.4502 317.557C71.3303 336.812 85.0836 360.035 85.0836 360.035C64.3434 340.854 37.4252 345.778 37.4252 345.778ZM72.8013 146.763L66.2556 140.663C50.5165 144.705 38.9697 158.668 38.9697 158.668C46.3979 140.957 42.4264 124.421 39.0432 115.602L34.2627 111.707C20.5829 137.65 35.7336 166.091 35.7336 166.091C56.768 161.02 67.4324 152.715 72.6542 146.763H72.8013ZM116.856 383.332C116.194 372.088 114.135 363.857 111.561 357.316H98.6163C102.073 369.662 110.09 378.922 110.09 378.922C86.3339 363.636 60.666 373.116 60.666 373.116C84.2746 395.017 116.856 383.332 116.856 383.332ZM164.735 231.645V238.186H157.748V245.829H163.926V252.37H157.748V260.307H164.882V266.848H150.835V231.792L141.126 266.848H135.463L125.314 231.719H132.742L136.934 248.548C137.523 250.533 137.817 252.59 138.185 254.575H138.258C138.626 252.517 138.773 250.533 139.361 248.475L143.627 231.719H164.882L164.735 231.645ZM173.487 309.473H166.059L164.735 303.593H157.675L156.424 309.473H149.511L157.675 274.344H164.956L173.414 309.473H173.487ZM166.206 231.645H173.193C177.606 231.645 185.549 232.086 185.549 241.714C185.549 245.609 184.004 248.842 180.548 250.753L186.652 266.701H179.371L173.266 250.459H173.119V266.701H166.206V231.572V231.645ZM188.049 231.645H194.963V266.774H188.049V231.645ZM182.901 310.061C180.915 310.061 178.488 309.473 176.944 308.297V301.683C178.562 302.785 180.18 303.52 182.239 303.52C184.446 303.52 186.284 302.05 186.284 299.698C186.284 296.979 184.151 295.95 182.166 294.554C178.121 291.835 175.694 289.263 175.694 284.118C175.694 278.533 178.93 273.756 184.887 273.756C187.093 273.756 189.153 274.344 190.991 275.446V282.207C189.594 281.032 187.902 280.003 185.99 280.003C183.857 280.003 182.46 281.326 182.46 283.457C182.46 289.263 193.051 289.557 193.051 299.037C193.051 305.284 189.447 309.987 182.975 309.987L182.901 310.061ZM148.334 280.958H142.818V309.546H135.831V280.958H130.389V274.417H148.26V280.958H148.334ZM113.693 191.151V338.869H186.873C195.183 339.09 203.641 345.557 203.641 345.557V227.383C159.293 226.427 150.393 191.151 150.393 191.151H113.693ZM283.661 114.794L261.744 138.679L261.964 176.821C261.964 176.821 261.302 183.067 259.978 186.228H274.099L314.403 145.954L283.734 114.867L283.661 114.794ZM96.6305 297.42H83.245V314.397H96.6305V297.42ZM118.621 132.505L146.863 160.212V138.752L118.621 110.531V132.432V132.505ZM96.3363 370.25C98.1014 370.25 99.4988 368.78 99.4988 367.09C99.4988 365.4 98.0279 363.93 96.3363 363.93C94.6447 363.93 93.1738 365.326 93.1738 367.09C93.1738 368.854 94.6447 370.25 96.3363 370.25ZM45.2212 143.015C45.2212 144.778 46.6921 146.175 48.3837 146.175C50.0753 146.175 51.5462 144.705 51.5462 143.015C51.5462 141.324 50.0753 139.854 48.3837 139.854C46.6921 139.854 45.2212 141.324 45.2212 143.015ZM96.557 346.953C96.7041 348.423 96.9982 346.586 96.9982 346.586V325.861L93.5415 329.683C95.4538 334.901 96.1892 342.397 96.557 346.953ZM146.863 170.868V166.532L126.049 145.734H77.2141L104.794 170.941H146.863V170.868ZM40.9554 111.634C40.9554 111.634 39.1168 100.242 50.9578 83.2659H10.8747C10.8747 83.2659 12.5663 87.8959 40.9554 111.634ZM6.16771 174.101C-0.966349 205.409 25.437 227.824 25.437 227.824C55.8855 207.687 55.4442 188.873 55.4442 188.873C34.851 194.238 25.8783 219.74 25.8783 219.74C27.2022 191.519 6.16771 174.101 6.16771 174.101ZM29.7763 188.653C35.9542 161.093 18.303 140.295 18.303 140.295C5.79997 169.912 27.9376 196.516 27.9376 196.516C61.4015 181.965 64.2698 163.372 64.2698 163.372C43.0883 165.062 29.7763 188.653 29.7763 188.653ZM32.5711 201.734C32.5711 199.97 31.1737 198.574 29.4086 198.574C27.6434 198.574 26.246 199.97 26.246 201.734C26.246 203.498 27.6434 204.894 29.4086 204.894C31.1737 204.894 32.5711 203.498 32.5711 201.734ZM195.919 363.195H216.953C216.953 363.195 218.351 354.082 224.308 354.082H311.535V200.705L302.856 191.592V343.573H224.749C224.749 343.573 214.232 344.455 206.068 354.523C206.068 354.523 199.67 344.969 185.99 344.014H109.722V192.915L100.381 202.249V354.082H185.549C185.549 354.082 196.066 354.523 196.066 363.195H195.919ZM59.1951 81.3551C37.3516 104.946 48.9721 137.503 48.9721 137.503C85.4514 135.298 94.4241 118.762 94.4241 118.762C73.9045 113.103 53.3849 130.741 53.3849 130.741C68.6826 107.004 59.1951 81.3551 59.1951 81.3551ZM162.014 288.748L161.205 283.457H161.131L160.396 288.748L158.925 298.082H163.852L162.087 288.748H162.014ZM363.606 354.744C368.901 351.436 373.976 346.953 378.168 340.78C378.168 340.78 366.622 339.31 353.162 343.867L363.68 354.744H363.606ZM385.817 215.551C385.817 215.551 376.256 190.27 355.589 185.346C355.589 185.346 355.589 204.159 386.479 223.561C386.479 223.561 412.368 200.558 404.425 169.398C404.425 169.398 383.832 187.33 385.817 215.551ZM346.984 291.026C346.984 291.026 334.923 305.431 346.102 340.192C346.102 340.192 380.743 339.237 394.716 310.281C394.716 310.281 367.357 310.796 350.809 333.578C350.809 333.578 359.782 308.076 347.058 291.026H346.984ZM384.935 246.932C384.935 246.932 379.934 220.328 360.37 211.95C360.37 211.95 357.06 230.469 384.199 254.942C384.199 254.942 413.692 236.79 411.338 204.747C411.338 204.747 387.877 218.858 384.935 246.932ZM360.591 238.921C360.591 238.921 354.192 256.632 376.55 285.441C376.55 285.441 408.764 272.727 412 240.685C412 240.685 386.479 250.459 378.757 277.651C378.757 277.651 378.389 250.606 360.591 238.921ZM381.037 262.659C382.802 262.659 384.199 261.262 384.199 259.499C384.199 257.735 382.802 256.338 381.037 256.338C379.272 256.338 377.874 257.808 377.874 259.499C377.874 261.189 379.272 262.659 381.037 262.659ZM362.356 317.263C362.356 315.499 360.958 314.103 359.193 314.103C357.428 314.103 356.031 315.573 356.031 317.263C356.031 318.953 357.428 320.496 359.193 320.496C360.958 320.496 362.356 319.027 362.356 317.263ZM92.659 127.287C91.4087 128.243 82.5095 136.4 68.9768 138.017L73.6103 142.353L121.931 142.133L106.927 127.14L99.2782 119.571C99.2782 119.571 93.9093 126.405 92.5854 127.361L92.659 127.287ZM279.615 283.677H279.542L278.806 288.969L277.335 298.302H282.19L280.424 288.969L279.615 283.677ZM178.782 241.787C178.782 239.215 177.606 237.231 174.075 237.378H173.119V246.711H174.37C177.532 246.711 178.782 244.653 178.782 241.787ZM247.402 261.262C250.785 261.262 250.785 258.69 250.859 256.118V231.939H257.772V257.514C257.772 261.262 257.331 267.583 247.328 267.583C240.856 267.583 236.958 264.569 236.958 258.029V231.939H243.872V254.648C243.872 257.294 243.577 261.336 247.328 261.336L247.402 261.262ZM265.274 274.638V281.179H258.287V288.822H264.465V295.362H258.287V303.299H265.421V309.84H251.373V274.711H265.347L265.274 274.638ZM263.362 231.866H271.158L273.143 236.79C273.732 238.48 274.467 240.317 274.835 242.155H274.908C275.276 240.317 275.865 238.553 276.453 236.79L278.512 231.866H286.014L278.512 248.842L286.602 266.921H278.512L276.306 261.336C275.644 259.572 275.203 257.808 274.761 256.044H274.688C274.173 257.808 273.732 259.499 273.143 261.336L271.084 266.921H263.288L270.716 248.842L263.288 231.866H263.362ZM284.47 309.767L283.146 303.814H276.085L274.835 309.767H267.921L276.085 274.638H283.44L291.898 309.767H284.47ZM240.047 309.767L238.356 284.486H238.282L237.179 293.158L234.237 309.767H228.868L225.485 292.937L224.308 285.147V284.486H224.235L223.205 309.767H215.777L218.866 274.638H227.985L231.369 295.362H231.442L234.237 274.638H243.504L247.181 309.767H240.047ZM217.542 231.866H224.455V260.454H231.736V266.995H217.542V231.866ZM208.643 226.501V345.557C208.643 345.557 215.335 338.869 224.749 338.869H298.664V191.151H258.802C258.802 191.151 247.475 225.986 208.643 226.501ZM114.282 106.636C114.282 106.636 111.119 111.193 99.1311 113.765L114.282 127.728V106.563V106.636ZM177.679 92.7463V77.0926H226.514V99.434H242.621V115.529H226.956V122.657H242.621V140.075H226.956V192.474H213.497L194.889 173.881L177.9 190.857L165.544 178.584L193.786 150.364L208.348 164.915V92.5993H177.679V92.7463ZM152.6 167.781C152.6 204.968 175.914 222.091 204.671 222.091C233.428 222.091 256.816 204.968 256.816 167.781V61.8799H152.673C152.673 61.8799 152.673 130.668 152.673 167.781H152.6ZM108.177 174.836L120.607 185.787H148.628C147.304 183.582 147.746 175.057 147.746 175.057L108.177 174.836ZM333.82 314.838C333.82 314.838 331.54 317.189 330.804 320.864L337.57 327.846C337.203 323.51 336.1 319.027 333.82 314.838ZM68.5356 343.426C78.9057 308.444 66.4762 294.334 66.4762 294.334C54.1203 311.678 63.6815 336.959 63.6815 336.959C46.6186 314.544 19.2591 314.617 19.2591 314.617C33.8949 343.205 68.5356 343.426 68.5356 343.426ZM66.844 111.56C103.103 115.676 114.87 100.977 114.87 100.977C95.6008 91.8644 72.36 105.607 72.36 105.607C91.5558 84.8827 86.6281 57.9848 86.6281 57.9848C61.0338 77.3866 66.844 111.487 66.844 111.487V111.56ZM142.744 368.046C144.51 389.285 168.045 402.513 168.045 402.513C140.465 396.34 119.651 413.978 119.651 413.978C149.29 426.471 175.914 404.35 175.914 404.35C161.352 370.838 142.744 368.046 142.744 368.046ZM50.2959 317.851C66.6233 285.221 56.8416 269.126 56.8416 269.126C41.6909 284.045 46.6921 310.649 46.6921 310.649C33.7478 285.588 6.75609 280.958 6.75609 280.958C16.2436 311.678 50.2959 317.851 50.2959 317.851ZM123.549 357.389H118.989C118.768 377.379 138.037 393.253 138.037 393.253C112.002 382.376 88.3932 396.119 88.3932 396.119C115.385 413.61 145.466 396.413 145.466 396.413C139.582 372.014 129.359 361.578 123.549 357.389ZM56.2532 372.602C56.2532 372.602 61.2544 369.662 68.462 368.56L60.4454 366.649L59.7099 367.678C60.1512 367.09 60.4454 366.649 60.4454 366.649L24.9957 403.909C24.9957 403.909 20.9507 409.715 24.7751 413.537C24.7751 413.537 28.3054 416.476 33.3065 413.096L67.8736 382.891C64.3434 381.054 56.768 374.733 56.3268 372.529L56.2532 372.602ZM36.7633 289.41C58.4596 260.086 51.6198 242.596 51.6198 242.596C34.1156 254.722 34.4098 281.693 34.4098 281.693C26.0989 254.795 0.357497 245.535 0.357497 245.535C4.32904 277.43 36.8368 289.41 36.8368 289.41H36.7633ZM55.0029 79.5178L13.0076 37.4807C13.0076 37.4807 -4.57015 50.0477 9.10959 79.4443H55.0029V79.5178ZM73.978 64.2316L49.2662 39.318C33.9685 24.0317 15.8759 34.1001 15.8759 34.1001L64.4905 82.531C67.7265 70.1109 73.978 64.2316 73.978 64.2316ZM28.526 263.541C28.526 265.304 29.9969 266.701 31.6885 266.701C33.3801 266.701 34.851 265.231 34.851 263.541C34.851 261.85 33.4536 260.307 31.6885 260.307C29.9234 260.307 28.526 261.777 28.526 263.541ZM28.4524 259.131C54.9294 233.997 51.252 215.551 51.252 215.551C31.9092 224.443 27.4963 251.121 27.4963 251.121C23.8925 223.12 0.0633095 209.598 0.0633095 209.598C-1.55472 241.714 28.3789 259.205 28.3789 259.205L28.4524 259.131ZM51.6933 320.937C51.6933 322.701 53.0907 324.171 54.8558 324.171C56.6209 324.171 58.0183 322.701 58.0183 320.937C58.0183 319.174 56.5474 317.777 54.8558 317.777C53.1642 317.777 51.6933 319.174 51.6933 320.937ZM318.816 367.458C320.581 367.458 321.979 366.061 321.979 364.224C321.979 362.387 320.581 361.064 318.816 361.064C317.051 361.064 315.653 362.46 315.653 364.224C315.653 365.988 317.051 367.458 318.816 367.458ZM335.732 363.342L324.479 354.156C324.7 357.022 325.067 360.035 325.656 363.269C325.656 363.269 329.701 363.783 335.732 363.269V363.342ZM367.136 306.901C367.136 306.901 371.549 280.223 356.031 265.598C356.031 265.598 346.617 281.913 363.68 314.176C363.68 314.176 397.585 307.195 406.337 276.255C406.337 276.255 379.492 281.473 367.136 306.827V306.901ZM154.291 395.899C154.291 394.135 152.82 392.739 151.129 392.739C149.437 392.739 147.966 394.208 147.966 395.899C147.966 397.589 149.437 399.059 151.129 399.059C152.82 399.059 154.291 397.663 154.291 395.899ZM305.357 376.644C305.357 376.644 312.27 368.339 315.653 356.728L302.636 356.507C300.576 362.901 299.032 370.985 298.591 381.201C298.591 381.201 326.686 390.534 349.117 374.292L340.439 367.311C330.878 366.796 317.713 368.193 305.283 376.644H305.357ZM314.771 324.979V341.956L390.892 405.085H406.116L328.598 324.979H314.771ZM203.274 398.324V406.261C199.596 400.455 185.255 379.51 169.074 378.481C169.074 378.481 174.59 397.222 198.861 408.245C198.861 408.245 168.412 410.23 155.983 426.912C155.983 426.912 182.533 429.337 203.274 408.686V421.621H211.364V398.324H203.274ZM216.733 408.172C240.93 397.001 246.299 378.187 246.299 378.187C227.471 379.51 211.364 407.731 211.364 407.731C232.398 429.19 259.758 426.545 259.758 426.545C247.255 410.009 216.806 408.172 216.806 408.172H216.733ZM247.917 401.558C247.917 401.558 271.158 387.741 272.408 366.502C272.408 366.502 253.874 369.736 240.121 403.542C240.121 403.542 267.26 425.001 296.605 411.846C296.605 411.846 275.35 394.649 247.917 401.484V401.558ZM277.703 391.636C277.703 391.636 295.722 376.13 295.943 356.728L289.471 356.948C283.587 362.093 275.056 372.969 270.349 394.943C270.349 394.943 300.797 411.406 327.421 393.327C327.421 393.327 303.445 380.098 277.703 391.563V391.636ZM261.744 394.649C261.744 396.413 263.141 397.81 264.98 397.81C266.818 397.81 268.142 396.34 268.142 394.649C268.142 392.959 266.745 391.489 264.98 391.489C263.214 391.489 261.744 392.959 261.744 394.649ZM374.565 162.122C374.565 162.122 391.039 131.697 372.947 105.093C372.947 105.093 359.708 129.051 371.181 154.773C371.181 154.773 353.53 134.269 332.422 136.768C332.422 136.768 338.821 154.479 374.565 162.122ZM297.046 90.909L306.681 80.9142C298.443 79.0034 282.999 76.2842 270.496 85.5441C270.496 85.5441 276.894 92.8198 297.046 90.909ZM361.4 142.574C363.165 142.574 364.562 141.177 364.562 139.413C364.562 137.65 363.091 136.18 361.4 136.18C359.708 136.18 358.237 137.65 358.237 139.413C358.237 141.177 359.708 142.574 361.4 142.574ZM383.17 192.327C383.17 192.327 404.719 165.209 391.48 135.886C391.48 135.886 374.27 157.125 381.11 184.537C381.11 184.537 367.357 161.314 346.028 160.065C346.028 160.065 349.338 178.584 383.096 192.327H383.17ZM336.688 39.5384C346.764 44.5359 354.854 39.318 354.854 39.318C366.033 33.8061 374.197 41.4492 374.197 41.4492C381.993 47.549 380.743 55.5596 380.743 55.5596C380.743 61.7329 378.977 62.1003 378.977 62.1003C375.227 64.6725 376.183 60.3365 376.183 60.3365C376.33 60.3365 377.065 57.2499 377.065 57.2499C378.536 43.36 366.033 41.3757 366.033 41.3757C352.795 39.0975 349.485 51.2971 349.485 51.2971C348.603 54.6777 348.603 57.6174 348.97 60.263L332.422 43.7275L333.231 57.6908L370.152 94.6571H383.39L369.931 81.2816C376.992 83.4864 383.243 83.7068 383.243 83.7068C402.145 82.531 404.057 64.5256 404.057 64.5256C409.058 45.6382 391.186 30.4255 391.186 30.4255C379.272 20.2102 361.253 19.3283 361.253 19.3283C335.585 16.3886 326.538 0 326.538 0C323.523 7.49613 324.332 18.5199 324.332 18.5199C326.024 35.4964 336.835 39.465 336.835 39.465L336.688 39.5384ZM378.683 197.545C378.683 199.309 380.081 200.705 381.846 200.705C383.611 200.705 385.082 199.309 385.082 197.545C385.082 195.781 383.684 194.312 381.846 194.312C380.007 194.312 378.683 195.781 378.683 197.545ZM308.667 78.4889L316.462 70.5519C313.153 59.3812 306.46 45.9322 289.838 37.9216C289.838 37.9216 289.177 61.8064 308.667 78.4889ZM328.23 298.963H314.771V315.94H328.23V298.963ZM338.674 130.521C344.557 132.211 351.912 133.461 360.811 133.828C360.811 133.828 364.856 121.775 363.091 107.151L351.471 118.248C352.721 121.188 354.339 124.201 356.251 127.14C356.251 127.14 353.089 124.495 347.941 121.628L338.674 130.447V130.521ZM83.3921 94.2161C83.3921 95.9799 84.7894 97.3763 86.5546 97.3763C88.3197 97.3763 89.7906 95.9799 89.7906 94.2161C89.7906 92.4523 88.3197 91.056 86.5546 91.056C84.7894 91.056 83.3921 92.4523 83.3921 94.2161ZM364.489 98.0377L329.995 63.5702L299.105 97.1558L332.275 129.86L364.489 98.0377ZM291.236 99.1401L284.322 107.445L321.905 145.072L329.554 137.429L291.236 99.1401ZM327.568 215.771H314.109V232.748H327.568V215.771ZM166.574 53.3548C166.574 53.3548 177.164 60.3365 195.698 47.549C195.698 47.549 172.678 38.1421 166.574 53.3548ZM286.382 65.4075C286.382 65.4075 275.938 62.2473 262.773 66.7303V78.7829C270.79 78.6359 278.953 76.6517 293.663 68.9351C293.663 68.9351 286.676 35.0555 255.786 26.31C255.786 26.31 261.008 53.1344 286.382 65.4809V65.4075ZM147.672 80.3997L147.893 68.7146C134.875 64.893 121.71 67.3917 121.71 67.3917C146.79 54.4572 151.423 27.4858 151.423 27.4858C120.68 36.9662 114.502 70.9928 114.502 70.9928C128.697 78.048 139.729 80.2527 147.672 80.3997ZM138.037 87.1609C120.68 74.8144 95.3802 84.3683 95.3802 84.3683C117.812 67.2447 117.738 39.9059 117.738 39.9059C89.1287 54.5307 88.9816 89.1452 88.9816 89.1452C123.99 99.5075 138.111 87.0875 138.111 87.0875L138.037 87.1609ZM136.052 61.4389C136.052 63.2027 137.523 64.599 139.214 64.599C140.906 64.599 142.45 63.1292 142.45 61.4389C142.45 59.7486 140.979 58.2788 139.214 58.2788C137.449 58.2788 136.052 59.6751 136.052 61.4389ZM143.774 58.1318L167.898 57.7643C160.396 53.2814 152.232 53.4283 152.232 53.4283C179.224 45.0503 186.873 21.0186 186.873 21.0186C154.953 24.9871 142.965 57.4704 142.965 57.4704C143.406 57.7643 143.406 57.7643 143.848 58.1318H143.774ZM272.408 59.7486C272.408 57.9848 271.01 56.5885 269.172 56.5885C267.333 56.5885 266.009 57.9848 266.009 59.7486C266.009 61.5124 267.407 62.9087 269.172 62.9087C270.937 62.9087 272.408 61.4389 272.408 59.7486ZM255.492 53.4283C255.492 53.4283 247.255 53.2814 239.827 57.7643L263.876 58.1318C264.318 57.8378 264.318 57.8378 264.759 57.4704C264.759 57.4704 252.771 24.9871 220.851 21.0186C220.851 21.0186 228.574 45.0503 255.492 53.4283ZM203.715 49.7538C206.068 49.7538 207.981 47.843 207.981 45.4913C207.981 43.1395 206.068 41.2287 203.715 41.2287C201.361 41.2287 199.449 43.1395 199.449 45.4913C199.449 47.843 201.361 49.7538 203.715 49.7538ZM241.15 51.9585C234.384 36.9662 211.805 47.2551 211.805 47.2551C230.854 59.3077 241.15 51.9585 241.15 51.9585Z" fill="#999999"/>
</svg>
