<svg width="228" height="36" viewBox="0 0 228 36" fill="none" xmlns="http://www.w3.org/2000/svg">
<path d="M27.489 18.0915C27.489 27.4034 20.5509 34.4692 11.2737 34.4692H0V1.71387H11.2737C20.5509 1.71387 27.489 8.77966 27.489 18.0915ZM23.4566 18.0915C23.4566 8.77966 18.3831 2.64973 10.7103 2.64973H3.85782V33.5333H10.707C18.3798 33.5333 23.4533 27.4034 23.4533 18.0915H23.4566Z" fill="#F16924"/>
<path d="M52.0366 33.5333V34.4692H30.6621V1.71387H51.605V2.64973H34.5232V17.3896H48.136V18.3255H34.5232V33.5333H52.0399H52.0366Z" fill="#F16924"/>
<path d="M75.1616 24.783H59.9873L56.0405 34.4692H54.8281L68.1378 1.71387H69.8278L83.0946 34.4692H79.0622L75.1583 24.783H75.1616ZM74.7695 23.8471L67.5711 6.01885L60.3299 23.8471H74.7662H74.7695Z" fill="#F16924"/>
<path d="M110.854 34.4692H106.433C105.435 33.7205 104.7 32.7378 104.18 31.7552L99.5839 23.0516C98.9777 21.9754 98.0652 20.9927 96.9385 20.4312H89.5688V34.4692H85.7109V1.71387H97.6336C103.919 1.71387 108.647 5.6913 108.647 11.0257C108.647 15.8922 104.875 19.5889 99.5411 20.2908C101.623 20.9459 103.313 22.1157 104.18 23.7535L108.08 30.9129C108.818 32.3635 109.945 33.7673 110.854 34.4692ZM89.5655 19.4953H96.8923C101.531 19.4953 104.611 16.173 104.611 11.0725C104.611 5.97206 101.534 2.64973 96.8923 2.64973H89.5655V19.4953Z" fill="#F16924"/>
<path d="M150.95 1.71387V34.4692H149.474L127.016 5.08299V34.4692H125.975V1.71387H129.226L149.909 28.854V1.71387H150.95Z" fill="#F16924"/>
<path d="M174.162 24.783H158.987L155.04 34.4692H153.828L167.138 1.71387H168.828L182.095 34.4692H178.062L174.158 24.783H174.162ZM173.773 23.8471L166.574 6.01885L159.333 23.8471H173.77H173.773Z" fill="#F16924"/>
<path d="M203.212 2.64973H193.022V34.4692H189.164V2.64973H178.889V1.71387H203.212V2.64973Z" fill="#F16924"/>
<path d="M227.999 33.5333V34.4692H206.625V1.71387H227.565V2.64973H210.483V17.3896H224.096V18.3255H210.483V33.5333H227.999Z" fill="#F16924"/>
<path d="M113.539 6.50015C112.264 6.50015 111.18 5.4941 111.18 4.10701C111.18 2.71992 112.264 1.71387 113.539 1.71387C114.952 1.71387 115.897 2.81351 115.897 4.10701C115.897 5.40051 114.955 6.50015 113.539 6.50015Z" fill="#F16924"/>
</svg>
