<svg width="387" height="55" viewBox="0 0 387 55" fill="none" xmlns="http://www.w3.org/2000/svg">
<path d="M46.659 27.1857C46.659 42.6427 34.8824 54.3714 19.1355 54.3714H0V0H19.1355C34.8824 0 46.659 11.7287 46.659 27.1857ZM39.8145 27.1857C39.8145 11.7287 31.2029 1.55347 18.1793 1.55347H6.54814V52.8179H18.1737C31.1973 52.8179 39.8089 42.6427 39.8089 27.1857H39.8145Z" fill="white"/>
<path d="M88.3253 52.8179V54.3714H52.0449V0H87.5928V1.55347H58.5987V26.0206H81.7045V27.5741H58.5987V52.8179H88.3309H88.3253Z" fill="white"/>
<path d="M127.58 38.293H101.823L95.1242 54.3714H93.0664L115.658 0H118.526L141.045 54.3714H134.201L127.574 38.293H127.58ZM126.914 36.7395L114.696 7.14596L102.405 36.7395H126.909H126.914Z" fill="white"/>
<path d="M188.162 54.3714H180.658C178.963 53.1286 177.716 51.4975 176.833 49.8664L169.032 35.4191C168.003 33.6326 166.454 32.0015 164.542 31.0694H152.033V54.3714H145.484V0H165.722C176.391 0 184.415 6.60224 184.415 15.457C184.415 23.5351 178.013 29.6713 168.959 30.8364C172.493 31.9238 175.362 33.8656 176.833 36.5842L183.454 48.4682C184.706 50.8761 186.619 53.2063 188.162 54.3714ZM152.027 29.5159H164.463C172.337 29.5159 177.565 24.0011 177.565 15.5347C177.565 7.06828 172.342 1.55347 164.463 1.55347H152.027V29.5159Z" fill="white"/>
<path d="M256.217 0V54.3714H253.711L215.591 5.59249V54.3714H213.824V0H219.343L254.45 45.0506V0H256.217Z" fill="white"/>
<path d="M295.617 38.293H269.86L263.161 54.3714H261.104L283.695 0H286.564L309.082 54.3714H302.238L295.611 38.293H295.617ZM294.957 36.7395L282.739 7.14596L270.448 36.7395H294.951H294.957Z" fill="white"/>
<path d="M344.926 1.55347H327.63V54.3714H321.082V1.55347H303.641V0H344.926V1.55347Z" fill="white"/>
<path d="M386.999 52.8179V54.3714H350.719V0H386.261V1.55347H357.267V26.0206H380.373V27.5741H357.267V52.8179H386.999Z" fill="white"/>
<path d="M192.715 7.94488C190.551 7.94488 188.711 6.27491 188.711 3.97244C188.711 1.66998 190.551 0 192.715 0C195.114 0 196.719 1.82533 196.719 3.97244C196.719 6.11956 195.119 7.94488 192.715 7.94488Z" fill="white"/>
</svg>
