<svg width="272" height="42" viewBox="0 0 272 42" fill="none" xmlns="http://www.w3.org/2000/svg">
<path d="M32.7939 21.1073C32.7939 31.9711 24.5168 40.2145 13.4493 40.2145H0V2H13.4493C24.5168 2 32.7939 10.2434 32.7939 21.1073ZM27.9833 21.1073C27.9833 10.2434 21.9307 3.09184 12.7772 3.09184H4.60231V39.1227H12.7733C21.9268 39.1227 27.9794 31.9711 27.9794 21.1073H27.9833Z" fill="#333333"/>
<path d="M62.0795 39.1227V40.2145H36.5801V2H61.5646V3.09184H41.1863V20.2884H57.4261V21.3802H41.1863V39.1227H62.0834H62.0795Z" fill="#333333"/>
<path d="M89.6676 28.9139H71.5649L66.8565 40.2145H65.4102L81.2883 2H83.3045L99.1316 40.2145H94.321L89.6637 28.9139H89.6676ZM89.1999 27.8221L80.6123 7.02248L71.9737 27.8221H89.196H89.1999Z" fill="#333333"/>
<path d="M132.248 40.2145H126.973C125.782 39.3411 124.906 38.1946 124.285 37.0482L118.802 26.894C118.079 25.6384 116.99 24.492 115.646 23.8369H106.854V40.2145H102.252V2H116.475C123.974 2 129.614 6.64034 129.614 12.8638C129.614 18.5414 125.114 22.8542 118.751 23.6731C121.235 24.4374 123.251 25.8022 124.285 27.7129L128.938 36.0655C129.819 37.7579 131.163 39.3957 132.248 40.2145ZM106.85 22.745H115.591C121.125 22.745 124.8 18.869 124.8 12.9184C124.8 6.96789 121.129 3.09184 115.591 3.09184H106.85V22.745Z" fill="#333333"/>
<path d="M180.08 2V40.2145H178.32L151.527 5.93064V40.2145H150.285V2H154.164L178.838 33.6635V2H180.08Z" fill="#333333"/>
<path d="M207.771 28.9139H189.668L184.96 40.2145H183.514L199.392 2H201.408L217.235 40.2145H212.425L207.767 28.9139H207.771ZM207.307 27.8221L198.72 7.02248L190.081 27.8221H207.303H207.307Z" fill="#333333"/>
<path d="M242.429 3.09184H230.273V40.2145H225.671V3.09184H213.412V2H242.429V3.09184Z" fill="#333333"/>
<path d="M271.999 39.1227V40.2145H246.5V2H271.481V3.09184H251.102V20.2884H267.342V21.3802H251.102V39.1227H271.999Z" fill="#333333"/>
<path d="M135.449 7.584C133.928 7.584 132.635 6.41027 132.635 4.792C132.635 3.17373 133.928 2 135.449 2C137.135 2 138.263 3.28292 138.263 4.792C138.263 6.30108 137.139 7.584 135.449 7.584Z" fill="#333333"/>
</svg>
