<svg width="105" height="125" viewBox="0 0 105 125" fill="none" xmlns="http://www.w3.org/2000/svg">
<path d="M27.5493 63.5521H23.6945V68.5218H27.5493V63.5521ZM10.7189 101.223C16.2799 108.71 26.0538 107.01 26.0538 107.01C27.2334 96.4038 23.0416 92.9616 23.0416 92.9616C20.4296 98.5983 24.3686 105.397 24.3686 105.397C18.4284 99.7815 10.7189 101.223 10.7189 101.223ZM20.8509 42.9633L18.9761 41.1776C14.4683 42.3609 11.1612 46.4485 11.1612 46.4485C13.2887 41.2637 12.1512 36.4231 11.1823 33.8414L9.81309 32.7011C5.89511 40.2956 10.2344 48.6214 10.2344 48.6214C16.2588 47.137 19.3131 44.7059 20.8087 42.9633H20.8509ZM33.4684 112.217C33.2789 108.925 32.6891 106.515 31.9518 104.601H28.2445C29.2345 108.215 31.5305 110.926 31.5305 110.926C24.7267 106.451 17.3752 109.226 17.3752 109.226C24.1369 115.637 33.4684 112.217 33.4684 112.217ZM47.1814 67.8119V69.7266H45.1803V71.964H46.9497V73.8788H45.1803V76.2023H47.2235V78.117H43.2002V67.8549L40.4197 78.117H38.7977L35.8909 67.8334H38.0184L39.219 72.7601C39.3876 73.3409 39.4718 73.9433 39.5771 74.5242H39.5982C39.7035 73.9218 39.7456 73.3409 39.9142 72.7385L41.1359 67.8334H47.2235L47.1814 67.8119ZM49.6881 90.5951H47.5605L47.1814 88.874H45.1592L44.8011 90.5951H42.8211L45.1592 80.3114H47.2446L49.667 90.5951H49.6881ZM47.6027 67.8119H49.6038C50.8677 67.8119 53.1426 67.9409 53.1426 70.7593C53.1426 71.8995 52.7003 72.8461 51.7102 73.4055L53.4586 78.074H51.3732L49.6249 73.3194H49.5827V78.074H47.6027V67.7903V67.8119ZM53.8588 67.8119H55.8389V78.0955H53.8588V67.8119ZM52.3843 90.7672C51.8156 90.7672 51.1204 90.5951 50.6781 90.2509V88.3146C51.1415 88.6373 51.6049 88.8525 52.1947 88.8525C52.8267 88.8525 53.3533 88.4222 53.3533 87.7337C53.3533 86.9377 52.7424 86.6365 52.1737 86.2278C51.0151 85.4317 50.32 84.6788 50.32 83.1728C50.32 81.5377 51.2468 80.1393 52.953 80.1393C53.585 80.1393 54.1748 80.3114 54.7014 80.6341V82.6134C54.3012 82.2692 53.8167 81.968 53.269 81.968C52.6581 81.968 52.2579 82.3553 52.2579 82.9792C52.2579 84.6788 55.2912 84.7648 55.2912 87.5401C55.2912 89.3688 54.259 90.7457 52.4054 90.7457L52.3843 90.7672ZM42.484 82.2477H40.9042V90.6166H38.9031V82.2477H37.3443V80.3329H42.463V82.2477H42.484ZM32.5627 55.9577V99.2006H53.5218C55.9021 99.2652 58.3245 101.158 58.3245 101.158V66.564C45.6226 66.2844 43.0738 55.9577 43.0738 55.9577H32.5627ZM81.2426 33.6047L74.9654 40.5968L75.0286 51.7625C75.0286 51.7625 74.839 53.5912 74.4598 54.5163H78.5042L90.0475 42.7266L81.2636 33.6262L81.2426 33.6047ZM27.6757 87.0668H23.842V92.0365H27.6757V87.0668ZM33.974 38.7896L42.0627 46.9003V40.6183L33.974 32.3569V38.7681V38.7896ZM27.5915 108.387C28.097 108.387 28.4972 107.957 28.4972 107.462C28.4972 106.967 28.076 106.537 27.5915 106.537C27.107 106.537 26.6857 106.946 26.6857 107.462C26.6857 107.978 27.107 108.387 27.5915 108.387ZM12.9517 41.8661C12.9517 42.3824 13.373 42.7912 13.8575 42.7912C14.3419 42.7912 14.7632 42.3609 14.7632 41.8661C14.7632 41.3713 14.3419 40.941 13.8575 40.941C13.373 40.941 12.9517 41.3713 12.9517 41.8661ZM27.6547 101.567C27.6968 101.997 27.781 101.46 27.781 101.46V95.3927L26.791 96.5114C27.3387 98.0389 27.5493 100.233 27.6547 101.567ZM42.0627 50.0198V48.7505L36.1015 42.6621H22.1147L30.0139 50.0414H42.0627V50.0198ZM11.73 32.6796C11.73 32.6796 11.2033 29.345 14.5947 24.3753H3.1146C3.1146 24.3753 3.59909 25.7306 11.73 32.6796ZM1.76648 50.9665C-0.27677 60.1314 7.28536 66.6931 7.28536 66.6931C16.006 60.7983 15.8796 55.2908 15.8796 55.2908C9.98161 56.8613 7.41175 64.3266 7.41175 64.3266C7.79091 56.0653 1.76648 50.9665 1.76648 50.9665ZM8.52816 55.2262C10.2976 47.1585 5.24211 41.0701 5.24211 41.0701C1.66116 49.7402 8.00155 57.5282 8.00155 57.5282C17.5859 53.2684 18.4074 47.8254 18.4074 47.8254C12.3408 48.3202 8.52816 55.2262 8.52816 55.2262ZM9.32861 59.0557C9.32861 58.5394 8.92839 58.1306 8.42284 58.1306C7.91729 58.1306 7.51707 58.5394 7.51707 59.0557C7.51707 59.572 7.91729 59.9808 8.42284 59.9808C8.92839 59.9808 9.32861 59.572 9.32861 59.0557ZM56.1127 106.322H62.1371C62.1371 106.322 62.5374 103.654 64.2436 103.654H89.226V58.7545L86.7404 56.0868V100.578H64.37C64.37 100.578 61.3577 100.836 59.0196 103.783C59.0196 103.783 57.187 100.986 53.269 100.707H31.4252V56.474L28.75 59.2063V103.654H53.1426C53.1426 103.654 56.1548 103.783 56.1548 106.322H56.1127ZM16.9539 23.8159C10.6978 30.7219 14.026 40.2525 14.026 40.2525C24.4739 39.6071 27.0438 34.7665 27.0438 34.7665C21.1668 33.1099 15.2898 38.2733 15.2898 38.2733C19.6712 31.3243 16.9539 23.8159 16.9539 23.8159ZM46.402 84.5282L46.1703 82.9792H46.1492L45.9386 84.5282L45.5173 87.2604H46.9286L46.4231 84.5282H46.402ZM104.14 103.848C105.656 102.88 107.11 101.567 108.31 99.76C108.31 99.76 105.003 99.3297 101.148 100.664L104.161 103.848H104.14ZM110.501 63.1003C110.501 63.1003 107.763 55.6995 101.844 54.2581C101.844 54.2581 101.844 59.7656 110.691 65.4453C110.691 65.4453 118.105 58.7115 115.83 49.5896C115.83 49.5896 109.932 54.839 110.501 63.1003ZM99.379 85.1951C99.379 85.1951 95.9245 89.4118 99.1263 99.5879C99.1263 99.5879 109.048 99.3082 113.05 90.8317C113.05 90.8317 105.214 90.9823 100.474 97.6516C100.474 97.6516 103.044 90.1863 99.4001 85.1951H99.379ZM110.248 72.2867C110.248 72.2867 108.816 64.4987 103.213 62.0461C103.213 62.0461 102.265 67.4676 110.038 74.6318C110.038 74.6318 118.484 69.3178 117.81 59.9378C117.81 59.9378 111.091 64.0684 110.248 72.2867ZM103.276 69.9417C103.276 69.9417 101.443 75.1266 107.847 83.56C107.847 83.56 117.073 79.8381 118 70.4581C118 70.4581 110.691 73.3194 108.479 81.2796C108.479 81.2796 108.374 73.3624 103.276 69.9417ZM109.132 76.8907C109.637 76.8907 110.038 76.482 110.038 75.9656C110.038 75.4493 109.637 75.0405 109.132 75.0405C108.626 75.0405 108.226 75.4708 108.226 75.9656C108.226 76.4604 108.626 76.8907 109.132 76.8907ZM103.782 92.8756C103.782 92.3592 103.381 91.9505 102.876 91.9505C102.37 91.9505 101.97 92.3807 101.97 92.8756C101.97 93.3704 102.37 93.8222 102.876 93.8222C103.381 93.8222 103.782 93.3919 103.782 92.8756ZM26.5382 37.2621C26.1802 37.5418 23.6314 39.9298 19.7555 40.4031L21.0826 41.6725L34.9219 41.6079L30.6247 37.2191L28.434 35.0031C28.434 35.0031 26.8963 37.0039 26.5172 37.2836L26.5382 37.2621ZM80.084 83.0437H80.063L79.8523 84.5927L79.431 87.325H80.8213L80.3157 84.5927L80.084 83.0437ZM51.2047 70.7808C51.2047 70.0278 50.8677 69.4469 49.8566 69.4899H49.5827V72.2222H49.9408C50.8466 72.2222 51.2047 71.6198 51.2047 70.7808ZM70.8578 76.482C71.8268 76.482 71.8268 75.729 71.8478 74.976V67.8979H73.8279V75.3847C73.8279 76.482 73.7015 78.3322 70.8367 78.3322C68.9831 78.3322 67.8667 77.4501 67.8667 75.5353V67.8979H69.8467V74.5457C69.8467 75.3202 69.7625 76.5035 70.8367 76.5035L70.8578 76.482ZM75.9765 80.3975V82.3122H73.9753V84.5497H75.7448V86.4644H73.9753V88.7879H76.0186V90.7027H71.9953V80.419H75.9975L75.9765 80.3975ZM75.4288 67.8764H77.6616L78.2304 69.3178C78.3989 69.8126 78.6095 70.3505 78.7148 70.8883H78.7359C78.8412 70.3505 79.0098 69.8342 79.1783 69.3178L79.7681 67.8764H81.9166L79.7681 72.8461L82.0852 78.1385H79.7681L79.1361 76.5035C78.9466 75.9871 78.8202 75.4708 78.6938 74.9545H78.6727C78.5253 75.4708 78.3989 75.9656 78.2304 76.5035L77.6406 78.1385H75.4077L77.5352 72.8461L75.4077 67.8764H75.4288ZM81.4743 90.6811L81.0951 88.9385H79.0729L78.7148 90.6811H76.7348L79.0729 80.3975H81.1794L83.6018 90.6811H81.4743ZM68.7514 90.6811L68.2669 83.2804H68.2458L67.9299 85.819L67.0873 90.6811H65.5496L64.5806 85.7544L64.2436 83.474V83.2804H64.2225L63.9276 90.6811H61.8001L62.6848 80.3975H65.2968L66.2658 86.4644H66.2868L67.0873 80.3975H69.7414L70.7946 90.6811H68.7514ZM62.3056 67.8764H64.2857V76.2453H66.3711V78.16H62.3056V67.8764ZM59.7569 66.3059V101.158C59.7569 101.158 61.6737 99.2006 64.37 99.2006H85.5397V55.9577H74.1228C74.1228 55.9577 70.8789 66.1553 59.7569 66.3059ZM32.7312 31.2167C32.7312 31.2167 31.8254 32.5506 28.3919 33.3035L32.7312 37.3912V31.1952V31.2167ZM50.8887 27.1506V22.5681H64.8755V29.1083H69.4886V33.8199H65.0019V35.9067H69.4886V41.0055H65.0019V56.3449H61.1471L55.8178 50.9019L50.9519 55.8716L47.4131 52.2788L55.5018 44.0175L59.6726 48.2772V27.1075H50.8887V27.1506ZM43.7058 49.1163C43.7058 60.0023 50.3832 65.015 58.6194 65.015C66.8556 65.015 73.5541 60.0023 73.5541 49.1163V18.1147H43.7268C43.7268 18.1147 43.7268 38.2517 43.7268 49.1163H43.7058ZM30.9828 51.1816L34.5427 54.3872H42.5683C42.1891 53.7418 42.3155 51.2461 42.3155 51.2461L30.9828 51.1816ZM95.6085 92.1656C95.6085 92.1656 94.9555 92.854 94.7449 93.9297L96.6828 95.9736C96.5775 94.7042 96.2615 93.3919 95.6085 92.1656ZM19.6291 100.535C22.5992 90.2939 19.0393 86.1632 19.0393 86.1632C15.5005 91.2405 18.2389 98.6413 18.2389 98.6413C13.3519 92.0795 5.51595 92.1011 5.51595 92.1011C9.70777 100.47 19.6291 100.535 19.6291 100.535ZM19.1446 32.6581C29.5294 33.8629 32.8997 29.5601 32.8997 29.5601C27.3808 26.8924 20.7245 30.9155 20.7245 30.9155C26.2223 24.8486 24.811 16.9745 24.811 16.9745C17.4805 22.6542 19.1446 32.6366 19.1446 32.6366V32.6581ZM40.8831 107.742C41.3887 113.959 48.1293 117.832 48.1293 117.832C40.2301 116.025 34.2689 121.188 34.2689 121.188C42.7579 124.845 50.3832 118.37 50.3832 118.37C46.2124 108.559 40.8831 107.742 40.8831 107.742ZM14.4051 93.0477C19.0814 83.4955 16.2799 78.7839 16.2799 78.7839C11.9406 83.1513 13.373 90.9393 13.373 90.9393C9.66564 83.6031 1.935 82.2477 1.935 82.2477C4.65231 91.2405 14.4051 93.0477 14.4051 93.0477ZM35.3853 104.622H34.0793C34.0161 110.474 39.535 115.121 39.535 115.121C32.0782 111.937 25.3165 115.96 25.3165 115.96C33.0472 121.08 41.6625 116.046 41.6625 116.046C39.9774 108.903 37.0494 105.848 35.3853 104.622ZM16.1114 109.076C16.1114 109.076 17.5437 108.215 19.6081 107.892L17.312 107.333L17.1014 107.634C17.2278 107.462 17.312 107.333 17.312 107.333L7.15897 118.24C7.15897 118.24 6.00043 119.94 7.09578 121.059C7.09578 121.059 8.10687 121.919 9.53925 120.93L19.4395 112.087C18.4284 111.55 16.2588 109.699 16.1324 109.054L16.1114 109.076ZM10.5293 84.7218C16.7433 76.1377 14.7843 71.0174 14.7843 71.0174C9.77096 74.5672 9.85522 82.4628 9.85522 82.4628C7.47494 74.5887 0.10239 71.878 0.10239 71.878C1.23987 81.215 10.5503 84.7218 10.5503 84.7218H10.5293ZM15.7533 23.2781L3.72547 10.9721C3.72547 10.9721 -1.30893 14.651 2.60906 23.2565H15.7533V23.2781ZM21.1879 18.8032L14.1102 11.5099C9.72883 7.03505 4.54699 9.98246 4.54699 9.98246L18.4706 24.1601C19.3974 20.5243 21.1879 18.8032 21.1879 18.8032ZM8.17007 77.1489C8.17007 77.6652 8.59136 78.074 9.07584 78.074C9.56032 78.074 9.98161 77.6437 9.98161 77.1489C9.98161 76.6541 9.58138 76.2023 9.07584 76.2023C8.57029 76.2023 8.17007 76.6326 8.17007 77.1489ZM8.149 75.8581C15.7322 68.5003 14.679 63.1003 14.679 63.1003C9.13903 65.7035 7.87516 73.513 7.87516 73.513C6.84301 65.3162 0.0181323 61.3577 0.0181323 61.3577C-0.445285 70.7593 8.12794 75.8796 8.12794 75.8796L8.149 75.8581ZM14.8054 93.9513C14.8054 94.4676 15.2056 94.8979 15.7111 94.8979C16.2167 94.8979 16.6169 94.4676 16.6169 93.9513C16.6169 93.4349 16.1956 93.0262 15.7111 93.0262C15.2266 93.0262 14.8054 93.4349 14.8054 93.9513ZM91.3114 107.57C91.8169 107.57 92.2171 107.161 92.2171 106.623C92.2171 106.085 91.8169 105.698 91.3114 105.698C90.8058 105.698 90.4056 106.107 90.4056 106.623C90.4056 107.139 90.8058 107.57 91.3114 107.57ZM96.1562 106.365L92.9333 103.676C92.9965 104.515 93.1019 105.397 93.2704 106.343C93.2704 106.343 94.4289 106.494 96.1562 106.343V106.365ZM105.151 89.8421C105.151 89.8421 106.415 82.0325 101.97 77.7513C101.97 77.7513 99.2737 82.5274 104.161 91.972C104.161 91.972 113.871 89.9282 116.378 80.8708C116.378 80.8708 108.69 82.3983 105.151 89.8206V89.8421ZM44.1902 115.895C44.1902 115.379 43.769 114.97 43.2845 114.97C42.8 114.97 42.3787 115.401 42.3787 115.895C42.3787 116.39 42.8 116.821 43.2845 116.821C43.769 116.821 44.1902 116.412 44.1902 115.895ZM87.4566 110.259C87.4566 110.259 89.4366 107.828 90.4056 104.429L86.6772 104.364C86.0874 106.236 85.645 108.602 85.5187 111.593C85.5187 111.593 93.5653 114.325 99.9899 109.57L97.5043 107.527C94.7659 107.376 90.9954 107.785 87.4355 110.259H87.4566ZM90.1528 95.1345V100.104L111.955 118.585H116.315L94.1129 95.1345H90.1528ZM58.2191 116.605V118.929C57.1659 117.229 53.0584 111.098 48.4242 110.797C48.4242 110.797 50.004 116.283 56.9553 119.51C56.9553 119.51 48.2346 120.091 44.6747 124.974C44.6747 124.974 52.279 125.684 58.2191 119.639V123.425H60.5362V116.605H58.2191ZM62.0739 119.488C69.0041 116.218 70.5418 110.711 70.5418 110.711C65.1494 111.098 60.5362 119.359 60.5362 119.359C66.5607 125.641 74.3966 124.867 74.3966 124.867C70.8157 120.026 62.095 119.488 62.095 119.488H62.0739ZM71.0053 117.552C71.0053 117.552 77.6616 113.507 78.0197 107.29C78.0197 107.29 72.7115 108.236 68.7724 118.133C68.7724 118.133 76.5452 124.415 84.9499 120.564C84.9499 120.564 78.8623 115.53 71.0053 117.531V117.552ZM79.5364 114.648C79.5364 114.648 84.6971 110.108 84.7603 104.429L82.9067 104.493C81.2215 105.999 78.778 109.183 77.4299 115.616C77.4299 115.616 86.1506 120.435 93.7759 115.142C93.7759 115.142 86.9089 111.27 79.5364 114.626V114.648ZM74.9654 115.53C74.9654 116.046 75.3656 116.455 75.8922 116.455C76.4188 116.455 76.798 116.025 76.798 115.53C76.798 115.035 76.3978 114.605 75.8922 114.605C75.3867 114.605 74.9654 115.035 74.9654 115.53ZM107.278 47.4597C107.278 47.4597 111.997 38.5529 106.815 30.7649C106.815 30.7649 103.023 37.7784 106.309 45.3083C106.309 45.3083 101.254 39.3059 95.2083 40.0374C95.2083 40.0374 97.0409 45.2222 107.278 47.4597ZM85.0763 26.6127L87.8357 23.6868C85.4765 23.1275 81.053 22.3314 77.472 25.0422C77.472 25.0422 79.3046 27.1721 85.0763 26.6127ZM103.508 41.737C104.013 41.737 104.413 41.3282 104.413 40.8119C104.413 40.2956 103.992 39.8653 103.508 39.8653C103.023 39.8653 102.602 40.2956 102.602 40.8119C102.602 41.3282 103.023 41.737 103.508 41.737ZM109.743 56.3019C109.743 56.3019 115.915 48.3633 112.123 39.7792C112.123 39.7792 107.194 45.9967 109.153 54.0214C109.153 54.0214 105.214 47.223 99.1052 46.8573C99.1052 46.8573 100.053 52.2788 109.722 56.3019H109.743ZM96.43 11.5745C99.3159 13.0374 101.633 11.5099 101.633 11.5099C104.835 9.8964 107.173 12.1338 107.173 12.1338C109.406 13.9195 109.048 16.2645 109.048 16.2645C109.048 18.0717 108.542 18.1793 108.542 18.1793C107.468 18.9322 107.742 17.6629 107.742 17.6629C107.784 17.6629 107.994 16.7593 107.994 16.7593C108.416 12.6932 104.835 12.1123 104.835 12.1123C101.043 11.4454 100.095 15.0167 100.095 15.0167C99.8425 16.0064 99.8425 16.8669 99.9478 17.6414L95.2083 12.8008L95.44 16.8884L106.014 27.7099H109.806L105.951 23.7944C107.973 24.4398 109.764 24.5043 109.764 24.5043C115.177 24.1601 115.725 18.8892 115.725 18.8892C117.157 13.3601 112.039 8.90676 112.039 8.90676C108.626 5.91633 103.466 5.65816 103.466 5.65816C96.1141 4.7976 93.5231 0 93.5231 0C92.6595 2.19442 92.8912 5.42151 92.8912 5.42151C93.3757 10.3912 96.4722 11.553 96.4722 11.553L96.43 11.5745ZM108.458 57.8294C108.458 58.3457 108.858 58.7545 109.364 58.7545C109.869 58.7545 110.29 58.3457 110.29 57.8294C110.29 57.3131 109.89 56.8828 109.364 56.8828C108.837 56.8828 108.458 57.3131 108.458 57.8294ZM88.4045 22.9769L90.6373 20.6534C89.6894 17.3832 87.7726 13.4462 83.012 11.1012C83.012 11.1012 82.8224 18.0932 88.4045 22.9769ZM94.0076 87.5186H90.1528V92.4883H94.0076V87.5186ZM96.9988 38.2087C98.6839 38.7035 100.79 39.0693 103.339 39.1768C103.339 39.1768 104.498 35.6486 103.992 31.3673L100.664 34.6159C101.022 35.4764 101.485 36.3585 102.033 37.2191C102.033 37.2191 101.127 36.4446 99.6529 35.6055L96.9988 38.1872V38.2087ZM23.8841 27.5808C23.8841 28.0972 24.2844 28.5059 24.7899 28.5059C25.2954 28.5059 25.7167 28.0972 25.7167 27.5808C25.7167 27.0645 25.2954 26.6557 24.7899 26.6557C24.2844 26.6557 23.8841 27.0645 23.8841 27.5808ZM104.392 28.6996L94.5132 18.6095L85.6661 28.4414L95.1662 38.0151L104.392 28.6996ZM83.4122 29.0223L81.4322 31.4533L92.1961 42.4685L94.3868 40.231L83.4122 29.0223ZM93.818 63.1648H89.9632V68.1346H93.818V63.1648ZM47.708 15.6191C47.708 15.6191 50.7413 17.6629 56.0495 13.9195C56.0495 13.9195 49.4563 11.1657 47.708 15.6191ZM82.022 19.1474C82.022 19.1474 79.0308 18.2223 75.2603 19.5346V23.0629C77.5563 23.0199 79.8944 22.439 84.1073 20.18C84.1073 20.18 82.1062 10.2621 73.2592 7.70198C73.2592 7.70198 74.7547 15.5546 82.022 19.1689V19.1474ZM42.2944 23.5362L42.3576 20.1155C38.6292 18.9968 34.8587 19.7283 34.8587 19.7283C42.0417 15.9418 43.3687 8.0462 43.3687 8.0462C34.5638 10.8215 32.7944 20.7824 32.7944 20.7824C36.8598 22.8478 40.0195 23.4932 42.2944 23.5362ZM39.535 25.5155C34.5638 21.9012 27.3176 24.698 27.3176 24.698C33.7423 19.6852 33.7212 11.6821 33.7212 11.6821C25.5272 15.9633 25.485 26.0964 25.485 26.0964C35.5117 29.1298 39.5561 25.494 39.5561 25.494L39.535 25.5155ZM38.9663 17.9856C38.9663 18.502 39.3876 18.9107 39.872 18.9107C40.3565 18.9107 40.7989 18.4805 40.7989 17.9856C40.7989 17.4908 40.3776 17.0605 39.872 17.0605C39.3665 17.0605 38.9663 17.4693 38.9663 17.9856ZM41.178 17.0175L48.0872 16.9099C45.9386 15.5976 43.6004 15.6406 43.6004 15.6406C51.3311 13.188 53.5218 6.15298 53.5218 6.15298C44.3798 7.31473 40.9463 16.8239 40.9463 16.8239C41.0727 16.9099 41.0727 16.9099 41.1991 17.0175H41.178ZM78.0197 17.4908C78.0197 16.9745 77.6195 16.5657 77.0929 16.5657C76.5663 16.5657 76.1871 16.9745 76.1871 17.4908C76.1871 18.0071 76.5873 18.4159 77.0929 18.4159C77.5984 18.4159 78.0197 17.9856 78.0197 17.4908ZM73.1749 15.6406C73.1749 15.6406 70.8157 15.5976 68.6882 16.9099L75.5762 17.0175C75.7026 16.9314 75.7026 16.9314 75.829 16.8239C75.829 16.8239 72.3955 7.31473 63.2536 6.15298C63.2536 6.15298 65.4653 13.188 73.1749 15.6406ZM58.3455 14.5649C59.0196 14.5649 59.5673 14.0056 59.5673 13.3171C59.5673 12.6287 59.0196 12.0693 58.3455 12.0693C57.6715 12.0693 57.1238 12.6287 57.1238 13.3171C57.1238 14.0056 57.6715 14.5649 58.3455 14.5649ZM69.0673 15.2103C67.1294 10.8215 60.6626 13.8334 60.6626 13.8334C66.1183 17.3617 69.0673 15.2103 69.0673 15.2103Z" fill="#1F458B"/>
</svg>
