<svg width="180" height="28" viewBox="0 0 180 28" fill="none" xmlns="http://www.w3.org/2000/svg">
<g clip-path="url(#clip0_1452_1679)">
<path d="M21.7019 14.0717C21.7019 21.3142 16.2244 26.8099 8.90026 26.8099H0V1.3335H8.90026C16.2244 1.3335 21.7019 6.82911 21.7019 14.0717ZM18.5184 14.0717C18.5184 6.82911 14.513 2.06139 8.4555 2.06139H3.04565V26.082H8.4529C14.5104 26.082 18.5158 21.3142 18.5158 14.0717H18.5184Z" fill="#F16924"/>
<path d="M41.0816 26.082V26.8099H24.207V1.3335H40.7409V2.06139H27.2553V13.5258H38.0022V14.2536H27.2553V26.082H41.0842H41.0816Z" fill="#F16924"/>
<path d="M59.3388 19.2761H47.3591L44.2433 26.8099H43.2861L53.7937 1.3335H55.128L65.6018 26.8099H62.4183L59.3362 19.2761H59.3388ZM59.0293 18.5482L53.3464 4.68182L47.6296 18.5482H59.0267H59.0293Z" fill="#F16924"/>
<path d="M87.516 26.8099H84.0256C83.2376 26.2275 82.6576 25.4632 82.2466 24.699L78.6184 17.9295C78.1398 17.0924 77.4194 16.3282 76.5299 15.8914H70.7117V26.8099H67.666V1.3335H77.0786C82.0411 1.3335 85.7734 4.42705 85.7734 8.57606C85.7734 12.3611 82.7954 15.2363 78.5846 15.7822C80.2283 16.2918 81.5626 17.2016 82.2466 18.4754L85.3261 24.0438C85.9087 25.1721 86.7982 26.2639 87.516 26.8099ZM70.7091 15.1635H76.4934C80.1555 15.1635 82.5873 12.5795 82.5873 8.61246C82.5873 4.64542 80.1581 2.06139 76.4934 2.06139H70.7091V15.1635Z" fill="#F16924"/>
<path d="M119.17 1.3335V26.8099H118.005L100.275 3.95392V26.8099H99.4531V1.3335H102.02L118.349 22.4425V1.3335H119.17Z" fill="#F16924"/>
<path d="M137.496 19.2761H125.516L122.4 26.8099H121.443L131.951 1.3335H133.285L143.759 26.8099H140.576L137.493 19.2761H137.496ZM137.189 18.5482L131.506 4.68182L125.789 18.5482H137.187H137.189Z" fill="#F16924"/>
<path d="M160.431 2.06139H152.386V26.8099H149.341V2.06139H141.229V1.3335H160.431V2.06139Z" fill="#F16924"/>
<path d="M180 26.082V26.8099H163.125V1.3335H179.656V2.06139H166.171V13.5258H176.918V14.2536H166.171V26.082H180Z" fill="#F16924"/>
<path d="M89.6357 5.05616C88.6291 5.05616 87.7734 4.27368 87.7734 3.19483C87.7734 2.11598 88.6291 1.3335 89.6357 1.3335C90.7515 1.3335 91.4979 2.18877 91.4979 3.19483C91.4979 4.20089 90.7541 5.05616 89.6357 5.05616Z" fill="#F16924"/>
</g>
<defs>
<clipPath id="clip0_1452_1679">
<rect width="180" height="28" fill="white"/>
</clipPath>
</defs>
</svg>
