<svg width="110" height="30" viewBox="0 0 110 30" fill="none" xmlns="http://www.w3.org/2000/svg">
<g clip-path="url(#clip0_788_838)">
<path d="M13.2622 11.2001C13.2622 15.5935 9.91489 18.9273 5.43904 18.9273H0V3.47287H5.43904C9.91489 3.47287 13.2622 6.80661 13.2622 11.2001ZM11.3168 11.2001C11.3168 6.80661 8.86904 3.91442 5.16725 3.91442H1.86123V18.4857H5.16566C8.86745 18.4857 11.3152 15.5935 11.3152 11.2001H11.3168Z" fill="#333333"/>
<path d="M25.1072 18.4857V18.9273H14.7949V3.47287H24.899V3.91442H16.6577V10.8689H23.2253V11.3105H16.6577V18.4857H25.1088H25.1072Z" fill="#333333"/>
<path d="M36.2631 14.3572H28.9422L27.038 18.9273H26.4531L32.8744 3.47287H33.6898L40.0905 18.9273H38.145L36.2615 14.3572H36.2631ZM36.074 13.9156L32.6011 5.50402L29.1075 13.9156H36.0724H36.074Z" fill="#333333"/>
<path d="M53.4821 18.9273H51.3491C50.8675 18.574 50.5131 18.1104 50.2619 17.6468L48.0447 13.5403C47.7522 13.0325 47.3119 12.5689 46.7684 12.304H43.2128V18.9273H41.3516V3.47287H47.1037C50.1364 3.47287 52.4172 5.34948 52.4172 7.86634C52.4172 10.1624 50.5973 11.9066 48.024 12.2377C49.0285 12.5468 49.8439 13.0988 50.2619 13.8715L52.1438 17.2494C52.4999 17.9338 53.0434 18.5961 53.4821 18.9273ZM43.2112 11.8624H46.7461C48.984 11.8624 50.4701 10.2949 50.4701 7.88841C50.4701 5.48194 48.9856 3.91442 46.7461 3.91442H43.2112V11.8624Z" fill="#333333"/>
<path d="M72.8268 3.47287V18.9273H72.1148L61.2796 5.06247V18.9273H60.7773V3.47287H62.3461L72.3246 16.278V3.47287H72.8268Z" fill="#333333"/>
<path d="M84.0248 14.3572H76.7039L74.7998 18.9273H74.2148L80.6362 3.47287H81.4515L87.8522 18.9273H85.9067L84.0232 14.3572H84.0248ZM83.8373 13.9156L80.3644 5.50402L76.8708 13.9156H83.8357H83.8373Z" fill="#333333"/>
<path d="M98.0434 3.91442H93.1273V18.9273H91.266V3.91442H86.3086V3.47287H98.0434V3.91442Z" fill="#333333"/>
<path d="M110 18.4857V18.9273H99.6875V3.47287H109.79V3.91442H101.549V10.8689H108.116V11.3105H101.549V18.4857H110Z" fill="#333333"/>
<path d="M54.7767 5.73111C54.1616 5.73111 53.6387 5.25643 53.6387 4.60199C53.6387 3.94754 54.1616 3.47287 54.7767 3.47287C55.4586 3.47287 55.9147 3.9917 55.9147 4.60199C55.9147 5.21228 55.4602 5.73111 54.7767 5.73111Z" fill="#333333"/>
</g>
<defs>
<clipPath id="clip0_788_838">
<rect width="110" height="25.8656" fill="white" transform="translate(0 3.47287)"/>
</clipPath>
</defs>
</svg>
