<svg width="110" height="16" viewBox="0 0 110 16" fill="none" xmlns="http://www.w3.org/2000/svg">
<path d="M13.2622 7.7272C13.2622 12.1207 9.91489 15.4544 5.43904 15.4544H0V0H5.43904C9.91489 0 13.2622 3.33374 13.2622 7.7272ZM11.3168 7.7272C11.3168 3.33374 8.86904 0.441554 5.16725 0.441554H1.86123V15.0129H5.16566C8.86745 15.0129 11.3152 12.1207 11.3152 7.7272H11.3168Z" fill="#333333"/>
<path d="M25.1072 15.0129V15.4544H14.7949V0H24.899V0.441554H16.6577V7.39604H23.2253V7.83759H16.6577V15.0129H25.1088H25.1072Z" fill="#333333"/>
<path d="M36.2631 10.8843H28.9422L27.038 15.4544H26.4531L32.8744 0H33.6898L40.0905 15.4544H38.145L36.2615 10.8843H36.2631ZM36.074 10.4428L32.6011 2.03115L29.1075 10.4428H36.0724H36.074Z" fill="#333333"/>
<path d="M53.4821 15.4544H51.3491C50.8675 15.1012 50.5131 14.6375 50.2619 14.1739L48.0447 10.0674C47.7522 9.55965 47.3119 9.09602 46.7684 8.83109H43.2128V15.4544H41.3516V0H47.1037C50.1364 0 52.4172 1.87661 52.4172 4.39347C52.4172 6.68955 50.5973 8.43369 48.024 8.76486C49.0285 9.07395 49.8439 9.62589 50.2619 10.3986L52.1438 13.7765C52.4999 14.4609 53.0434 15.1232 53.4821 15.4544ZM43.2112 8.38954H46.7461C48.984 8.38954 50.4701 6.82202 50.4701 4.41554C50.4701 2.00907 48.9856 0.441554 46.7461 0.441554H43.2112V8.38954Z" fill="#333333"/>
<path d="M72.8268 0V15.4544H72.1148L61.2796 1.5896V15.4544H60.7773V0H62.3461L72.3246 12.8051V0H72.8268Z" fill="#333333"/>
<path d="M84.0248 10.8843H76.7039L74.7998 15.4544H74.2148L80.6362 0H81.4515L87.8522 15.4544H85.9067L84.0232 10.8843H84.0248ZM83.8373 10.4428L80.3644 2.03115L76.8708 10.4428H83.8357H83.8373Z" fill="#333333"/>
<path d="M98.0434 0.441554H93.1273V15.4544H91.266V0.441554H86.3086V0H98.0434V0.441554Z" fill="#333333"/>
<path d="M110 15.0129V15.4544H99.6875V0H109.79V0.441554H101.549V7.39604H108.116V7.83759H101.549V15.0129H110Z" fill="#333333"/>
<path d="M54.7767 2.25824C54.1616 2.25824 53.6387 1.78356 53.6387 1.12912C53.6387 0.474671 54.1616 0 54.7767 0C55.4586 0 55.9147 0.518827 55.9147 1.12912C55.9147 1.73941 55.4602 2.25824 54.7767 2.25824Z" fill="#333333"/>
</svg>
