<svg width="24" height="24" viewBox="0 0 24 24" fill="none" xmlns="http://www.w3.org/2000/svg">
<rect width="24" height="24" rx="12" fill="white"/>
<g clip-path="url(#clip0_315_1506)">
<path d="M16.8926 11.5524C15.2367 10.3941 13.1178 10.8654 12.0056 12.6096C11.0758 14.0648 9.6735 14.247 9.12986 14.247C7.36063 14.247 6.14849 12.964 5.78926 11.6355C5.78542 11.6217 5.7835 11.6118 5.77966 11.5979C5.77581 11.584 5.77197 11.5682 5.76813 11.5524C5.6279 10.998 5.5914 10.7327 5.5914 10.1447C5.5914 6.96897 8.75335 3.43292 13.3061 3.43292C17.8588 3.43292 20.6366 7.09172 21.3243 9.12505C21.3128 9.08941 21.3013 9.05377 21.2897 9.01616C19.9662 5.04057 16.3067 2.18164 11.9998 2.18164C6.57879 2.18164 2.18164 6.71159 2.18164 12.3008C2.18164 17.296 5.67784 21.5725 10.5264 21.5725C14.3934 21.5725 16.9925 19.3372 18.1854 16.2585C18.8405 14.5737 18.3756 12.5938 16.8907 11.5544" fill="#003964"/>
<path d="M21.3852 9.32271C20.8127 7.33888 18.1234 3.43457 13.3055 3.43457C8.75277 3.43457 5.59082 6.97062 5.59082 10.1463C5.59082 10.7363 5.6254 10.9997 5.76755 11.554C5.708 11.3125 5.67727 11.069 5.67727 10.8314C5.67727 7.52498 8.89108 5.23229 12.1933 5.23229C16.6653 5.23229 20.2883 8.96831 20.2883 13.5755C20.2883 17.1887 18.2713 20.315 15.3418 21.8157C19.1204 20.408 21.8174 16.6799 21.8174 12.3004C21.8174 11.265 21.683 10.3503 21.3852 9.32271Z" fill="#ED193A"/>
</g>
<defs>
<clipPath id="clip0_315_1506">
<rect width="19.6364" height="19.6364" fill="white" transform="translate(2.18164 2.18213)"/>
</clipPath>
</defs>
</svg>
