<svg width="63" height="19" viewBox="0 0 63 19" fill="none" xmlns="http://www.w3.org/2000/svg">
<path d="M15.5986 10.0308V11.4173H9.61916V15.447H17.6351V16.8552H0V15.447H7.9293V11.4173H2.2748V1.58153H15.382V2.98974H4.00798V5.74116H14.9704V7.12771H4.00798V10.0308H15.5986ZM51.8282 0.714937C54.7096 0.72577 56.8003 2.48062 56.8111 4.9829C56.8003 7.49601 54.7096 9.22919 51.8282 9.22919C48.9143 9.22919 46.8128 7.49601 46.8236 4.9829C46.8128 2.48062 48.9143 0.72577 51.8282 0.714937ZM48.4918 4.9829C48.4701 6.67275 49.8892 7.84265 51.8282 7.84265C53.7347 7.84265 55.1646 6.67275 55.1646 4.9829C55.1646 3.31471 53.7347 2.13398 51.8282 2.14481C49.8892 2.13398 48.4701 3.31471 48.4918 4.9829ZM49.7484 12.1973V10.8324H62.2706V15.4686H51.4599V17.6351H62.9639V19H49.7917V14.1904H60.5808V12.1973H49.7484ZM60.5808 9.9008V0H62.2706V9.9008H60.5808Z" fill="#333333"/>
</svg>
