<svg width="120" height="32" viewBox="0 0 120 32" fill="none" xmlns="http://www.w3.org/2000/svg">
<g clip-path="url(#clip0_315_1650)">
<path d="M11.6346 21.8173H9.16602V21.0739H11.6346C17.9113 21.0739 23.0168 15.9684 23.0168 9.69178C23.0168 6.22033 21.4599 2.98031 18.7528 0.813283L19.2157 0.231201C22.1051 2.5455 23.7601 5.99591 23.7601 9.69178C23.7601 16.3752 18.325 21.8173 11.6346 21.8173Z" fill="#3E3A39"/>
<path d="M12.8903 31.7408C10.3095 29.9454 8.7666 26.9999 8.7666 23.8581C8.7666 18.5633 13.0726 14.2573 18.3674 14.2573H32.674V15.0006H18.3674C13.4864 15.0006 9.50998 18.977 9.50998 23.8581C9.50998 26.7545 10.9336 29.4755 13.311 31.1306L12.8903 31.7408Z" fill="#3E3A39"/>
<path d="M33.1506 31.9021H0V0.0979614H33.1506V31.9021ZM0.743381 31.1587H32.4072V0.841343H0.743381V31.1657V31.1587Z" fill="#3E3A39"/>
<path d="M5.82067 21.67H0.392578V20.9337H5.07728V0.694061H5.82067V21.67Z" fill="#3E3A39"/>
<path d="M32.1094 0.44782L14.0918 31.0845L14.7326 31.4613L32.7501 0.824667L32.1094 0.44782Z" fill="#3E3A39"/>
<path d="M42.5342 5.58215H49.5612V6.59202H43.7895V14.657H45.4656C47.6817 14.657 49.7857 14.4957 51.7353 14.103V15.1129C49.8488 15.5056 47.6817 15.6809 45.4656 15.6809H42.5342V5.58215ZM52.64 4.68448H53.8953V19.1734H52.64V4.68448Z" fill="#3E3A39"/>
<path d="M68.6859 10.323H66.0139C65.8036 12.9318 63.9942 14.4606 62.0235 14.4606C59.9196 14.4606 57.998 12.7354 57.998 9.81802C57.998 6.9006 59.9196 5.17539 62.0235 5.17539C63.9802 5.17539 65.7895 6.67618 66.0139 9.24996H68.6859V4.68448H69.9412V19.1734H68.6859V10.323ZM64.7797 9.81802C64.7797 7.56683 63.5594 6.21332 62.0235 6.21332C60.4877 6.21332 59.2674 7.56683 59.2674 9.81802C59.2674 12.0692 60.4877 13.4157 62.0235 13.4157C63.5594 13.4157 64.7797 12.0622 64.7797 9.81802Z" fill="#3E3A39"/>
<path d="M73.3984 16.1438H87.6559V17.1536H73.3984V16.1438ZM74.3242 12.6863C76.393 11.5292 78.2164 10.0985 79.3104 8.72398C79.6541 8.28216 79.8644 7.86138 79.8644 7.29332V5.17538H81.1689V7.29332C81.1689 7.86138 81.3793 8.28917 81.7229 8.72398C82.8169 10.0915 84.6403 11.5292 86.7092 12.6863L86.0429 13.4999C84.1985 12.504 81.772 10.6666 80.5167 9.20086C79.2613 10.6666 76.8348 12.511 74.9904 13.4999L74.3242 12.6863Z" fill="#3E3A39"/>
<path d="M89.8086 15.73C91.3725 14.6079 92.7751 12.9949 93.5255 11.5081C93.771 11.0172 93.8832 10.351 93.8832 9.76891V7.56682H90.3626V6.55694H93.8832V4.52316H95.1876V6.55694H98.7222V7.56682H95.1876V9.78294C95.1876 10.3229 95.2998 10.905 95.5312 11.3328C96.3167 12.8336 97.6842 14.3624 99.199 15.5827L98.4627 16.3471C96.9829 15.1058 95.5312 13.6401 94.5845 12.2375C93.785 13.577 92.1369 15.3513 90.6081 16.4874L89.8086 15.723V15.73ZM100.791 4.68446H102.046V19.1734H100.791V4.68446Z" fill="#3E3A39"/>
<path d="M105.658 15.2461H108.884V10.2247H110.154V15.2461C111.865 15.211 114.305 15.0988 115.694 14.9165V15.9123C114.081 16.1227 110.981 16.256 109.34 16.256H105.658V15.2461ZM106.493 5.58212H114.432C114.333 8.36629 114.025 11.0383 113.632 13.1562H112.44C112.797 11.1364 113.092 8.42941 113.141 6.59199H106.493V5.58212ZM116.43 4.68445H117.686V10.5824H120V11.6624H117.686V19.1734H116.43V4.68445Z" fill="#3E3A39"/>
<path d="M44.0275 27.0771C43.8171 27.3366 43.5506 27.4558 43.1789 27.4558H42.127V24.4612H43.1789C43.5506 24.4612 43.8171 24.5804 44.0275 24.8399C44.2449 25.1064 44.2519 25.4781 44.2519 25.962C44.2519 26.4459 44.2449 26.8106 44.0275 27.0771ZM43.6418 25.0713C43.5155 24.9241 43.3402 24.861 43.1298 24.861H42.5828V27.049H43.1298C43.3472 27.049 43.5155 26.9929 43.6418 26.8456C43.789 26.6843 43.8031 26.4038 43.8031 25.955C43.8031 25.5062 43.789 25.2326 43.6418 25.0643V25.0713Z" fill="#3E3A39"/>
<path d="M46.7061 27.4558V24.4612H48.6206V24.868H47.1619V25.7446H48.4032V26.1514H47.1619V27.049H48.6206V27.4558H46.7061Z" fill="#3E3A39"/>
<path d="M52.9341 27.4558L52.7307 26.8527H51.5525L51.3491 27.4558H50.8652L51.9593 24.4612H52.3239L53.425 27.4558H52.9411H52.9341ZM52.1486 25.1345L51.6787 26.4599H52.5975L52.1416 25.1345H52.1486Z" fill="#3E3A39"/>
<path d="M57.1697 27.4558L56.5386 26.1934H55.9705V27.4558H55.5146V24.4612H56.6718C57.2399 24.4612 57.6045 24.8259 57.6045 25.3378C57.6045 25.7656 57.345 26.0391 57.0084 26.1303L57.6957 27.4558H57.1627H57.1697ZM56.6437 24.868H55.9705V25.8077H56.6437C56.9453 25.8077 57.1487 25.6394 57.1487 25.3449C57.1487 25.0503 56.9453 24.875 56.6437 24.875V24.868Z" fill="#3E3A39"/>
<path d="M61.0765 27.4768C60.6277 27.4768 60.3051 27.3716 60.0176 27.0841L60.3121 26.7825C60.5295 26.9999 60.782 27.0701 61.0836 27.0701C61.4763 27.0701 61.7007 26.9018 61.7007 26.6072C61.7007 26.474 61.6656 26.3688 61.5815 26.2986C61.5043 26.2285 61.4062 26.1934 61.2519 26.1724L60.9012 26.1233C60.6558 26.0882 60.4664 26.0111 60.3402 25.8849C60.1929 25.7516 60.1158 25.5553 60.1158 25.3098C60.1158 24.7908 60.4945 24.4332 61.1186 24.4332C61.5184 24.4332 61.7919 24.5384 62.0514 24.7768L61.7638 25.0643C61.5815 24.889 61.3571 24.8329 61.1046 24.8329C60.7539 24.8329 60.5646 25.0293 60.5646 25.3028C60.5646 25.415 60.5926 25.5132 60.6768 25.5833C60.7539 25.6534 60.8381 25.6955 61.0064 25.7165L61.3641 25.7727C61.6376 25.8147 61.7919 25.8779 61.9181 25.9971C62.0794 26.1443 62.1636 26.3477 62.1636 26.6142C62.1636 27.1682 61.7147 27.4908 61.0836 27.4908L61.0765 27.4768Z" fill="#3E3A39"/>
<path d="M68.2921 27.0771C68.0817 27.3366 67.8152 27.4558 67.4436 27.4558H66.3916V24.4612H67.4436C67.8152 24.4612 68.0817 24.5804 68.2921 24.8399C68.5095 25.1064 68.5165 25.4781 68.5165 25.962C68.5165 26.4459 68.5095 26.8106 68.2921 27.0771ZM67.8994 25.0713C67.7732 24.9241 67.5978 24.861 67.3875 24.861H66.8404V27.049H67.3875C67.6049 27.049 67.7732 26.9929 67.8994 26.8456C68.0467 26.6843 68.0607 26.4038 68.0607 25.955C68.0607 25.5062 68.0467 25.2326 67.8994 25.0643V25.0713Z" fill="#3E3A39"/>
<path d="M70.8379 27.4558V24.4612H72.7524V24.868H71.2937V25.7446H72.535V26.1514H71.2937V27.049H72.7524V27.4558H70.8379Z" fill="#3E3A39"/>
<path d="M76.8482 27.4558L75.4666 25.3519V27.4558H75.0107V24.4612H75.4245L76.8061 26.5651V24.4612H77.2619V27.4558H76.8482Z" fill="#3E3A39"/>
<path d="M80.7053 24.868V27.4558H80.2494V24.868H79.4219V24.4612H81.5258V24.868H80.6982H80.7053Z" fill="#3E3A39"/>
<path d="M85.6216 27.4558L85.4182 26.8527H84.24L84.0366 27.4558H83.5527L84.6538 24.4612H85.0185L86.1195 27.4558H85.6356H85.6216ZM84.8361 25.1345L84.3662 26.4599H85.285L84.8291 25.1345H84.8361Z" fill="#3E3A39"/>
<path d="M88.2158 27.4558V24.4612H88.6717V27.049H90.1164V27.4558H88.2158Z" fill="#3E3A39"/>
<path d="M94.9002 27.4768C94.5705 27.4768 94.3181 27.3716 94.1287 27.1753C93.8342 26.8807 93.8271 26.5792 93.8271 25.955C93.8271 25.3308 93.8412 25.0293 94.1287 24.7347C94.3251 24.5384 94.5705 24.4332 94.9002 24.4332C95.4542 24.4332 95.8609 24.7628 95.9661 25.3519H95.5033C95.4331 25.0433 95.2298 24.8329 94.9002 24.8329C94.7178 24.8329 94.5705 24.903 94.4583 25.0152C94.304 25.1765 94.276 25.3589 94.276 25.948C94.276 26.5371 94.304 26.7194 94.4583 26.8807C94.5635 26.9999 94.7178 27.0631 94.9002 27.0631C95.2298 27.0631 95.4401 26.8527 95.5173 26.5441H95.9731C95.8679 27.1332 95.4542 27.4628 94.9072 27.4628L94.9002 27.4768Z" fill="#3E3A39"/>
<path d="M98.2871 27.4558V24.4612H98.743V27.049H100.188V27.4558H98.2941H98.2871Z" fill="#3E3A39"/>
<path d="M103.351 27.4558V24.4612H103.806V27.4558H103.351Z" fill="#3E3A39"/>
<path d="M108.631 27.4558L107.25 25.3519V27.4558H106.794V24.4612H107.208L108.589 26.5651V24.4612H109.045V27.4558H108.631Z" fill="#3E3A39"/>
<path d="M112.033 27.4558V24.4612H112.489V27.4558H112.033Z" fill="#3E3A39"/>
<path d="M116.605 27.4768C116.276 27.4768 116.023 27.3716 115.834 27.1753C115.539 26.8807 115.532 26.5792 115.532 25.955C115.532 25.3308 115.546 25.0293 115.834 24.7347C116.03 24.5384 116.276 24.4332 116.605 24.4332C117.159 24.4332 117.566 24.7628 117.671 25.3519H117.208C117.138 25.0433 116.935 24.8329 116.605 24.8329C116.423 24.8329 116.276 24.903 116.163 25.0152C116.009 25.1765 115.981 25.3589 115.981 25.948C115.981 26.5371 116.009 26.7194 116.163 26.8807C116.269 26.9999 116.423 27.0631 116.605 27.0631C116.935 27.0631 117.145 26.8527 117.222 26.5441H117.678C117.573 27.1332 117.159 27.4628 116.612 27.4628L116.605 27.4768Z" fill="#3E3A39"/>
</g>
<defs>
<clipPath id="clip0_315_1650">
<rect width="120" height="32" fill="white"/>
</clipPath>
</defs>
</svg>
