<svg width="482" height="69" viewBox="0 0 482 69" fill="none" xmlns="http://www.w3.org/2000/svg">
<path d="M58.1127 34.1827C58.1127 53.618 43.4452 68.3654 23.8329 68.3654H0V0H23.8329C43.4452 0 58.1127 14.7474 58.1127 34.1827ZM49.588 34.1827C49.588 14.7474 38.8625 1.9533 22.6419 1.9533H8.15556V66.4121H22.635C38.8556 66.4121 49.5811 53.618 49.5811 34.1827H49.588Z" fill="#3D3A39"/>
<path d="M110.006 66.4121V68.3654H64.8193V0H109.093V1.9533H72.9819V32.7177H101.76V34.671H72.9819V66.4121H110.013H110.006Z" fill="#3D3A39"/>
<path d="M158.898 48.1487H126.819L118.475 68.3654H115.912L144.049 0H147.622L175.668 68.3654H167.144L158.891 48.1487H158.898ZM158.069 46.1955L142.851 8.98516L127.543 46.1955H158.062H158.069Z" fill="#3D3A39"/>
<path d="M234.352 68.3654H225.006C222.895 66.8027 221.342 64.7518 220.242 62.7008L210.526 44.5351C209.245 42.2889 207.316 40.2379 204.934 39.0659H189.354V68.3654H181.198V0H206.403C219.692 0 229.686 8.30151 229.686 19.4353C229.686 29.5924 221.711 37.308 210.436 38.7729C214.837 40.1402 218.41 42.5819 220.242 46.0001L228.488 60.9428C230.048 63.9704 232.43 66.9004 234.352 68.3654ZM189.347 37.1126H204.836C214.642 37.1126 221.154 30.1784 221.154 19.533C221.154 8.8875 214.649 1.9533 204.836 1.9533H189.347V37.1126Z" fill="#3D3A39"/>
<path d="M319.112 0V68.3654H315.992L268.514 7.03187V68.3654H266.313V0H273.188L316.911 56.6456V0H319.112Z" fill="#3D3A39"/>
<path d="M368.184 48.1487H336.105L327.761 68.3654H325.198L353.335 0H356.908L384.955 68.3654H376.43L368.177 48.1487H368.184ZM367.362 46.1955L352.144 8.98516L336.836 46.1955H367.355H367.362Z" fill="#3D3A39"/>
<path d="M429.598 1.9533H408.057V68.3654H399.901V1.9533H378.179V0H429.598V1.9533Z" fill="#3D3A39"/>
<path d="M482 66.4121V68.3654H436.813V0H481.081V1.9533H444.969V32.7177H473.747V34.671H444.969V66.4121H482Z" fill="#3D3A39"/>
<path d="M240.021 9.98971C237.326 9.98971 235.034 7.88992 235.034 4.99486C235.034 2.09979 237.326 0 240.021 0C243.009 0 245.008 2.29512 245.008 4.99486C245.008 7.69459 243.016 9.98971 240.021 9.98971Z" fill="#3D3A39"/>
</svg>
