<svg width="780" height="594" viewBox="0 0 780 594" fill="none" xmlns="http://www.w3.org/2000/svg">
<g clip-path="url(#clip0_315_2017)">
<rect width="780" height="594" fill="white"/>
<rect x="780" y="50" width="40" height="660" transform="rotate(90 780 50)" fill="#CDCDCD"/>
<rect x="580" y="169" width="40" height="460" transform="rotate(90 580 169)" fill="#CDCDCD"/>
<rect x="780" y="288" width="80" height="780" transform="rotate(90 780 288)" fill="#CDCDCD"/>
<rect x="80" width="40" height="594" fill="#CDCDCD"/>
<path d="M98 433L258 493L540.5 467" stroke="#CDCDCD" stroke-width="40"/>
<rect x="500" width="80" height="594" fill="#7948D3"/>
<rect x="215" y="358" width="189" height="59" rx="10" fill="#333333"/>
<g clip-path="url(#clip1_315_2017)">
<path d="M253.073 394.286H250.193V393.419H253.073C260.396 393.419 266.353 387.463 266.353 380.14C266.353 376.09 264.536 372.31 261.378 369.782L261.918 369.103C265.289 371.803 267.22 375.828 267.22 380.14C267.22 387.937 260.879 394.286 253.073 394.286Z" fill="white"/>
<path d="M254.539 405.864C251.529 403.77 249.729 400.333 249.729 396.668C249.729 390.49 254.752 385.467 260.929 385.467H277.621V386.334H260.929C255.235 386.334 250.596 390.973 250.596 396.668C250.596 400.047 252.257 403.221 255.03 405.152L254.539 405.864Z" fill="white"/>
<path d="M278.176 406.052H239.5V368.947H278.176V406.052ZM240.367 405.185H277.308V369.815H240.367V405.193V405.185Z" fill="white"/>
<path d="M246.29 394.115H239.957V393.255H245.423V369.643H246.29V394.115Z" fill="white"/>
<path d="M276.962 369.355L255.941 405.098L256.689 405.537L277.709 369.795L276.962 369.355Z" fill="white"/>
<path d="M289.123 375.346H297.321V376.524H290.588V385.933H292.543C295.129 385.933 297.583 385.745 299.858 385.287V386.465C297.657 386.923 295.129 387.128 292.543 387.128H289.123V375.346ZM300.913 374.299H302.378V391.203H300.913V374.299Z" fill="white"/>
<path d="M319.633 380.877H316.516C316.27 383.921 314.16 385.704 311.86 385.704C309.406 385.704 307.164 383.692 307.164 380.288C307.164 376.884 309.406 374.872 311.86 374.872C314.143 374.872 316.254 376.622 316.516 379.625H319.633V374.299H321.098V391.203H319.633V380.877ZM315.076 380.288C315.076 377.662 313.652 376.082 311.86 376.082C310.069 376.082 308.645 377.662 308.645 380.288C308.645 382.914 310.069 384.485 311.86 384.485C313.652 384.485 315.076 382.906 315.076 380.288Z" fill="white"/>
<path d="M325.131 387.669H341.765V388.847H325.131V387.669ZM326.211 383.635C328.625 382.285 330.752 380.616 332.028 379.012C332.429 378.497 332.675 378.006 332.675 377.343V374.872H334.196V377.343C334.196 378.006 334.442 378.505 334.843 379.012C336.119 380.608 338.246 382.285 340.66 383.635L339.883 384.584C337.731 383.422 334.9 381.278 333.435 379.568C331.971 381.278 329.14 383.43 326.988 384.584L326.211 383.635Z" fill="white"/>
<path d="M344.277 387.185C346.102 385.876 347.738 383.994 348.614 382.259C348.9 381.687 349.031 380.909 349.031 380.23V377.661H344.924V376.483H349.031V374.11H350.553V376.483H354.677V377.661H350.553V380.247C350.553 380.877 350.684 381.556 350.954 382.055C351.87 383.806 353.466 385.59 355.233 387.013L354.374 387.905C352.647 386.457 350.954 384.747 349.849 383.11C348.916 384.673 346.994 386.743 345.21 388.069L344.277 387.177V387.185ZM357.09 374.299H358.555V391.202H357.09V374.299Z" fill="white"/>
<path d="M362.768 386.621H366.531V380.763H368.012V386.621C370.009 386.58 372.856 386.449 374.476 386.236V387.398C372.594 387.643 368.978 387.799 367.063 387.799H362.768V386.621ZM363.741 375.346H373.003C372.889 378.594 372.529 381.712 372.07 384.183H370.679C371.097 381.826 371.44 378.668 371.498 376.524H363.741V375.346ZM375.335 374.299H376.799V381.18H379.5V382.44H376.799V391.203H375.335V374.299Z" fill="white"/>
<path d="M290.864 400.424C290.618 400.727 290.307 400.866 289.874 400.866H288.646V397.372H289.874C290.307 397.372 290.618 397.511 290.864 397.814C291.117 398.125 291.126 398.558 291.126 399.123C291.126 399.688 291.117 400.113 290.864 400.424ZM290.414 398.084C290.266 397.912 290.062 397.838 289.816 397.838H289.178V400.391H289.816C290.07 400.391 290.266 400.326 290.414 400.154C290.586 399.966 290.602 399.638 290.602 399.115C290.602 398.591 290.586 398.272 290.414 398.076V398.084Z" fill="white"/>
<path d="M293.988 400.866V397.372H296.222V397.847H294.52V398.869H295.968V399.344H294.52V400.391H296.222V400.866H293.988Z" fill="white"/>
<path d="M301.255 400.866L301.018 400.162H299.644L299.406 400.866H298.842L300.118 397.372H300.544L301.828 400.866H301.264H301.255ZM300.339 398.158L299.791 399.704H300.863L300.331 398.158H300.339Z" fill="white"/>
<path d="M306.197 400.866L305.46 399.393H304.797V400.866H304.266V397.372H305.616C306.278 397.372 306.704 397.798 306.704 398.395C306.704 398.894 306.401 399.213 306.008 399.319L306.81 400.866H306.188H306.197ZM305.583 397.847H304.797V398.943H305.583C305.935 398.943 306.172 398.747 306.172 398.403C306.172 398.059 305.935 397.855 305.583 397.855V397.847Z" fill="white"/>
<path d="M310.755 400.89C310.231 400.89 309.855 400.767 309.52 400.432L309.863 400.08C310.117 400.333 310.411 400.415 310.763 400.415C311.221 400.415 311.483 400.219 311.483 399.875C311.483 399.72 311.442 399.597 311.344 399.515C311.254 399.433 311.14 399.393 310.96 399.368L310.55 399.311C310.264 399.27 310.043 399.18 309.896 399.033C309.724 398.877 309.634 398.648 309.634 398.362C309.634 397.756 310.076 397.339 310.804 397.339C311.27 397.339 311.59 397.462 311.892 397.74L311.557 398.075C311.344 397.871 311.082 397.805 310.788 397.805C310.379 397.805 310.158 398.034 310.158 398.353C310.158 398.484 310.19 398.599 310.289 398.681C310.379 398.763 310.477 398.812 310.673 398.836L311.09 398.902C311.41 398.951 311.59 399.024 311.737 399.163C311.925 399.335 312.023 399.573 312.023 399.883C312.023 400.53 311.5 400.906 310.763 400.906L310.755 400.89Z" fill="white"/>
<path d="M319.172 400.424C318.927 400.727 318.616 400.866 318.182 400.866H316.955V397.372H318.182C318.616 397.372 318.927 397.511 319.172 397.814C319.426 398.125 319.434 398.558 319.434 399.123C319.434 399.688 319.426 400.113 319.172 400.424ZM318.714 398.084C318.567 397.912 318.362 397.838 318.117 397.838H317.479V400.391H318.117C318.371 400.391 318.567 400.326 318.714 400.154C318.886 399.966 318.902 399.638 318.902 399.115C318.902 398.591 318.886 398.272 318.714 398.076V398.084Z" fill="white"/>
<path d="M322.143 400.866V397.372H324.376V397.847H322.674V398.869H324.123V399.344H322.674V400.391H324.376V400.866H322.143Z" fill="white"/>
<path d="M329.153 400.866L327.542 398.411V400.866H327.01V397.372H327.492L329.104 399.827V397.372H329.636V400.866H329.153Z" fill="white"/>
<path d="M333.654 397.847V400.866H333.122V397.847H332.156V397.372H334.611V397.847H333.645H333.654Z" fill="white"/>
<path d="M339.39 400.866L339.153 400.162H337.778L337.541 400.866H336.977L338.261 397.372H338.687L339.971 400.866H339.407H339.39ZM338.474 398.158L337.926 399.704H338.997L338.466 398.158H338.474Z" fill="white"/>
<path d="M342.416 400.866V397.372H342.948V400.391H344.633V400.866H342.416Z" fill="white"/>
<path d="M350.215 400.89C349.83 400.89 349.536 400.767 349.315 400.538C348.971 400.194 348.963 399.843 348.963 399.114C348.963 398.386 348.979 398.034 349.315 397.691C349.544 397.462 349.83 397.339 350.215 397.339C350.861 397.339 351.336 397.723 351.458 398.411H350.918C350.837 398.051 350.599 397.805 350.215 397.805C350.002 397.805 349.83 397.887 349.699 398.018C349.519 398.206 349.487 398.419 349.487 399.106C349.487 399.793 349.519 400.006 349.699 400.194C349.822 400.333 350.002 400.407 350.215 400.407C350.599 400.407 350.845 400.162 350.935 399.802H351.467C351.344 400.489 350.861 400.873 350.223 400.873L350.215 400.89Z" fill="white"/>
<path d="M354.166 400.866V397.372H354.698V400.391H356.383V400.866H354.174H354.166Z" fill="white"/>
<path d="M360.074 400.866V397.372H360.606V400.866H360.074Z" fill="white"/>
<path d="M366.233 400.866L364.622 398.411V400.866H364.09V397.372H364.573L366.184 399.827V397.372H366.716V400.866H366.233Z" fill="white"/>
<path d="M370.203 400.866V397.372H370.735V400.866H370.203Z" fill="white"/>
<path d="M375.537 400.89C375.152 400.89 374.858 400.767 374.637 400.538C374.293 400.194 374.285 399.843 374.285 399.114C374.285 398.386 374.302 398.034 374.637 397.691C374.866 397.462 375.152 397.339 375.537 397.339C376.183 397.339 376.658 397.723 376.781 398.411H376.241C376.159 398.051 375.922 397.805 375.537 397.805C375.324 397.805 375.152 397.887 375.022 398.018C374.842 398.206 374.809 398.419 374.809 399.106C374.809 399.793 374.842 400.006 375.022 400.194C375.144 400.333 375.324 400.407 375.537 400.407C375.922 400.407 376.167 400.162 376.257 399.802H376.789C376.666 400.489 376.183 400.873 375.545 400.873L375.537 400.89Z" fill="white"/>
</g>
<path d="M310 433L300.474 416.5L319.526 416.5L310 433Z" fill="#333333"/>
<path d="M150.262 219.136L148.284 221.093C146.826 222.524 144.934 224.364 142.607 226.613C141.154 228.019 138.847 228.018 137.394 226.613L131.575 220.953C130.844 220.235 130.232 219.629 129.739 219.136C124.071 213.469 124.071 204.28 129.739 198.613C135.406 192.945 144.595 192.945 150.262 198.613C155.929 204.28 155.929 213.469 150.262 219.136ZM144.167 209.332C144.167 207.031 142.302 205.165 140 205.165C137.699 205.165 135.833 207.031 135.833 209.332C135.833 211.634 137.699 213.499 140 213.499C142.302 213.499 144.167 211.634 144.167 209.332Z" fill="#333333"/>
<path d="M103.41 249.715C107.503 249.715 110.103 251.004 110.113 253.217C110.103 255.408 107.503 256.697 103.41 256.697C99.3174 256.697 96.7178 255.408 96.7285 253.217C96.7178 251.004 99.3174 249.715 103.41 249.715ZM94.7949 247.932V246.557H101.992V242.861H103.646V246.557H112.176V247.932H94.7949ZM96.8574 240.004V238.629H109.963V240.24C109.952 241.787 109.952 243.334 109.426 245.311L107.771 245.117C108.287 243.151 108.287 241.733 108.287 240.24V240.004H96.8574ZM98.4043 253.217C98.3936 254.549 100.37 255.365 103.41 255.365C106.461 255.365 108.416 254.549 108.438 253.217C108.416 251.853 106.461 251.015 103.41 251.004C100.37 251.015 98.3936 251.853 98.4043 253.217ZM118.171 238.801C119.782 238.79 121.146 239.402 122.038 240.412H127.044V237.641H128.741V248.963H127.044V246.234H122.038C121.157 247.244 119.782 247.856 118.171 247.846C115.313 247.856 113.197 245.987 113.208 243.334C113.197 240.659 115.313 238.79 118.171 238.801ZM114.819 243.334C114.819 245.106 116.216 246.417 118.171 246.406C120.061 246.417 121.479 245.106 121.479 243.334C121.479 241.519 120.061 240.251 118.171 240.262C116.216 240.251 114.819 241.519 114.819 243.334ZM116.001 253.045C115.99 250.746 118.439 249.414 122.403 249.414C126.356 249.414 128.806 250.746 128.806 253.045C128.806 255.365 126.356 256.697 122.403 256.697C118.439 256.697 115.99 255.365 116.001 253.045ZM117.655 253.045C117.644 254.484 119.471 255.354 122.403 255.344C125.336 255.354 127.162 254.484 127.151 253.045C127.162 251.595 125.336 250.735 122.403 250.725C119.471 250.735 117.644 251.595 117.655 253.045ZM122.844 241.787C123.016 242.26 123.112 242.775 123.112 243.334C123.112 243.871 123.016 244.376 122.854 244.838H127.044V241.787H122.844ZM140.687 240.348C140.677 242.904 144.082 245.074 147.412 245.568L146.789 246.9C143.813 246.396 140.902 244.806 139.742 242.507C138.582 244.806 135.671 246.396 132.738 246.9L132.072 245.568C135.391 245.074 138.786 242.904 138.797 240.348V240.219H132.674V238.844H146.789V240.219H140.687V240.348ZM131.041 249.93V248.533H148.443V249.93H140.537V256.74H138.883V249.93H131.041ZM155.534 243.871C155.545 246.933 157.532 250.059 160.303 251.391L159.315 252.701C157.21 251.67 155.545 249.575 154.75 247.115C153.912 249.779 152.139 251.992 149.969 253.045L149.003 251.734C151.806 250.424 153.89 247.158 153.901 243.871V242.346H149.518V240.971H153.88V238.006H155.577V240.971H159.874V242.346H155.534V243.871ZM162.28 256.74V237.641H163.956V245.482H167.157V246.922H163.956V256.74H162.28ZM173.775 241.271C173.786 243.774 175.655 246.009 178.459 246.922L177.664 248.254C175.461 247.523 173.796 246.009 172.969 244.086C172.153 246.277 170.391 247.985 168.103 248.812L167.244 247.459C170.101 246.492 172.099 244.032 172.121 241.271V240.455H167.759V239.059H178.072V240.455H173.775V241.271ZM169.779 253.174C169.79 250.972 172.185 249.693 176.117 249.693C180.038 249.693 182.412 250.972 182.412 253.174C182.412 255.408 180.038 256.697 176.117 256.697C172.185 256.697 169.79 255.408 169.779 253.174ZM171.476 253.174C171.455 254.549 173.238 255.354 176.117 255.344C179.006 255.354 180.768 254.549 180.779 253.174C180.768 251.842 179.006 251.047 176.117 251.047C173.238 251.047 171.455 251.842 171.476 253.174ZM180.564 249.178V237.641H182.24V242.518H185.119V243.936H182.24V249.178H180.564Z" fill="#333333"/>
<path d="M254.762 448.136L252.784 450.093C251.326 451.524 249.434 453.364 247.107 455.613C245.654 457.019 243.347 457.018 241.894 455.613L236.075 449.953C235.344 449.235 234.732 448.629 234.239 448.136C228.571 442.469 228.571 433.28 234.239 427.613C239.906 421.945 249.095 421.945 254.762 427.613C260.429 433.28 260.429 442.469 254.762 448.136ZM248.667 438.332C248.667 436.031 246.802 434.165 244.5 434.165C242.199 434.165 240.333 436.031 240.333 438.332C240.333 440.634 242.199 442.499 244.5 442.499C246.802 442.499 248.667 440.634 248.667 438.332Z" fill="#333333"/>
<path d="M203.564 466.641V485.74H201.867V466.641H203.564ZM188.01 480.777C193.177 478.328 195.819 474.665 196.195 470.1H188.891V468.725H197.914C197.893 474.214 195.336 479.08 188.934 482.152L188.01 480.777ZM222.257 466.641V485.74H220.645V466.641H222.257ZM205.886 480.391C210.043 477.931 212.127 474.482 212.46 470.486H206.745V469.09H214.136C214.136 470.067 214.05 471.034 213.878 471.969H216.778V467.156H218.39V484.773H216.778V478.156H213.233V476.76H216.778V473.365H213.545C212.621 476.599 210.526 479.456 206.917 481.615L205.886 480.391ZM230.808 469.412C230.787 472.194 232.806 474.676 235.642 475.664L234.783 476.996C232.57 476.18 230.819 474.536 229.96 472.42C229.122 474.687 227.36 476.47 225.115 477.34L224.234 476.008C227.092 474.944 229.09 472.302 229.09 469.412V467.586H230.808V469.412ZM226.963 480.498V479.102H239.81V485.74H238.135V480.498H226.963ZM238.135 478.156V466.641H239.81V478.156H238.135ZM256.462 469.348C256.452 471.904 259.857 474.074 263.187 474.568L262.564 475.9C259.588 475.396 256.677 473.806 255.517 471.507C254.357 473.806 251.446 475.396 248.513 475.9L247.847 474.568C251.167 474.074 254.561 471.904 254.572 469.348V469.219H248.449V467.844H262.564V469.219H256.462V469.348ZM246.816 478.93V477.533H264.218V478.93H256.312V485.74H254.658V478.93H246.816ZM271.309 472.871C271.32 475.933 273.307 479.059 276.079 480.391L275.09 481.701C272.985 480.67 271.32 478.575 270.525 476.115C269.687 478.779 267.914 480.992 265.745 482.045L264.778 480.734C267.581 479.424 269.665 476.158 269.676 472.871V471.346H265.293V469.971H269.655V467.006H271.352V469.971H275.649V471.346H271.309V472.871ZM278.055 485.74V466.641H279.731V474.482H282.932V475.922H279.731V485.74H278.055ZM289.55 470.271C289.561 472.774 291.43 475.009 294.234 475.922L293.439 477.254C291.237 476.523 289.572 475.009 288.744 473.086C287.928 475.277 286.166 476.985 283.878 477.812L283.019 476.459C285.876 475.492 287.874 473.032 287.896 470.271V469.455H283.534V468.059H293.847V469.455H289.55V470.271ZM285.554 482.174C285.565 479.972 287.96 478.693 291.892 478.693C295.813 478.693 298.187 479.972 298.187 482.174C298.187 484.408 295.813 485.697 291.892 485.697C287.96 485.697 285.565 484.408 285.554 482.174ZM287.251 482.174C287.23 483.549 289.013 484.354 291.892 484.344C294.782 484.354 296.543 483.549 296.554 482.174C296.543 480.842 294.782 480.047 291.892 480.047C289.013 480.047 287.23 480.842 287.251 482.174ZM296.339 478.178V466.641H298.015V471.518H300.894V472.936H298.015V478.178H296.339Z" fill="#333333"/>
<path d="M666.263 168.641V179.963H664.566V176.955H660.097V178.588H651.331V170.102H660.097V171.756H664.566V168.641H666.263ZM653.007 177.213H658.443V171.477H653.007V177.213ZM653.523 184.131C653.512 181.832 655.95 180.511 659.925 180.521C663.889 180.511 666.327 181.832 666.327 184.131C666.327 186.408 663.889 187.697 659.925 187.697C655.95 187.697 653.512 186.408 653.523 184.131ZM655.198 184.131C655.188 185.517 656.992 186.365 659.925 186.365C662.847 186.365 664.652 185.517 664.652 184.131C664.652 182.691 662.847 181.854 659.925 181.832C656.992 181.854 655.188 182.691 655.198 184.131ZM660.097 175.537H664.566V173.152H660.097V175.537ZM673.977 169.35C676.834 169.36 678.907 171.101 678.918 173.582C678.907 176.074 676.834 177.793 673.977 177.793C671.087 177.793 669.003 176.074 669.014 173.582C669.003 171.101 671.087 169.36 673.977 169.35ZM670.668 173.582C670.647 175.258 672.054 176.418 673.977 176.418C675.867 176.418 677.285 175.258 677.285 173.582C677.285 171.928 675.867 170.757 673.977 170.768C672.054 170.757 670.647 171.928 670.668 173.582ZM671.914 180.736V179.383H684.332V183.98H673.611V186.129H685.02V187.482H671.957V182.713H682.656V180.736H671.914ZM682.656 178.459V168.641H684.332V178.459H682.656ZM697.525 170.445V186H695.57V172.465H695.484L691.703 174.979V173.023L695.57 170.445H697.525ZM717.528 178.094V179.447H700.104V178.094H707.989V175.859H702.317V169.543H715.358V170.896H703.971V174.484H715.487V175.859H709.622V178.094H717.528ZM702.21 184.281C702.199 182.101 704.68 180.854 708.805 180.844C712.898 180.854 715.358 182.101 715.38 184.281C715.358 186.483 712.898 187.719 708.805 187.74C704.68 187.719 702.199 186.483 702.21 184.281ZM703.928 184.281C703.907 185.624 705.744 186.397 708.805 186.387C711.835 186.397 713.672 185.624 713.682 184.281C713.672 182.96 711.835 182.176 708.805 182.176C705.744 182.176 703.907 182.96 703.928 184.281ZM657.713 204.348C657.702 206.904 661.107 209.074 664.437 209.568L663.814 210.9C660.839 210.396 657.927 208.806 656.767 206.507C655.607 208.806 652.696 210.396 649.763 210.9L649.097 209.568C652.417 209.074 655.811 206.904 655.822 204.348V204.219H649.699V202.844H663.814V204.219H657.713V204.348ZM648.066 213.93V212.533H665.468V213.93H657.562V220.74H655.908V213.93H648.066ZM676.169 203.316V212.168H667.21V203.316H676.169ZM668.864 210.814H674.514V204.713H668.864V210.814ZM669.637 220.096V214.059H671.313V218.699H682.571V220.096H669.637ZM680.294 215.391V201.662H681.969V215.391H680.294ZM700.554 201.641V215.971H698.943V201.641H700.554ZM684.398 211.91C686.858 210.75 688.362 208.107 688.351 205.852V202.994H689.984V205.852C689.984 208.086 691.38 210.385 693.808 211.416L692.863 212.748C691.101 211.942 689.844 210.471 689.189 208.741C688.512 210.643 687.169 212.329 685.343 213.221L684.398 211.91ZM688.029 220.332V214.209H689.705V218.914H701.134V220.332H688.029ZM692.154 207.893V206.496H695.162V202.027H696.794V215.434H695.162V207.893H692.154ZM718.301 201.641V220.783H716.625V210.256H712.586V208.859H716.625V201.641H718.301ZM703.348 216.164V203.402H712.264V204.799H705.045V208.773H711.426V210.148H705.045V214.768C708.547 214.757 710.803 214.66 713.424 214.188L713.618 215.584C710.835 216.035 708.504 216.164 704.809 216.164H703.348Z" fill="#333333"/>
<rect x="522" y="263" width="36" height="36" rx="18" fill="white"/>
<rect x="522" y="263" width="36" height="36" rx="18" stroke="#551FBA" stroke-width="4"/>
<path d="M539.531 289.215C536.728 289.215 534.601 287.485 534.482 285.09H536.352C536.491 286.476 537.845 287.507 539.531 287.518C541.551 287.507 543.012 286.035 543.012 284.08C543.012 282.061 541.497 280.567 539.402 280.557C538.092 280.535 537.071 280.943 536.502 281.953H534.633L535.729 273.445H544.15V275.164H537.34L536.76 279.719H536.91C537.608 279.182 538.65 278.816 539.746 278.816C542.711 278.816 544.892 281.008 544.902 284.037C544.892 287.045 542.636 289.215 539.531 289.215Z" fill="#551FBA"/>
<path d="M528.607 307.641V318.963H526.91V315.955H522.441V317.588H513.676V309.102H522.441V310.756H526.91V307.641H528.607ZM515.352 316.213H520.787V310.477H515.352V316.213ZM515.867 323.131C515.856 320.832 518.295 319.511 522.27 319.521C526.233 319.511 528.672 320.832 528.672 323.131C528.672 325.408 526.233 326.697 522.27 326.697C518.295 326.697 515.856 325.408 515.867 323.131ZM517.543 323.131C517.532 324.517 519.337 325.365 522.27 325.365C525.191 325.365 526.996 324.517 526.996 323.131C526.996 321.691 525.191 320.854 522.27 320.832C519.337 320.854 517.532 321.691 517.543 323.131ZM522.441 314.537H526.91V312.152H522.441V314.537ZM536.321 308.35C539.179 308.36 541.252 310.101 541.263 312.582C541.252 315.074 539.179 316.793 536.321 316.793C533.432 316.793 531.348 315.074 531.358 312.582C531.348 310.101 533.432 308.36 536.321 308.35ZM533.013 312.582C532.991 314.258 534.398 315.418 536.321 315.418C538.212 315.418 539.63 314.258 539.63 312.582C539.63 310.928 538.212 309.757 536.321 309.768C534.398 309.757 532.991 310.928 533.013 312.582ZM534.259 319.736V318.383H546.677V322.98H535.956V325.129H547.364V326.482H534.302V321.713H545.001V319.736H534.259ZM545.001 317.459V307.641H546.677V317.459H545.001ZM564.875 319.951V326.74H563.178V321.305H552.027V319.951H564.875ZM549.342 313.291C549.331 310.627 551.447 308.726 554.304 308.736C555.959 308.726 557.366 309.381 558.247 310.455H563.178V307.641H564.875V318.898H563.178V316.148H558.258C557.377 317.233 555.969 317.878 554.304 317.867C551.447 317.889 549.331 316.009 549.342 313.291ZM550.953 313.291C550.953 315.149 552.349 316.449 554.304 316.449C556.184 316.449 557.613 315.149 557.613 313.291C557.613 311.497 556.184 310.176 554.304 310.176C552.349 310.176 550.953 311.497 550.953 313.291ZM559.02 314.752H563.178V311.852H559.01C559.16 312.303 559.246 312.775 559.246 313.291C559.246 313.807 559.16 314.301 559.02 314.752Z" fill="white"/>
<g clip-path="url(#clip2_315_2017)">
<rect x="462" y="131" width="32" height="32" rx="16" fill="#FDEC74"/>
<path d="M479.961 139.445V155H478.006V141.465H477.92L474.139 143.979V142.023L478.006 139.445H479.961Z" fill="#333333"/>
</g>
<rect x="463" y="132" width="30" height="30" rx="15" stroke="#333333" stroke-width="2"/>
<g clip-path="url(#clip3_315_2017)">
<rect x="586" y="250" width="32" height="32" rx="16" fill="#FDEC74"/>
<path d="M596.074 270.82V269.23L603.078 258.445H605.463V269.123H607.633V270.82H605.463V274H603.615V270.82H596.074ZM598.158 269.123H603.615V260.895H603.422L598.158 268.994V269.123Z" fill="#333333"/>
</g>
<rect x="587" y="251" width="30" height="30" rx="15" stroke="#333333" stroke-width="2"/>
</g>
<rect x="0.5" y="0.5" width="779" height="593" stroke="#CDCDCD"/>
<defs>
<clipPath id="clip0_315_2017">
<rect width="780" height="594" fill="white"/>
</clipPath>
<clipPath id="clip1_315_2017">
<rect width="140" height="37.3333" fill="white" transform="translate(239.5 368.833)"/>
</clipPath>
<clipPath id="clip2_315_2017">
<rect x="462" y="131" width="32" height="32" rx="16" fill="white"/>
</clipPath>
<clipPath id="clip3_315_2017">
<rect x="586" y="250" width="32" height="32" rx="16" fill="white"/>
</clipPath>
</defs>
</svg>
