<svg width="24" height="24" viewBox="0 0 24 24" fill="none" xmlns="http://www.w3.org/2000/svg">
<g clip-path="url(#clip0_315_2080)">
<path d="M17.9394 5.56049C18.2079 5.82898 18.2304 6.25035 18.0067 6.54434L17.9396 6.62118L12.8139 11.7487L17.9426 16.8774C18.2355 17.1703 18.2355 17.6452 17.9426 17.938C17.6741 18.2065 17.2527 18.2289 16.9587 18.0052L16.8819 17.938L11.7532 12.8093L6.62873 17.9366C6.33591 18.2296 5.86095 18.2298 5.56807 17.9369C5.29958 17.6684 5.27702 17.2471 5.50075 16.953L5.56785 16.8762L10.6925 11.7487L5.56672 6.62284C5.27382 6.32995 5.27384 5.85507 5.56672 5.56218C5.83521 5.2937 6.25661 5.27132 6.55061 5.49503L6.62738 5.56218L11.7532 10.688L16.8788 5.56073C17.1716 5.26777 17.6465 5.2676 17.9394 5.56049Z" fill="#333333"/>
</g>
<defs>
<clipPath id="clip0_315_2080">
<rect width="24" height="24" fill="white"/>
</clipPath>
</defs>
</svg>
