<svg width="189" height="75" viewBox="0 0 189 75" fill="none" xmlns="http://www.w3.org/2000/svg">
<rect width="189" height="59" rx="10" fill="#333333"/>
<g clip-path="url(#clip0_1215_2153)">
<path d="M38.0734 36.2863H35.1934V35.4191H38.0734C45.3962 35.4191 51.3526 29.4627 51.3526 22.1399C51.3526 18.0899 49.5362 14.3098 46.378 11.7816L46.918 11.1025C50.2889 13.8026 52.2198 17.828 52.2198 22.1399C52.2198 29.9372 45.8789 36.2863 38.0734 36.2863Z" fill="white"/>
<path d="M39.5385 47.8642C36.5276 45.7696 34.7275 42.3333 34.7275 38.6678C34.7275 32.4905 39.7512 27.4668 45.9285 27.4668H62.6195V28.3341H45.9285C40.2339 28.3341 35.5948 32.9732 35.5948 38.6678C35.5948 42.0469 37.2557 45.2215 40.0294 47.1524L39.5385 47.8642Z" fill="white"/>
<path d="M63.1757 48.0521H24.5V10.9473H63.1757V48.0521ZM25.3673 47.1848H62.3084V11.8145H25.3673V47.193V47.1848Z" fill="white"/>
<path d="M31.2908 36.1146H24.958V35.2555H30.4235V11.6426H31.2908V36.1146Z" fill="white"/>
<path d="M61.9609 11.3549L40.9404 47.0977L41.688 47.5373L62.7085 11.7945L61.9609 11.3549Z" fill="white"/>
<path d="M74.123 17.3461H82.3213V18.5243H75.5876V27.9334H77.5431C80.1285 27.9334 82.5831 27.7453 84.8577 27.2871V28.4653C82.6567 28.9235 80.1285 29.128 77.5431 29.128H74.123V17.3461ZM85.9131 16.2988H87.3777V33.2026H85.9131V16.2988Z" fill="white"/>
<path d="M104.633 22.8771H101.516C101.27 25.9207 99.1596 27.7044 96.8605 27.7044C94.4059 27.7044 92.1641 25.6916 92.1641 22.288C92.1641 18.8843 94.4059 16.8716 96.8605 16.8716C99.1432 16.8716 101.254 18.6225 101.516 21.6252H104.633V16.2988H106.098V33.2026H104.633V22.8771ZM100.076 22.288C100.076 19.6616 98.6523 18.0825 96.8605 18.0825C95.0686 18.0825 93.645 19.6616 93.645 22.288C93.645 24.9143 95.0686 26.4853 96.8605 26.4853C98.6523 26.4853 100.076 24.9062 100.076 22.288Z" fill="white"/>
<path d="M110.131 29.6685H126.765V30.8467H110.131V29.6685ZM111.211 25.6349C113.625 24.2848 115.752 22.6157 117.028 21.0121C117.429 20.4966 117.675 20.0057 117.675 19.343V16.8721H119.196V19.343C119.196 20.0057 119.442 20.5048 119.843 21.0121C121.119 22.6076 123.246 24.2848 125.66 25.6349L124.883 26.584C122.731 25.4221 119.9 23.2785 118.435 21.5685C116.971 23.2785 114.14 25.4303 111.988 26.584L111.211 25.6349Z" fill="white"/>
<path d="M129.276 29.185C131.101 27.8759 132.737 25.9941 133.613 24.2595C133.899 23.6868 134.03 22.9095 134.03 22.2304V19.6613H129.923V18.4831H134.03V16.1104H135.552V18.4831H139.676V19.6613H135.552V22.2468C135.552 22.8768 135.683 23.5559 135.953 24.0549C136.869 25.8059 138.465 27.5895 140.232 29.0132L139.373 29.905C137.646 28.4568 135.953 26.7468 134.848 25.1104C133.915 26.6731 131.993 28.7432 130.209 30.0686L129.276 29.1768V29.185ZM142.089 16.2985H143.554V33.2023H142.089V16.2985Z" fill="white"/>
<path d="M147.768 28.6207H151.531V22.7625H153.012V28.6207C155.009 28.5798 157.856 28.4489 159.476 28.2362V29.398C157.594 29.6435 153.978 29.7989 152.063 29.7989H147.768V28.6207ZM148.741 17.3461H158.003C157.889 20.5943 157.529 23.7116 157.07 26.1825H155.679C156.097 23.8262 156.44 20.6679 156.498 18.5243H148.741V17.3461ZM160.335 16.2988H161.799V23.1798H164.5V24.4398H161.799V33.2026H160.335V16.2988Z" fill="white"/>
<path d="M75.8647 42.4239C75.6193 42.7266 75.3084 42.8657 74.8747 42.8657H73.6475V39.3721H74.8747C75.3084 39.3721 75.6193 39.5112 75.8647 39.8139C76.1184 40.1248 76.1266 40.5584 76.1266 41.123C76.1266 41.6875 76.1184 42.113 75.8647 42.4239ZM75.4147 40.0839C75.2675 39.9121 75.0629 39.8384 74.8175 39.8384H74.1793V42.3912H74.8175C75.0711 42.3912 75.2675 42.3257 75.4147 42.1539C75.5866 41.9657 75.6029 41.6384 75.6029 41.1148C75.6029 40.5912 75.5866 40.2721 75.4147 40.0757V40.0839Z" fill="white"/>
<path d="M78.9893 42.8657V39.3721H81.2229V39.8466H79.5211V40.8694H80.9693V41.3439H79.5211V42.3912H81.2229V42.8657H78.9893Z" fill="white"/>
<path d="M86.2555 42.8657L86.0182 42.1621H84.6436L84.4063 42.8657H83.8418L85.1182 39.3721H85.5436L86.8282 42.8657H86.2636H86.2555ZM85.3391 40.1575L84.7909 41.7039H85.8627L85.3309 40.1575H85.3391Z" fill="white"/>
<path d="M91.1975 42.8657L90.4612 41.393H89.7984V42.8657H89.2666V39.3721H90.6166C91.2793 39.3721 91.7048 39.7975 91.7048 40.3948C91.7048 40.8939 91.4021 41.213 91.0093 41.3194L91.8112 42.8657H91.1893H91.1975ZM90.5839 39.8466H89.7984V40.943H90.5839C90.9357 40.943 91.173 40.7466 91.173 40.403C91.173 40.0593 90.9357 39.8548 90.5839 39.8548V39.8466Z" fill="white"/>
<path d="M95.755 42.8898C95.2313 42.8898 94.855 42.7671 94.5195 42.4316L94.8632 42.0798C95.1168 42.3334 95.4114 42.4152 95.7632 42.4152C96.2214 42.4152 96.4832 42.2189 96.4832 41.8752C96.4832 41.7198 96.4423 41.5971 96.3441 41.5152C96.2541 41.4334 96.1395 41.3925 95.9595 41.368L95.5504 41.3107C95.2641 41.2698 95.0432 41.1798 94.8959 41.0325C94.7241 40.8771 94.6341 40.648 94.6341 40.3616C94.6341 39.7561 95.0759 39.3389 95.8041 39.3389C96.2705 39.3389 96.5895 39.4616 96.8923 39.7398L96.5568 40.0752C96.3441 39.8707 96.0823 39.8052 95.7877 39.8052C95.3786 39.8052 95.1577 40.0343 95.1577 40.3534C95.1577 40.4843 95.1904 40.5989 95.2886 40.6807C95.3786 40.7625 95.4768 40.8116 95.6732 40.8361L96.0904 40.9016C96.4095 40.9507 96.5895 41.0243 96.7368 41.1634C96.925 41.3352 97.0232 41.5725 97.0232 41.8834C97.0232 42.5298 96.4995 42.9062 95.7632 42.9062L95.755 42.8898Z" fill="white"/>
<path d="M104.173 42.4239C103.928 42.7266 103.617 42.8657 103.183 42.8657H101.956V39.3721H103.183C103.617 39.3721 103.928 39.5112 104.173 39.8139C104.427 40.1248 104.435 40.5584 104.435 41.123C104.435 41.6875 104.427 42.113 104.173 42.4239ZM103.715 40.0839C103.568 39.9121 103.363 39.8384 103.118 39.8384H102.48V42.3912H103.118C103.372 42.3912 103.568 42.3257 103.715 42.1539C103.887 41.9657 103.903 41.6384 103.903 41.1148C103.903 40.5912 103.887 40.2721 103.715 40.0757V40.0839Z" fill="white"/>
<path d="M107.144 42.8657V39.3721H109.377V39.8466H107.675V40.8694H109.124V41.3439H107.675V42.3912H109.377V42.8657H107.144Z" fill="white"/>
<path d="M114.155 42.8657L112.544 40.4112V42.8657H112.012V39.3721H112.494L114.106 41.8266V39.3721H114.638V42.8657H114.155Z" fill="white"/>
<path d="M118.655 39.8466V42.8657H118.124V39.8466H117.158V39.3721H119.613V39.8466H118.647H118.655Z" fill="white"/>
<path d="M124.391 42.8657L124.154 42.1621H122.779L122.542 42.8657H121.978L123.262 39.3721H123.688L124.972 42.8657H124.408H124.391ZM123.475 40.1575L122.927 41.7039H123.998L123.467 40.1575H123.475Z" fill="white"/>
<path d="M127.418 42.8657V39.3721H127.95V42.3912H129.635V42.8657H127.418Z" fill="white"/>
<path d="M135.217 42.8898C134.832 42.8898 134.538 42.7671 134.317 42.538C133.973 42.1943 133.965 41.8425 133.965 41.1143C133.965 40.3861 133.981 40.0343 134.317 39.6907C134.546 39.4616 134.832 39.3389 135.217 39.3389C135.863 39.3389 136.338 39.7234 136.46 40.4107H135.92C135.838 40.0507 135.601 39.8052 135.217 39.8052C135.004 39.8052 134.832 39.8871 134.701 40.018C134.521 40.2061 134.488 40.4189 134.488 41.1062C134.488 41.7934 134.521 42.0062 134.701 42.1943C134.824 42.3334 135.004 42.4071 135.217 42.4071C135.601 42.4071 135.847 42.1616 135.937 41.8016H136.469C136.346 42.4889 135.863 42.8734 135.225 42.8734L135.217 42.8898Z" fill="white"/>
<path d="M139.168 42.8657V39.3721H139.7V42.3912H141.385V42.8657H139.176H139.168Z" fill="white"/>
<path d="M145.075 42.8657V39.3721H145.607V42.8657H145.075Z" fill="white"/>
<path d="M151.236 42.8657L149.625 40.4112V42.8657H149.093V39.3721H149.576L151.187 41.8266V39.3721H151.719V42.8657H151.236Z" fill="white"/>
<path d="M155.205 42.8657V39.3721H155.737V42.8657H155.205Z" fill="white"/>
<path d="M160.539 42.8898C160.154 42.8898 159.86 42.7671 159.639 42.538C159.295 42.1943 159.287 41.8425 159.287 41.1143C159.287 40.3861 159.303 40.0343 159.639 39.6907C159.868 39.4616 160.154 39.3389 160.539 39.3389C161.185 39.3389 161.66 39.7234 161.783 40.4107H161.243C161.161 40.0507 160.923 39.8052 160.539 39.8052C160.326 39.8052 160.154 39.8871 160.023 40.018C159.843 40.2061 159.811 40.4189 159.811 41.1062C159.811 41.7934 159.843 42.0062 160.023 42.1943C160.146 42.3334 160.326 42.4071 160.539 42.4071C160.923 42.4071 161.169 42.1616 161.259 41.8016H161.791C161.668 42.4889 161.185 42.8734 160.547 42.8734L160.539 42.8898Z" fill="white"/>
</g>
<path d="M95 75L85.4737 58.5L104.526 58.5L95 75Z" fill="#333333"/>
<defs>
<clipPath id="clip0_1215_2153">
<rect width="140" height="37.3333" fill="white" transform="translate(24.5 10.833)"/>
</clipPath>
</defs>
</svg>
