<svg width="150" height="17" viewBox="0 0 150 17" fill="none" xmlns="http://www.w3.org/2000/svg">
<path d="M5.45848 16.0524C2.00252 16.0524 0 13.1456 0.0107662 8.04237C0 2.98225 2.02405 0.0322987 5.45848 0.0322987C8.88214 0.0322987 10.9062 2.98225 10.9062 8.04237C10.9062 13.1456 8.91444 16.0524 5.45848 16.0524ZM1.88409 8.04237C1.89486 12.0797 3.19757 14.3299 5.45848 14.3299C7.70862 14.3299 9.0221 12.0797 9.01133 8.04237C9.0221 4.00504 7.69785 1.7226 5.45848 1.71183C3.2191 1.7226 1.89486 4.00504 1.88409 8.04237ZM17.7974 0.0322987C20.4782 0.0645974 23.4605 1.67953 23.4605 7.41793C23.4605 12.9625 21.1888 16.0524 17.539 16.0524C14.7937 16.0524 12.8665 14.3729 12.4789 11.8967H14.3953C14.7398 13.2963 15.8057 14.3299 17.539 14.3299C20.0799 14.3299 21.6302 12.1335 21.6517 8.34383H21.4364C20.5428 9.63578 19.1109 10.4109 17.4529 10.4109C14.6645 10.4109 12.3497 8.26846 12.3497 5.26469C12.3497 2.3578 14.4814 0 17.7974 0.0322987ZM14.2446 5.24315C14.2338 7.17031 15.698 8.70988 17.7328 8.70988C19.7677 8.70988 21.3503 7.03035 21.3503 5.20009C21.3503 3.41289 19.8538 1.73336 17.7974 1.73336C15.7626 1.73336 14.2231 3.316 14.2446 5.24315ZM31.2354 13.77C30.4818 13.7592 29.8358 13.1348 29.8573 12.3704C29.8358 11.6168 30.4818 10.9923 31.2354 10.9923C31.9998 10.9923 32.6243 11.6168 32.6135 12.3704C32.6243 13.1348 31.9998 13.7592 31.2354 13.77ZM29.8573 3.71435C29.8358 2.96071 30.4818 2.33627 31.2354 2.33627C31.9998 2.33627 32.6243 2.96071 32.6135 3.71435C32.6243 4.47875 31.9998 5.10319 31.2354 5.11396C30.4818 5.10319 29.8358 4.47875 29.8573 3.71435ZM44.6519 16.0524C41.5512 16.0524 39.3226 14.3944 39.2257 11.9182H41.1851C41.2928 13.404 42.7678 14.3299 44.6303 14.3299C46.6867 14.3299 48.1724 13.2209 48.1832 11.5952C48.1724 9.89416 46.8159 8.69911 44.3935 8.68835H43.1231V6.98728H44.3935C46.2883 6.98728 47.6126 5.92143 47.6018 4.31726C47.6126 2.75615 46.4714 1.7226 44.6949 1.71183C43.0262 1.7226 41.5081 2.63773 41.422 4.16653H39.5487C39.6456 1.6903 41.9495 0.0322987 44.7165 0.0322987C47.6879 0.0322987 49.4967 1.98099 49.4751 4.2096C49.4967 5.98602 48.4631 7.27797 46.8266 7.74092V7.84858C48.8615 8.1608 50.0888 9.61424 50.078 11.5952C50.0888 14.1576 47.7633 16.0524 44.6519 16.0524ZM57.0985 16.0524C53.6425 16.0524 51.64 13.1456 51.6508 8.04237C51.64 2.98225 53.6641 0.0322987 57.0985 0.0322987C60.5221 0.0322987 62.5462 2.98225 62.5462 8.04237C62.5462 13.1456 60.5544 16.0524 57.0985 16.0524ZM53.5241 8.04237C53.5349 12.0797 54.8376 14.3299 57.0985 14.3299C59.3486 14.3299 60.6621 12.0797 60.6513 8.04237C60.6621 4.00504 59.3379 1.7226 57.0985 1.71183C54.8591 1.7226 53.5349 4.00504 53.5241 8.04237ZM80.27 7.20261V8.90367H73.4442V7.20261H80.27ZM97.0248 0.247623V15.8371H95.0654V2.27167H94.9792L91.1895 4.79097V2.83152L95.0654 0.247623H97.0248ZM99.911 12.6503V11.0569L106.931 0.247623H109.321V10.9493H111.495V12.6503H109.321V15.8371H107.469V12.6503H99.911ZM102 10.9493H107.469V2.70232H107.275L102 10.8201V10.9493ZM119.163 13.77C118.409 13.7592 117.763 13.1348 117.785 12.3704C117.763 11.6168 118.409 10.9923 119.163 10.9923C119.927 10.9923 120.552 11.6168 120.541 12.3704C120.552 13.1348 119.927 13.7592 119.163 13.77ZM117.785 3.71435C117.763 2.96071 118.409 2.33627 119.163 2.33627C119.927 2.33627 120.552 2.96071 120.541 3.71435C120.552 4.47875 119.927 5.10319 119.163 5.11396C118.409 5.10319 117.763 4.47875 117.785 3.71435ZM132.299 16.0524C128.843 16.0524 126.841 13.1456 126.852 8.04237C126.841 2.98225 128.865 0.0322987 132.299 0.0322987C135.723 0.0322987 137.747 2.98225 137.747 8.04237C137.747 13.1456 135.755 16.0524 132.299 16.0524ZM128.725 8.04237C128.736 12.0797 130.038 14.3299 132.299 14.3299C134.549 14.3299 135.863 12.0797 135.852 8.04237C135.863 4.00504 134.539 1.7226 132.299 1.71183C130.06 1.7226 128.736 4.00504 128.725 8.04237ZM144.552 16.0524C141.096 16.0524 139.094 13.1456 139.104 8.04237C139.094 2.98225 141.118 0.0322987 144.552 0.0322987C147.976 0.0322987 150 2.98225 150 8.04237C150 13.1456 148.008 16.0524 144.552 16.0524ZM140.978 8.04237C140.989 12.0797 142.291 14.3299 144.552 14.3299C146.802 14.3299 148.116 12.0797 148.105 8.04237C148.116 4.00504 146.792 1.7226 144.552 1.71183C142.313 1.7226 140.989 4.00504 140.978 8.04237Z" fill="#333333"/>
</svg>
