<svg width="60" height="60" viewBox="0 0 60 60" fill="none" xmlns="http://www.w3.org/2000/svg">
<rect width="60" height="60" fill="white"/>
<path d="M37.7676 37.5312V41.9727H39.4316V42.7461H37.7676V47.9492H36.8418V37.5312H37.7676ZM29.5527 45.1719C30.4023 45.1719 31.3926 45.1719 32.4238 45.1367V43.9766C31.2109 43.8418 30.4199 43.1328 30.4316 42.1016C30.4199 40.9297 31.416 40.168 32.8926 40.168C34.3457 40.168 35.3535 40.9297 35.3652 42.1016C35.3535 43.1328 34.5508 43.8418 33.3496 43.9883V45.1016C34.3223 45.0547 35.3008 44.9785 36.209 44.8438L36.2676 45.5469C33.9941 45.9336 31.5332 45.957 29.7051 45.957L29.5527 45.1719ZM36.0215 38.8086V39.5586H29.7402V38.8086H32.4238V37.5547H33.3496V38.8086H36.0215ZM32.8926 40.8828C31.9316 40.8828 31.2871 41.375 31.2871 42.1016C31.2871 42.8281 31.9316 43.2969 32.8926 43.2852C33.8418 43.2969 34.4863 42.8281 34.4863 42.1016C34.4863 41.375 33.8418 40.8828 32.8926 40.8828Z" fill="#333333"/>
<path d="M28.4277 37.543V45.1836H27.502V41.1875H25.3574V40.4258H27.502V37.543H28.4277ZM28.7207 46.9531V47.7266H21.7363V44.4922H22.6621V46.9531H28.7207ZM23.4121 39.6875C23.4121 41.0352 24.4551 42.3477 25.9785 42.8633L25.498 43.6016C24.3203 43.1797 23.4121 42.3008 22.9668 41.2227C22.5156 42.4238 21.5547 43.3848 20.3184 43.8477L19.8379 43.0977C21.373 42.5586 22.4863 41.1875 22.4863 39.6875V39.1484H20.1309V38.3867H25.7441V39.1484H23.4121V39.6875Z" fill="#333333"/>
<path d="M26.277 16.2689C27.5322 19.6933 28.8318 21.0596 32.1378 22.5149L30.7051 24.5271C26.9087 22.7095 25.0178 19.6458 24.1273 17.2549L26.277 16.2689Z" fill="#999999"/>
<path d="M27.3296 11.541C28.0008 11.5384 28.5112 12.0969 28.4654 12.7293C28.3934 13.7246 28.4701 14.4427 28.6765 15.3327C28.7899 15.8216 28.5334 16.3182 28.1257 16.638C27.5763 17.0691 27.1565 17.6184 26.8229 18.0913C26.3605 18.7467 24.7692 18.6996 24.4173 17.9856C23.694 16.5182 23.2039 13.8148 24.26 11.9883C24.4259 11.7014 24.7599 11.551 25.1061 11.5497L27.3296 11.541Z" fill="#999999"/>
<path d="M37.5198 22.4002C37.6033 21.7712 37.0776 21.2255 36.4073 21.1923C35.3524 21.1402 34.6068 20.9819 33.696 20.6814C33.1957 20.5163 32.6429 20.697 32.2577 21.0408C31.7384 21.504 31.1105 21.8315 30.5734 22.0875C29.8288 22.4422 29.6869 23.9398 30.3951 24.3556C31.8506 25.2101 34.6335 25.9948 36.6804 25.2242C37.002 25.1032 37.2002 24.8081 37.2433 24.4838L37.5198 22.4002Z" fill="#999999"/>
</svg>
