<svg width="60" height="60" viewBox="0 0 60 60" fill="none" xmlns="http://www.w3.org/2000/svg">
<rect width="60" height="60" fill="white"/>
<path d="M54.1992 42.418V43.168H50.9766V45.8633H55.3242V46.6367H45.7852V45.8633H50.0742V43.168H47.0039V38.3867H54.0938V39.1367H47.9297V42.418H54.1992Z" fill="#333333"/>
<path d="M39.6191 40.7305C39.6191 42.5 40.9082 44.293 42.4434 44.9609L41.9277 45.6875C40.709 45.1309 39.6543 43.9297 39.1738 42.4883C38.6816 44.0176 37.6328 45.3477 36.4434 45.9453L35.8926 45.2188C37.3809 44.5039 38.6816 42.5352 38.6934 40.7305V39.3711H36.2324V38.6094H42.1035V39.3711H39.6191V40.7305ZM44.4824 37.5312V47.9492H43.5566V37.5312H44.4824Z" fill="#333333"/>
<path d="M32.1074 37.5312V47.9727H31.1934V42.1719H28.6973V45.3359H23.8926V38.3516H24.8184V41.0703H27.7949V38.3516H28.6973V41.4102H31.1934V37.5312H32.1074ZM24.8184 44.5742H27.7949V41.8086H24.8184V44.5742Z" fill="#333333"/>
<path d="M22.1699 37.5312V47.9727H21.2441V37.5312H22.1699ZM16.627 38.3398C18.1738 38.3516 19.2871 39.7578 19.2871 41.9727C19.2871 44.1875 18.1738 45.5938 16.627 45.5938C15.0684 45.5938 13.9668 44.1875 13.9668 41.9727C13.9668 39.7578 15.0684 38.3516 16.627 38.3398ZM16.627 39.1602C15.584 39.1719 14.8574 40.2734 14.8574 41.9727C14.8574 43.6719 15.584 44.7734 16.627 44.7734C17.6699 44.7734 18.3965 43.6719 18.3965 41.9727C18.3965 40.2734 17.6699 39.1719 16.627 39.1602Z" fill="#333333"/>
<path d="M5.11719 38.668V44.5039C6.24219 44.4922 7.30859 44.4277 8.5625 44.1641L8.69141 44.9609C7.29688 45.2539 6.13672 45.3125 4.85938 45.3125H4.20312V38.668H5.11719ZM12.6055 37.5312V47.9492H11.7266V37.5312H12.6055ZM10.3789 37.7891V47.4219H9.5V41.8086H7.12109V41.0469H9.5V37.7891H10.3789Z" fill="#333333"/>
<path fill-rule="evenodd" clip-rule="evenodd" d="M30.0008 29C27.0618 25.7715 22.0632 21.1884 22.3285 16.2031C22.7626 12.15 26.032 9 30.0008 9C33.9695 9 37.239 12.15 37.673 16.2031C37.856 21.6465 33.3399 25.4131 30.0008 29Z" fill="#999999"/>
<path d="M33.0593 16.586C33.0593 18.4058 31.657 19.8811 29.9271 19.8811C28.1973 19.8811 26.7949 18.4058 26.7949 16.586C26.7949 14.7662 28.1973 13.291 29.9271 13.291C31.657 13.291 33.0593 14.7662 33.0593 16.586Z" fill="white"/>
</svg>
