<svg width="60" height="60" viewBox="0 0 60 60" fill="none" xmlns="http://www.w3.org/2000/svg">
<rect width="60" height="60" fill="white"/>
<path d="M42.8418 38.6445V39.6875C42.8418 41 42.8418 42.4883 42.4551 44.75L41.5176 44.6562C41.9395 42.5234 41.9395 40.9648 41.9395 39.6875V39.4062H35.6582V38.6445H42.8418ZM44.1191 45.6523V46.4141H34.627V45.6523H44.1191Z" fill="#333333"/>
<path d="M34.2754 45.8867V46.6602H24.7363V45.8867H29.0254V43.918H25.9316V40.707H32.166V39.0664H25.9082V38.3047H33.0684V41.457H26.8457V43.1562H33.3145V43.918H29.9277V45.8867H34.2754Z" fill="#333333"/>
<path d="M17.0254 37.7188V38.7266H22.1816V37.7188H23.0957V41.1523H16.1113V37.7188H17.0254ZM17.0254 40.4492H22.1816V39.4297H17.0254V40.4492ZM24.3379 42.0547V42.793H14.8457V42.0547H24.3379ZM23.1191 43.7539V46.0625H16.9316V47.1055H23.4355V47.832H16.0176V45.3828H22.2168V44.457H15.9941V43.7539H23.1191Z" fill="#333333"/>
<path d="M36.6006 10.0303C38.4701 10.0303 39.999 11.5592 39.999 13.4287V21.6328C39.999 23.4958 38.4768 25.0252 36.6074 25.0254H31.8916L31.0879 26.4131L30.2979 27.7812C30.1501 28.0318 29.7908 28.0318 29.6494 27.7812L28.8594 26.4131L28.0557 25.0254H23.3916C21.5285 25.0253 20 23.5023 20 21.6328V13.4229C20 11.5598 21.5221 10.0303 23.3916 10.0303H36.6006ZM34.9434 16.0498C33.9989 16.0498 33.2344 16.8404 33.2344 17.8105C33.2344 18.7806 33.999 19.5703 34.9434 19.5703C35.3351 19.5702 35.6949 19.4357 35.9775 19.2109V19.6992C35.9775 19.6992 35.8746 20.1806 35.1553 20.1807V21.0869C35.1708 21.0886 35.9392 21.1699 36.626 20.4834C36.626 20.4834 36.9479 20.1421 37.0186 19.6924V16.1211H35.9775V16.4102C35.6885 16.1854 35.3287 16.0499 34.9434 16.0498ZM22.9805 19.6094H24.0088V19.2812C24.2979 19.5382 24.6637 19.6992 25.0684 19.6992C25.987 19.6992 26.7323 18.8835 26.7324 17.875C26.7324 16.8663 25.9935 16.0439 25.0684 16.0439C24.6703 16.044 24.2978 16.1978 24.0088 16.4609V14.9512H22.9805V19.6094ZM30.9209 16.0439C29.8996 16.0442 29.0713 16.8597 29.0713 17.8682C29.0713 18.8767 29.8996 19.6921 30.9209 19.6924C31.9424 19.6924 32.7715 18.8768 32.7715 17.8682C32.7715 16.8595 31.9488 16.0439 30.9209 16.0439ZM26.8477 14.8613V15.793C26.8477 15.793 27.3231 15.8577 27.4131 16.3203V19.6094H28.4736V16.2939C28.4093 15.8315 28.1328 15.4844 28.1328 15.4844C27.5289 14.7714 26.8477 14.8613 26.8477 14.8613ZM24.8633 16.9561C25.377 16.9563 25.788 17.3608 25.7881 17.8682C25.7881 18.3756 25.3771 18.7801 24.8633 18.7803C24.4844 18.7803 24.1561 18.556 24.0146 18.2285C23.9697 18.1193 23.9375 17.9967 23.9375 17.8682C23.9375 17.7398 23.9634 17.6179 24.0146 17.5088C24.156 17.1811 24.4842 16.9561 24.8633 16.9561ZM30.9209 16.9941C31.4092 16.9941 31.8076 17.3863 31.8076 17.8682C31.8076 18.35 31.4156 18.7422 30.9209 18.7422C30.4328 18.7419 30.0352 18.3499 30.0352 17.8682C30.0352 17.3865 30.4329 16.9944 30.9209 16.9941ZM35.1357 16.9043C35.5018 16.9043 35.8233 17.1099 35.9775 17.4053C36.0417 17.5273 36.0742 17.6625 36.0742 17.8037C36.0742 17.945 36.0353 18.0865 35.9775 18.2021C35.8233 18.5041 35.5019 18.7031 35.1357 18.7031C34.6154 18.7031 34.1982 18.2984 34.1982 17.8037C34.1984 17.3092 34.6219 16.9043 35.1357 16.9043Z" fill="#999999"/>
</svg>
