<svg width="60" height="60" viewBox="0 0 60 60" fill="none" xmlns="http://www.w3.org/2000/svg">
<rect width="60" height="60" fill="white"/>
<path d="M44.248 38.293C45.8887 38.293 47.0488 39.2891 47.0488 40.7422C47.0488 42.1953 45.8887 43.1914 44.248 43.1914C42.6074 43.1914 41.4238 42.1953 41.4355 40.7422C41.4238 39.2891 42.6074 38.293 44.248 38.293ZM44.248 39.1016C43.1348 39.1016 42.3262 39.7695 42.3379 40.7422C42.3262 41.7148 43.1348 42.3828 44.248 42.3828C45.3496 42.3828 46.1465 41.7148 46.1465 40.7422C46.1465 39.7695 45.3496 39.1016 44.248 39.1016ZM49.3809 37.5312V47.9727H48.4668V37.5312H49.3809ZM40.8965 44.8906C42.8184 44.8906 45.4668 44.8789 47.7754 44.5391L47.8457 45.2188C45.4668 45.6641 42.9004 45.6758 41.0254 45.6758L40.8965 44.8906Z" fill="#333333"/>
<path d="M40.4746 42.8633V43.625H36.2324V45.7578H35.3184V43.625H30.9355V42.8633H40.4746ZM39.2324 38.0469V41.668H32.1777V38.0469H39.2324ZM33.0801 38.7734V40.9297H38.3184V38.7734H33.0801ZM39.4082 46.9531V47.7266H32.1543V44.7266H33.0801V46.9531H39.4082Z" fill="#333333"/>
<path d="M28.0176 43.1562V43.9062H18.5137V43.1562H22.8027V42.043H19.7793V37.8125H26.834V38.5508H20.7051V39.5469H26.5527V40.2617H20.7051V41.3281H26.8926V42.043H23.7168V43.1562H28.0176ZM26.7871 44.832V47.9492H25.8496V45.582H19.5801V44.832H26.7871Z" fill="#333333"/>
<path d="M14.0371 38.6211C14.0254 41.6328 13.0059 44.3867 9.25586 46.2266L8.74023 45.5234C10.7031 44.5742 11.8809 43.3672 12.5137 41.9609L8.93945 42.3008L8.78711 41.4922L12.7949 41.2227C12.9766 40.6367 13.082 40.0215 13.123 39.3828H9.31445V38.6211H14.0371ZM16.6973 37.5312V41.7734H18.3848V42.5469H16.6973V47.9492H15.7832V37.5312H16.6973Z" fill="#333333"/>
<path d="M29.9932 9.75684C35.5177 9.75684 39.9999 13.3185 40 17.6582C40 21.9979 35.5323 25.5673 30.0078 25.5674C29.4038 25.5644 28.8005 25.521 28.2021 25.4385L24.1475 28.1719C24.0994 28.2131 24.0396 28.238 23.9766 28.2432C23.9004 28.243 23.8267 28.2154 23.7695 28.165C23.7303 28.1255 23.703 28.0757 23.6904 28.0215C23.6779 27.9673 23.6805 27.9111 23.6982 27.8584L24.6396 24.3389C21.8562 22.9327 20 20.4703 20 17.6582C20.0001 13.3257 24.4615 9.75691 29.9932 9.75684ZM27.1748 15.3027C27.0502 15.2972 26.9259 15.3271 26.8174 15.3887C26.7157 15.455 26.6417 15.5565 26.6104 15.6738L25.0977 19.7783C25.0692 19.8567 25.0187 19.9421 25.0186 20.0205C25.0063 20.0914 25.0063 20.1645 25.0186 20.2354C25.0148 20.2756 25.0148 20.3162 25.0186 20.3564C25.0395 20.4748 25.1032 20.5814 25.1973 20.6562C25.2938 20.7287 25.4125 20.7668 25.5332 20.7637C25.6445 20.7776 25.7576 20.7522 25.8525 20.6924C25.9474 20.6325 26.0183 20.5411 26.0537 20.4346L26.3535 19.5566H28.2314L28.5312 20.4346C28.5676 20.539 28.6373 20.6289 28.7305 20.6885C28.8237 20.748 28.9348 20.7746 29.0449 20.7637C29.1164 20.7654 29.1877 20.7516 29.2539 20.7246C29.32 20.6977 29.3798 20.6575 29.4297 20.6064C29.4813 20.5597 29.5227 20.5016 29.5498 20.4375C29.5768 20.3736 29.5893 20.3047 29.5869 20.2354C29.5894 20.1902 29.5893 20.1447 29.5869 20.0996C29.5621 19.9909 29.5311 19.8835 29.4941 19.7783L28.0664 15.7451C28.0322 15.6023 27.9461 15.4774 27.8242 15.3955C27.7093 15.3302 27.5784 15.2981 27.4463 15.3027H27.1748ZM22.4199 15.3955C22.2663 15.3934 22.1156 15.4411 21.9912 15.5312C21.935 15.5748 21.8901 15.6317 21.8604 15.6963C21.8307 15.7608 21.8169 15.8314 21.8203 15.9023C21.8168 15.9403 21.8168 15.9786 21.8203 16.0166C21.8317 16.0765 21.8553 16.1333 21.8896 16.1836C21.924 16.2339 21.9679 16.2772 22.0195 16.3096C22.1359 16.3787 22.27 16.4131 22.4053 16.4092H23.4971L23.5049 20.1641C23.4979 20.2159 23.4979 20.2684 23.5049 20.3203C23.5283 20.447 23.5966 20.5612 23.6973 20.6416C23.8031 20.7238 23.9344 20.7674 24.0684 20.7637C24.145 20.7667 24.2217 20.7529 24.293 20.7246C24.3642 20.6963 24.4287 20.6533 24.4824 20.5986C24.5384 20.5414 24.5821 20.4733 24.6104 20.3984C24.6385 20.3236 24.6507 20.2439 24.6465 20.1641V16.4092H25.7031C25.8541 16.4161 26.0026 16.3703 26.124 16.2803C26.1803 16.2353 26.2251 16.1779 26.2549 16.1123C26.2847 16.0465 26.2993 15.9745 26.2959 15.9023C26.2994 15.8668 26.2994 15.8305 26.2959 15.7949C26.2863 15.7346 26.2629 15.6774 26.2285 15.627C26.194 15.5764 26.1485 15.5339 26.0957 15.5029C25.9813 15.4285 25.8464 15.3907 25.71 15.3955H22.4199ZM36.9746 15.3027C36.8893 15.3011 36.8048 15.3235 36.7314 15.3672C36.6537 15.4292 36.5803 15.4963 36.5107 15.5674L34.7041 17.6514V15.7529C34.681 15.624 34.613 15.5068 34.5117 15.4238C34.395 15.3389 34.2525 15.297 34.1084 15.3047C33.9642 15.3125 33.8267 15.3697 33.7197 15.4668C33.6145 15.587 33.5583 15.7427 33.5625 15.9023L33.5195 20.1279C33.5125 20.18 33.5125 20.2331 33.5195 20.2852C33.543 20.4119 33.6121 20.5261 33.7129 20.6064C33.8165 20.6874 33.9447 20.7302 34.0762 20.7275C34.155 20.7308 34.234 20.7177 34.3076 20.6895C34.3812 20.6612 34.4485 20.6186 34.5049 20.5635C34.6101 20.4433 34.6664 20.2876 34.6621 20.1279V18.9365L35.2969 18.2725L36.625 20.4131C36.6799 20.5133 36.7577 20.5994 36.8525 20.6631C36.9404 20.7093 37.0395 20.7316 37.1387 20.7275C37.2879 20.7296 37.4337 20.6818 37.5527 20.5918C37.6159 20.538 37.6652 20.4696 37.6963 20.3926C37.7273 20.3155 37.7397 20.2321 37.7314 20.1494V20.1143C37.692 19.9942 37.6337 19.8806 37.5596 19.7783V19.707L36.1318 17.4941L37.3174 16.1953C37.3695 16.1365 37.4144 16.0718 37.4521 16.0029C37.4893 15.9377 37.5095 15.8632 37.5098 15.7881V15.6953C37.4996 15.6379 37.478 15.5831 37.4463 15.5342C37.4144 15.4852 37.3727 15.4428 37.3242 15.4102C37.2213 15.3398 37.0993 15.3021 36.9746 15.3027ZM30.3291 15.3027C30.2513 15.2991 30.1731 15.3125 30.1006 15.3408C30.0282 15.3691 29.9619 15.4116 29.9072 15.4668C29.7995 15.5854 29.7438 15.7422 29.751 15.9023L29.7725 19.9639C29.7672 20.0422 29.7672 20.1209 29.7725 20.1992C29.7943 20.3417 29.8709 20.4703 29.9863 20.5566C30.1153 20.6406 30.2683 20.6808 30.4219 20.6709H32.834C32.9876 20.673 33.1383 20.6253 33.2627 20.5352C33.319 20.4916 33.3637 20.4347 33.3936 20.3701C33.4233 20.3056 33.4369 20.235 33.4336 20.1641V20.0566C33.4227 19.9966 33.3997 19.9391 33.3652 19.8887C33.3308 19.8383 33.2853 19.7957 33.2334 19.7637C33.1179 19.6922 32.9844 19.6555 32.8486 19.6572H30.8857V15.9023C30.8927 15.8528 30.8927 15.8025 30.8857 15.7529C30.8651 15.6248 30.7993 15.5076 30.7002 15.4238C30.5933 15.3437 30.4627 15.3012 30.3291 15.3027ZM27.9951 18.75H26.6465L27.3242 16.6094L27.9951 18.75Z" fill="#999999"/>
</svg>
