<svg width="60" height="60" viewBox="0 0 60 60" fill="none" xmlns="http://www.w3.org/2000/svg">
<rect width="60" height="60" fill="white"/>
<path d="M44.166 45.793V46.5664H34.627V45.793H44.166ZM36.6777 38.2812V40.2266H42.0918V38.2812H42.9941V43.707H35.752V38.2812H36.6777ZM36.6777 42.9688H42.0918V40.9648H36.6777V42.9688Z" fill="#333333"/>
<path d="M34.2637 43.8242V44.5977H31.7559V47.9492H30.8418V44.5977H28.1465V47.9492H27.2207V44.5977H24.7246V43.8242H34.2637ZM33.1855 41.9844V42.7461H26.002V38.0234H33.0684V38.7734H26.916V39.9688H32.8223V40.707H26.916V41.9844H33.1855Z" fill="#333333"/>
<path d="M24.373 43.4727V44.2344H21.8535V47.9492H20.9277V44.2344H18.2559V47.9492H17.3066V44.2344H14.834V43.4727H24.373ZM19.5801 37.9531C21.7715 37.9531 23.248 38.832 23.248 40.2266C23.248 41.6094 21.7715 42.4883 19.5801 42.4766C17.3887 42.4883 15.9121 41.6094 15.9121 40.2266C15.9121 38.832 17.3887 37.9531 19.5801 37.9531ZM19.5801 38.7031C17.9512 38.7031 16.8496 39.3008 16.8613 40.2266C16.8496 41.1523 17.9512 41.7383 19.5801 41.7383C21.1973 41.7383 22.3105 41.1523 22.3105 40.2266C22.3105 39.3008 21.1973 38.7031 19.5801 38.7031Z" fill="#333333"/>
<path d="M39.5797 14.159C39.3478 13.2894 38.6667 12.6082 37.8116 12.3763C36.2464 11.9561 30 11.9561 30 11.9561C30 11.9561 23.7391 11.9561 22.1884 12.3763C21.3333 12.6082 20.6522 13.2894 20.4203 14.159C20 15.7242 20 18.9995 20 18.9995C20 18.9995 20 22.2749 20.4203 23.8401C20.6522 24.7097 21.3333 25.3908 22.1884 25.6227C23.7536 26.043 30 26.043 30 26.043C30 26.043 36.2609 26.043 37.8116 25.6227C38.6667 25.3908 39.3478 24.7097 39.5797 23.8401C40 22.2749 40 18.9995 40 18.9995C40 18.9995 40 15.7242 39.5797 14.159ZM27.9565 21.9706V16.0285L33.1884 18.9995L27.9565 21.9706Z" fill="#999999"/>
</svg>
