<svg width="265" height="116" viewBox="0 0 265 116" fill="none" xmlns="http://www.w3.org/2000/svg">
<path d="M14.9414 18.2773V19.4199H0.632812V18.2773H7.06641V14.9023H2.32031V6.9043H3.70898V9.73438H11.8301V6.9043H13.1836V14.9023H8.41992V18.2773H14.9414ZM3.70898 13.7773H11.8301V10.8594H3.70898V13.7773ZM28.3542 5.79688V21.459H26.9655V5.79688H28.3542ZM16.0495 12.459C16.0583 9.13672 17.7107 7.01855 20.0398 7.00977C22.3601 7.01855 24.0388 9.13672 24.03 12.459C24.0388 15.79 22.3601 17.8994 20.0398 17.8906C17.7107 17.8994 16.0583 15.79 16.0495 12.459ZM17.3855 12.459C17.3855 14.999 18.4753 16.6689 20.0398 16.6602C21.613 16.6689 22.6941 14.999 22.6941 12.459C22.6941 9.91895 21.613 8.24902 20.0398 8.24023C18.4753 8.24902 17.3855 9.91895 17.3855 12.459ZM35.8959 10.5957C35.9047 13.25 37.8295 15.9482 40.1323 16.9414L39.3588 18.0312C37.5307 17.2051 35.9575 15.4033 35.228 13.2412C34.4985 15.5352 32.9164 17.5215 31.1323 18.418L30.3061 17.3281C32.5473 16.2559 34.4985 13.3027 34.5073 10.5957V8.55664H30.8159V7.41406H39.6225V8.55664H35.8959V10.5957ZM41.8022 21.4238V5.79688H43.1909V21.4238H41.8022ZM53.2997 6.69336C55.6376 6.70215 57.3602 8.1875 57.3602 10.2969C57.3602 12.4326 55.6376 13.9092 53.2997 13.918C50.9706 13.9092 49.2304 12.4326 49.2391 10.2969C49.2304 8.1875 50.9706 6.70215 53.2997 6.69336ZM50.5927 10.2969C50.5839 11.7295 51.7616 12.7754 53.2997 12.7754C54.8466 12.7754 56.0155 11.7295 56.0067 10.2969C56.0155 8.89062 54.8466 7.85352 53.2997 7.85352C51.7616 7.85352 50.5839 8.89062 50.5927 10.2969ZM50.6102 21.002V15.3066H51.9462V19.8682C52.8514 19.833 54.0555 19.7012 55.163 19.332L55.3739 20.4395C53.8534 20.9404 52.368 21.0107 51.3485 21.002H50.6102ZM54.829 16.4492V15.377H58.1161V13.9883H59.4696V15.377H62.7216V16.4492H54.829ZM55.8661 19.1914C55.8573 17.8379 57.0438 16.9766 58.7665 16.9766C60.4804 16.9766 61.6845 17.8379 61.702 19.1914C61.6845 20.5449 60.4804 21.3887 58.7665 21.3887C57.0438 21.3887 55.8573 20.5449 55.8661 19.1914ZM57.0966 19.1914C57.0966 19.9297 57.7909 20.3955 58.7665 20.4043C59.7421 20.3955 60.4364 19.9297 60.4364 19.1914C60.4364 18.4707 59.7421 17.9873 58.7665 17.9785C57.7909 17.9873 57.0966 18.4707 57.0966 19.1914ZM59.786 13.6191V5.79688H61.1571V9.33008H63.5126V10.4727H61.1571V13.6191H59.786ZM76.4156 10.543V11.6504H65.7105V6.37695H67.0816V10.543H76.4156ZM63.7594 14.9023V13.7773H78.068V14.9023H63.7594ZM65.6227 21.0371V16.502H66.9938V19.8945H76.5035V21.0371H65.6227ZM94.8389 6.57031V7.66016C94.8301 8.84668 94.8301 10.2178 94.417 12.0723L93.0635 11.9141C93.4678 10.1035 93.4678 8.82031 93.4678 7.67773H84.1162V6.57031H94.8389ZM82.4287 14.252V13.1445H88.3174V9.98047H89.6709V13.1445H96.6495V14.252H82.4287ZM83.4483 20.2812C86.2784 19.8594 88.7657 18.2949 88.7745 16.2207V15.5H90.1631V16.2207C90.1719 18.2949 92.6592 19.8594 95.5069 20.2812L94.9795 21.3535C92.5977 20.9668 90.418 19.8418 89.4688 18.1367C88.5196 19.8418 86.3399 20.9668 83.958 21.3535L83.4483 20.2812ZM109.623 5.79688V12.248H111.996V13.4082H109.623V21.4238H108.234V5.79688H109.623ZM97.1951 17.0996C99.5505 14.6826 100.509 11.7734 100.684 8.66211H97.6873V7.50195H101.994C101.976 11.2197 101.141 14.8936 98.3025 17.8906L97.1951 17.0996ZM101.677 18.1543C104.121 15.3945 104.85 11.9229 104.982 8.66211H102.486V7.50195H106.283C106.274 11.2109 105.729 15.5264 102.802 18.9277L101.677 18.1543ZM117.674 10.5957C117.683 13.25 119.608 15.9482 121.911 16.9414L121.137 18.0312C119.309 17.2051 117.736 15.4033 117.006 13.2412C116.277 15.5352 114.695 17.5215 112.911 18.418L112.084 17.3281C114.326 16.2559 116.277 13.3027 116.286 10.5957V8.55664H112.594V7.41406H121.401V8.55664H117.674V10.5957ZM123.581 21.4238V5.79688H124.969V21.4238H123.581ZM135.342 9.18945C135.342 11.0352 136.572 12.8369 138.559 13.5664L137.891 14.6387C136.37 14.0322 135.28 12.8633 134.726 11.457C134.182 12.9863 133.083 14.252 131.527 14.9199L130.842 13.8828C132.837 13.0654 134.023 11.1758 134.041 9.18945V8.99609H131.158V7.87109H134.041V5.99023H135.342V7.87109H138.172V8.99609H135.342V9.18945ZM133.461 17.3457V16.2207H143.99V21.4238H142.637V17.3457H133.461ZM139.297 15.3066V6.0957H140.633V9.99805H142.672V5.81445H143.99V15.377H142.672V11.1406H140.633V15.3066H139.297ZM158.458 5.81445V14.7441H157.087V5.81445H158.458ZM145.924 10.2969C145.916 8.11719 147.647 6.64062 150.02 6.64062C152.393 6.64062 154.107 8.11719 154.116 10.2969C154.107 12.4414 152.393 13.9355 150.02 13.9355C147.647 13.9355 145.916 12.4414 145.924 10.2969ZM147.278 10.2969C147.26 11.7471 148.412 12.7666 150.02 12.7578C151.611 12.7666 152.762 11.7471 152.762 10.2969C152.762 8.83789 151.611 7.80957 150.02 7.81836C148.412 7.80957 147.26 8.83789 147.278 10.2969ZM148.298 21.2129V15.5879H158.458V21.2129H148.298ZM149.651 20.0879H157.104V16.7129H149.651V20.0879ZM165.982 10.5957C165.991 13.25 167.915 15.9482 170.218 16.9414L169.445 18.0312C167.617 17.2051 166.043 15.4033 165.314 13.2412C164.584 15.5352 163.002 17.5215 161.218 18.418L160.392 17.3281C162.633 16.2559 164.584 13.3027 164.593 10.5957V8.55664H160.902V7.41406H169.708V8.55664H165.982V10.5957ZM171.888 21.4238V5.79688H173.277V21.4238H171.888ZM187.867 10.543V11.6504H177.162V6.37695H178.533V10.543H187.867ZM175.211 14.9023V13.7773H189.52V14.9023H175.211ZM177.074 21.0371V16.502H178.445V19.8945H187.955V21.0371H177.074ZM199.488 9.1543C199.497 11.2637 201.158 13.1621 203.496 13.9004L202.792 15.0078C200.973 14.3838 199.532 13.1006 198.82 11.457C198.143 13.2324 196.675 14.6387 194.812 15.3242L194.091 14.2168C196.438 13.3994 198.09 11.3691 198.099 9.1543V8.24023H194.443V7.11523H203.091V8.24023H199.488V9.1543ZM196.675 21.0898V16.1855H198.046V19.9297H207.257V21.0898H196.675ZM205.394 17.2754V5.81445H206.765V17.2754H205.394ZM223.008 18.3301V19.4902H208.699V18.3301H212.725V15.3594H210.492V10.543H219.844V8.09961H210.457V6.95703H221.197V11.6855H211.864V14.2168H221.567V15.3594H219.123V18.3301H223.008ZM214.078 18.3301H217.77V15.3594H214.078V18.3301ZM225.188 20.1055C224.573 20.0967 224.046 19.5869 224.063 18.9629C224.046 18.3477 224.573 17.8379 225.188 17.8379C225.812 17.8379 226.322 18.3477 226.313 18.9629C226.322 19.5869 225.812 20.0967 225.188 20.1055ZM13.5176 32.7969V48.4238H12.1289V32.7969H13.5176ZM0.949219 44.3281C3.26953 43.2734 5.04492 40.6367 5.04492 37.8945V36.6465H1.37109V35.5215H5.02734V33.0957H6.39844V35.5215H10.0371V36.6465H6.39844V37.8945C6.39844 40.5137 8.22656 43.0449 10.582 44.0469L9.80859 45.1191C7.99805 44.3193 6.47754 42.6318 5.74805 40.5664C5.04492 42.7461 3.5332 44.5479 1.72266 45.4004L0.949219 44.3281ZM19.653 34.0098C21.9558 34.0186 23.5905 36.1367 23.6081 39.459C23.5905 42.79 21.9558 44.8994 19.653 44.8906C17.3327 44.8994 15.7068 42.79 15.7155 39.459C15.7068 36.1367 17.3327 34.0186 19.653 34.0098ZM17.0163 39.459C17.0251 41.999 18.1062 43.6689 19.653 43.6602C21.2175 43.6689 22.2722 41.999 22.2722 39.459C22.2722 36.9189 21.2175 35.249 19.653 35.2402C18.1062 35.249 17.0251 36.9189 17.0163 39.459ZM26.1921 48.4238V32.7969H27.5632V39.0371H30.1823V40.2324H27.5632V48.4238H26.1921ZM46.1974 32.7969V39.248H48.8166V40.3906H46.1974V48.4238H44.8263V32.7969H46.1974ZM34.0158 36.4531V35.3105H38.0412V32.9902H39.4123V35.3105H43.3146V36.4531H34.0158ZM34.9123 41.3398C34.9035 39.2305 36.5207 37.7539 38.7443 37.7539C40.9504 37.7539 42.5588 39.2305 42.5763 41.3398C42.5588 43.458 40.9504 44.9258 38.7443 44.9258C36.5207 44.9258 34.9035 43.458 34.9123 41.3398ZM36.2306 41.3398C36.2218 42.7637 37.2853 43.7656 38.7443 43.748C40.1857 43.7656 41.2404 42.7637 41.258 41.3398C41.2404 39.9248 40.1857 38.9053 38.7443 38.9141C37.2853 38.9053 36.2218 39.9248 36.2306 41.3398ZM63.5653 39.0371V40.1973H61.0341V48.4238H59.663V32.7969H61.0341V39.0371H63.5653ZM49.5907 44.4512V34.3438H50.9618V43.291C53.247 43.291 55.5761 43.1152 58.1512 42.5703L58.327 43.748C55.6288 44.293 53.203 44.4512 50.8387 44.4512H49.5907ZM71.6695 34.2207V41.4102H64.4449V34.2207H71.6695ZM65.7984 40.3027H70.3336V35.3457H65.7984V40.3027ZM66.2203 48.0898V43.168H67.5738V46.9297H76.7145V48.0898H66.2203ZM74.6227 44.2578V32.7969H75.9938V37.5605H78.3492V38.7207H75.9938V44.2578H74.6227ZM96.7198 45.2773V46.4199H82.4112V45.2773H88.8448V41.9023H84.0987V33.9043H85.4873V36.7344H93.6084V33.9043H94.962V41.9023H90.1983V45.2773H96.7198ZM85.4873 40.7773H93.6084V37.8594H85.4873V40.7773ZM102.838 37.5957C102.846 40.25 104.771 42.9482 107.074 43.9414L106.301 45.0312C104.472 44.2051 102.899 42.4033 102.17 40.2412C101.44 42.5352 99.8582 44.5215 98.074 45.418L97.2478 44.3281C99.489 43.2559 101.44 40.3027 101.449 37.5957V35.5566H97.7576V34.4141H106.564V35.5566H102.838V37.5957ZM108.744 48.4238V32.7969H110.133V48.4238H108.744ZM120.241 33.6934C122.579 33.7021 124.302 35.1875 124.302 37.2969C124.302 39.4326 122.579 40.9092 120.241 40.918C117.912 40.9092 116.172 39.4326 116.181 37.2969C116.172 35.1875 117.912 33.7021 120.241 33.6934ZM117.534 37.2969C117.526 38.7295 118.703 39.7754 120.241 39.7754C121.788 39.7754 122.957 38.7295 122.948 37.2969C122.957 35.8906 121.788 34.8535 120.241 34.8535C118.703 34.8535 117.526 35.8906 117.534 37.2969ZM117.552 48.002V42.3066H118.888V46.8682C119.793 46.833 120.997 46.7012 122.105 46.332L122.316 47.4395C120.795 47.9404 119.31 48.0107 118.29 48.002H117.552ZM121.771 43.4492V42.377H125.058V40.9883H126.411V42.377H129.663V43.4492H121.771ZM122.808 46.1914C122.799 44.8379 123.986 43.9766 125.708 43.9766C127.422 43.9766 128.626 44.8379 128.644 46.1914C128.626 47.5449 127.422 48.3887 125.708 48.3887C123.986 48.3887 122.799 47.5449 122.808 46.1914ZM124.038 46.1914C124.038 46.9297 124.733 47.3955 125.708 47.4043C126.684 47.3955 127.378 46.9297 127.378 46.1914C127.378 45.4707 126.684 44.9873 125.708 44.9785C124.733 44.9873 124.038 45.4707 124.038 46.1914ZM126.728 40.6191V32.7969H128.099V36.3301H130.454V37.4727H128.099V40.6191H126.728ZM143.252 34.3789V35.9434C143.234 37.8594 143.234 40.0039 142.672 43.1504L141.266 42.9922C141.854 40.0039 141.854 37.8154 141.863 35.9434V35.5215H132.23V34.3789H143.252ZM130.719 46.209V45.0664H136.309V39.4766H137.662V45.0664H144.957V46.209H130.719ZM148.122 45.8223L146.751 50.6035H145.45L146.417 45.8223H148.122ZM166.193 32.8145V44.2754H164.805V38.2812H161.588V37.1387H164.805V32.8145H166.193ZM153.309 41.1465C155.611 40.3379 157.281 38.2725 157.281 36.0312V35.2227H153.748V34.0801H162.168V35.2227H158.67V36.0312C158.67 38.0527 160.234 40.0127 162.52 40.7949L161.799 41.9023C160.041 41.2607 158.679 39.9512 158.002 38.334C157.325 40.1445 155.884 41.5771 154.029 42.2715L153.309 41.1465ZM156.156 48.0898V43.2383H157.545V46.9297H166.633V48.0898H156.156ZM172.645 37.6133C172.654 40.127 173.929 42.7021 176.055 43.8359L175.264 44.873C173.709 44.0205 172.584 42.4033 172.012 40.5225C171.459 42.5264 170.343 44.2842 168.778 45.2246L167.952 44.1699C170.079 42.9395 171.336 40.1973 171.345 37.6133V36.8398H168.374V35.6973H171.345V33.377H172.663V35.6973H175.581V36.8398H172.645V37.6133ZM174.509 40.1445V38.9668H176.97V33.1836H178.27V47.6152H176.97V40.1445H174.509ZM180.116 48.4238V32.7969H181.434V48.4238H180.116ZM188.027 33.9395C190.479 33.9482 192.219 35.4424 192.228 37.6133C192.219 39.793 190.479 41.2783 188.027 41.2871C185.557 41.2783 183.799 39.793 183.808 37.6133C183.799 35.4424 185.557 33.9482 188.027 33.9395ZM183 43.8359C185.882 43.8447 189.864 43.8184 193.318 43.3086L193.423 44.3281C189.846 44.9961 186.005 45.0137 183.193 45.0137L183 43.8359ZM185.162 37.6133C185.153 39.0723 186.357 40.0742 188.027 40.0742C189.679 40.0742 190.883 39.0723 190.875 37.6133C190.883 36.1631 189.679 35.1523 188.027 35.1523C186.357 35.1523 185.153 36.1631 185.162 37.6133ZM194.355 48.459V32.7969H195.726V48.459H194.355ZM213.903 33.8164V35.1875C213.903 36.6641 213.903 38.29 213.455 40.5312H215.784V41.6738H209.333V48.459H207.944V41.6738H201.546V40.5312H212.058C212.532 38.2812 212.532 36.6465 212.532 35.1875V34.959H203.339V33.8164H213.903ZM228.599 32.7969V36.875H230.955V38.0176H228.599V42.1836H227.228V32.7969H228.599ZM216.4 41.0762C220.171 39.9863 222.579 37.8154 222.86 35.0996H217.086V33.957H224.345C224.337 37.9385 221.533 40.8564 216.98 42.2012L216.4 41.0762ZM218.545 45.3652C218.536 43.4932 220.549 42.3506 223.66 42.3594C226.798 42.3506 228.775 43.4932 228.775 45.3652C228.775 47.2637 226.798 48.3887 223.66 48.3887C220.549 48.3887 218.536 47.2637 218.545 45.3652ZM219.916 45.3652C219.898 46.543 221.366 47.29 223.66 47.2812C225.954 47.29 227.439 46.543 227.439 45.3652C227.439 44.1875 225.954 43.458 223.66 43.4668C221.366 43.458 219.898 44.1875 219.916 45.3652ZM247.972 32.8145V44.3633H246.583V38.791H243.12V37.6309H246.583V32.8145H247.972ZM235.263 41.4277C238.858 40.2412 241.362 37.9912 241.679 35.1699H236.054V34.0098H243.191C243.173 38.0264 240.299 41.085 235.86 42.5352L235.263 41.4277ZM238.023 48.0898V43.1855H239.429V46.9297H248.376V48.0898H238.023ZM262.07 32.7969V36.875H264.426V38.0176H262.07V42.1836H260.699V32.7969H262.07ZM249.871 41.0762C253.641 39.9863 256.05 37.8154 256.331 35.0996H250.556V33.957H257.816C257.807 37.9385 255.004 40.8564 250.451 42.2012L249.871 41.0762ZM252.015 45.3652C252.007 43.4932 254.019 42.3506 257.131 42.3594C260.268 42.3506 262.246 43.4932 262.246 45.3652C262.246 47.2637 260.268 48.3887 257.131 48.3887C254.019 48.3887 252.007 47.2637 252.015 45.3652ZM253.387 45.3652C253.369 46.543 254.837 47.29 257.131 47.2812C259.425 47.29 260.91 46.543 260.91 45.3652C260.91 44.1875 259.425 43.458 257.131 43.4668C254.837 43.458 253.369 44.1875 253.387 45.3652ZM14.1328 62.2227V63.3652H1.33594V62.2227H7.06641V60.0957H8.41992V62.2227H14.1328ZM0.632812 73.5078V72.3652H14.9414V73.5078H0.632812ZM2.61914 67.4785C2.60156 65.5449 4.57031 64.3936 7.75195 64.4023C10.8984 64.3936 12.8936 65.5449 12.8848 67.4785C12.8936 69.4033 10.8984 70.5547 7.75195 70.5547C4.57031 70.5547 2.60156 69.4033 2.61914 67.4785ZM3.99023 67.4785C3.98145 68.6914 5.43164 69.4385 7.75195 69.4297C10.0283 69.4385 11.4873 68.6914 11.4785 67.4785C11.4873 66.2656 10.0283 65.5098 7.75195 65.5273C5.43164 65.5098 3.98145 66.2656 3.99023 67.4785ZM29.7605 67.8652V69.0078H15.4519V67.8652H29.7605ZM17.2624 61.291V60.1836H27.9148V63.875H18.6862V65.4395H28.2487V66.5117H17.3152V62.8379H26.5261V61.291H17.2624ZM17.403 75.2129V70.4316H27.9148V75.2129H17.403ZM18.7566 74.0879H26.5612V71.5566H18.7566V74.0879ZM37.4252 60.0781C40.8969 60.0781 42.936 61.0361 42.9448 62.7676C42.936 64.543 40.8969 65.501 37.4252 65.5098C33.936 65.501 31.8881 64.543 31.8881 62.7676C31.8881 61.0361 33.936 60.0781 37.4252 60.0781ZM30.3061 67.6895V66.5645H44.5444V67.6895H30.3061ZM32.0287 70.0977V69.043H42.7162V72.541H33.435V74.1582H43.1909V75.248H32.0639V71.5215H41.3627V70.0977H32.0287ZM33.3295 62.7676C33.312 63.8574 34.8325 64.4551 37.4252 64.4551C40.018 64.4551 41.5297 63.8574 41.5385 62.7676C41.5297 61.7393 40.018 61.124 37.4252 61.1152C34.8325 61.124 33.312 61.7393 33.3295 62.7676ZM61.8954 59.7969V67.8828H60.5067V63.8223H57.0262V62.6797H60.5067V59.7969H61.8954ZM48.9227 66.8105C51.2782 66.0283 52.8954 64.0684 52.913 61.7832V60.3066H54.2665V61.7832C54.2489 63.8311 55.8661 65.7119 58.1512 66.459L57.413 67.5312C55.6815 66.916 54.3016 65.6855 53.6073 64.1035C52.9393 65.8877 51.5243 67.25 49.6786 67.918L48.9227 66.8105ZM51.7704 69.7812V68.6738H61.8954V72.4004H53.1591V74.1055H62.4755V75.2129H51.8055V71.3457H60.5243V69.7812H51.7704ZM77.1539 59.7969V75.4238H75.8355V59.7969H77.1539ZM63.7594 71.0469C67.1607 69.0342 68.8658 66.2129 69.1383 62.9434H64.4625V61.8008H70.5094C70.5094 62.6006 70.4391 63.3916 70.2984 64.1562H72.6715V60.2188H73.9898V74.6328H72.6715V69.2188H69.7711V68.0762H72.6715V65.2988H70.026C69.2701 67.9443 67.5563 70.2822 64.6031 72.0488L63.7594 71.0469ZM90.7073 59.7969V66.248H93.3265V67.3906H90.7073V75.4238H89.3363V59.7969H90.7073ZM78.5257 63.4531V62.3105H82.5511V59.9902H83.9222V62.3105H87.8245V63.4531H78.5257ZM79.4222 68.3398C79.4134 66.2305 81.0306 64.7539 83.2542 64.7539C85.4603 64.7539 87.0687 66.2305 87.0863 68.3398C87.0687 70.458 85.4603 71.9258 83.2542 71.9258C81.0306 71.9258 79.4134 70.458 79.4222 68.3398ZM80.7405 68.3398C80.7318 69.7637 81.7952 70.7656 83.2542 70.748C84.6956 70.7656 85.7503 69.7637 85.7679 68.3398C85.7503 66.9248 84.6956 65.9053 83.2542 65.9141C81.7952 65.9053 80.7318 66.9248 80.7405 68.3398ZM106.089 64.543V65.6504H95.3838V60.377H96.7549V64.543H106.089ZM93.4327 68.9023V67.7773H107.741V68.9023H93.4327ZM95.2959 75.0371V70.502H96.667V73.8945H106.177V75.0371H95.2959ZM117.709 63.1543C117.718 65.2637 119.379 67.1621 121.717 67.9004L121.014 69.0078C119.195 68.3838 117.753 67.1006 117.041 65.457C116.365 67.2324 114.897 68.6387 113.034 69.3242L112.313 68.2168C114.66 67.3994 116.312 65.3691 116.321 63.1543V62.2402H112.665V61.1152H121.313V62.2402H117.709V63.1543ZM114.897 75.0898V70.1855H116.268V73.9297H125.479V75.0898H114.897ZM123.616 71.2754V59.8145H124.987V71.2754H123.616ZM141.23 72.3301V73.4902H126.921V72.3301H130.946V69.3594H128.714V64.543H138.066V62.0996H128.679V60.957H139.419V65.6855H130.085V68.2168H139.788V69.3594H137.345V72.3301H141.23ZM132.3 72.3301H135.991V69.3594H132.3V72.3301ZM156.049 67.0566V68.1465H141.74V67.0566H156.049ZM143.463 70.4316V69.3945H154.256V72.7168H144.869V74.2109H154.766V75.2129H143.48V71.7676H152.885V70.4316H143.463ZM143.551 61.2734V60.2715H154.203V63.5059H144.975V64.877H154.484V65.8789H143.603V62.5566H152.814V61.2734H143.551ZM173.277 59.7969V75.459H171.888V59.7969H173.277ZM160.972 66.459C160.981 63.1367 162.633 61.0186 164.962 61.0098C167.283 61.0186 168.961 63.1367 168.952 66.459C168.961 69.79 167.283 71.8994 164.962 71.8906C162.633 71.8994 160.981 69.79 160.972 66.459ZM162.308 66.459C162.308 68.999 163.398 70.6689 164.962 70.6602C166.536 70.6689 167.617 68.999 167.617 66.459C167.617 63.9189 166.536 62.249 164.962 62.2402C163.398 62.249 162.308 63.9189 162.308 66.459ZM179.43 61.0098C181.557 61.0186 183.095 62.8467 183.306 65.7734H186.813V59.7969H188.184V75.459H186.813V66.916H183.323C183.174 69.9834 181.609 71.8994 179.43 71.8906C177.118 71.8994 175.501 69.79 175.51 66.459C175.501 63.1367 177.118 61.0186 179.43 61.0098ZM176.828 66.459C176.837 68.999 177.892 70.6689 179.43 70.6602C180.959 70.6689 182.031 68.999 182.031 66.459C182.031 63.9189 180.959 62.249 179.43 62.2402C177.892 62.249 176.837 63.9189 176.828 66.459ZM202.282 59.7969V63.5234H204.637V64.6836H202.282V68.252H200.893V59.7969H202.282ZM190.1 67.3203C193.968 66.3975 196.27 64.4199 196.516 61.8887H190.786V60.7637H198.028C198.019 64.666 195.242 67.3203 190.628 68.4629L190.1 67.3203ZM192.35 75.2129V68.9727H193.739V70.959H200.911V68.9727H202.282V75.2129H192.35ZM193.739 74.0879H200.911V72.0664H193.739V74.0879ZM217.787 59.7969V75.4238H216.416V59.7969H217.787ZM205.921 71.3984V61.3438H207.275V70.2031C209.666 70.1855 212.126 70.001 214.746 69.4473L214.939 70.625C212.162 71.2051 209.692 71.3984 207.187 71.3984H205.921ZM231.832 59.7969V65.9844H234.451V67.1445H231.832V75.459H230.461V59.7969H231.832ZM220.424 71.5391V61.3262H227.719V62.4688H221.795V70.3789C224.625 70.3701 226.62 70.2471 228.949 69.8164L229.125 71.0117C226.673 71.4512 224.625 71.5391 221.655 71.5391H220.424ZM236.227 74.1055C235.612 74.0967 235.085 73.5869 235.102 72.9629C235.085 72.3477 235.612 71.8379 236.227 71.8379C236.852 71.8379 237.361 72.3477 237.352 72.9629C237.361 73.5869 236.852 74.0967 236.227 74.1055Z" fill="#333333"/>
<path d="M15.3058 97.2227V98.3477H12.9855V100.545H15.3058V101.723H12.9855V104.096H11.6144V94.7969H12.9855V97.2227H15.3058ZM1.0675 99.4199C1.05871 97.249 2.79895 95.7373 5.1632 95.7461C7.54504 95.7373 9.25891 97.249 9.27649 99.4199C9.25891 101.617 7.54504 103.12 5.1632 103.129C2.79895 103.12 1.05871 101.617 1.0675 99.4199ZM2.42102 99.4199C2.41223 100.923 3.58117 101.951 5.1632 101.934C6.76281 101.951 7.91418 100.923 7.92297 99.4199C7.91418 97.9521 6.76281 96.9326 5.1632 96.9238C3.58117 96.9326 2.41223 97.9521 2.42102 99.4199ZM2.755 105.959V104.816H12.9855V110.424H11.6144V105.959H2.755ZM23.0233 95.7637V100.141H17.6444V102.566C20.5799 102.575 22.1004 102.514 23.9373 102.18L24.078 103.322C22.1356 103.639 20.5448 103.691 17.3807 103.691H16.2733V99.0859H21.6522V96.8711H16.2381V95.7637H23.0233ZM18.0311 106.381V105.256H28.5604V110.459H27.1717V106.381H18.0311ZM24.0604 101.512V100.369H27.1717V98.2598H24.0604V97.1348H27.1717V94.8145H28.5604V104.412H27.1717V101.512H24.0604ZM48.5481 107.277V108.42H34.2395V107.277H40.6731V103.902H35.927V95.9043H37.3157V98.7344H45.4368V95.9043H46.7903V103.902H42.0266V107.277H48.5481ZM37.3157 102.777H45.4368V99.8594H37.3157V102.777ZM61.9961 94.7969V110.424H60.6074V94.7969H61.9961ZM49.2695 106.363C53.4971 104.359 55.6592 101.362 55.9668 97.627H49.9902V96.502H57.373C57.3555 100.993 55.2637 104.975 50.0254 107.488L49.2695 106.363Z" fill="#999999"/>
<path d="M78.3788 106.288L82.1668 102.5L78.3788 98.7118M81.788 102.5L73.8332 102.5" stroke="#999999" stroke-miterlimit="10" stroke-linecap="square"/>
</svg>
