<svg width="264" height="70" viewBox="0 0 264 70" fill="none" xmlns="http://www.w3.org/2000/svg">
<path d="M14.3198 12.4903V13.6337H0V12.4903H6.43864V9.11261H1.68882V1.10829H3.07859V3.94059H11.2061V1.10829H12.5606V9.11261H7.79322V12.4903H14.3198ZM3.07859 7.98673H11.2061V5.06647H3.07859V7.98673ZM27.7432 0V15.6744H26.3534V0H27.7432ZM15.4288 6.66734C15.4376 3.34246 17.0913 1.22264 19.4222 1.21384C21.7443 1.22264 23.4243 3.34246 23.4155 6.66734C23.4243 10.001 21.7443 12.112 19.4222 12.1032C17.0913 12.112 15.4376 10.001 15.4288 6.66734ZM16.7658 6.66734C16.7658 9.20937 17.8565 10.8806 19.4222 10.8718C20.9967 10.8806 22.0786 9.20937 22.0786 6.66734C22.0786 4.12531 20.9967 2.45407 19.4222 2.44528C17.8565 2.45407 16.7658 4.12531 16.7658 6.66734ZM35.2908 4.80259C35.2996 7.45897 37.2259 10.1593 39.5305 11.1533L38.7564 12.244C36.9268 11.4172 35.3524 9.61398 34.6223 7.45018C33.8922 9.74592 32.309 11.7338 30.5234 12.631L29.6966 11.5403C31.9395 10.4672 33.8922 7.51175 33.901 4.80259V2.76193H30.2067V1.61846H39.0203V2.76193H35.2908V4.80259ZM41.2017 15.6392V0H42.5914V15.6392H41.2017ZM52.7082 0.897188C55.0479 0.905984 56.7719 2.3925 56.7719 4.50353C56.7719 6.64095 55.0479 8.11867 52.7082 8.12747C50.3773 8.11867 48.6357 6.64095 48.6445 4.50353C48.6357 2.3925 50.3773 0.905984 52.7082 0.897188ZM49.9991 4.50353C49.9903 5.93727 51.1689 6.98399 52.7082 6.98399C54.2563 6.98399 55.4262 5.93727 55.4174 4.50353C55.4262 3.09618 54.2563 2.05825 52.7082 2.05825C51.1689 2.05825 49.9903 3.09618 49.9991 4.50353ZM50.0166 15.217V9.51723H51.3536V14.0823C52.2596 14.0471 53.4647 13.9152 54.573 13.5458L54.7841 14.6541C53.2624 15.1554 51.7758 15.2258 50.7555 15.217H50.0166ZM54.2387 10.6607V9.5876H57.5284V8.19784H58.883V9.5876H62.1375V10.6607H54.2387ZM55.2766 13.405C55.2678 12.0505 56.4553 11.1885 58.1793 11.1885C59.8945 11.1885 61.0996 12.0505 61.1171 13.405C61.0996 14.7596 59.8945 15.604 58.1793 15.604C56.4553 15.604 55.2678 14.7596 55.2766 13.405ZM56.5081 13.405C56.5081 14.1439 57.2029 14.6101 58.1793 14.6189C59.1556 14.6101 59.8505 14.1439 59.8505 13.405C59.8505 12.6838 59.1556 12.2 58.1793 12.1912C57.2029 12.2 56.5081 12.6838 56.5081 13.405ZM59.1996 7.8284V0H60.5718V3.53598H62.9291V4.67945H60.5718V7.8284H59.1996ZM75.8423 4.74982V5.85811H65.1288V0.580533H66.501V4.74982H75.8423ZM63.1761 9.11261V7.98673H77.4959V9.11261H63.1761ZM65.0409 15.2522V10.7135H66.413V14.1087H75.9302V15.2522H65.0409ZM94.28 0.774045V1.86474C94.2712 3.0522 94.2712 4.42437 93.8578 6.28032L92.5032 6.12199C92.9079 4.31002 92.9079 3.02581 92.9079 1.88234H83.549V0.774045H94.28ZM81.8601 8.46171V7.35342H87.7534V4.18688H89.108V7.35342H96.092V8.46171H81.8601ZM82.8805 14.4957C85.7128 14.0735 88.202 12.5079 88.2108 10.432V9.71074H89.6006V10.432C89.6094 12.5079 92.0986 14.0735 94.9485 14.4957L94.4208 15.5688C92.0371 15.1818 89.8557 14.0559 88.9057 12.3495C87.9557 14.0559 85.7743 15.1818 83.3906 15.5688L82.8805 14.4957ZM109.076 0V6.45623H111.45V7.6173H109.076V15.6392H107.686V0H109.076ZM96.638 11.3116C98.9954 8.89272 99.9541 5.98125 100.13 2.86748H97.1306V1.70642H101.441C101.423 5.42711 100.587 9.10382 97.7463 12.1032L96.638 11.3116ZM101.124 12.3671C103.569 9.60519 104.299 6.13078 104.431 2.86748H101.933V1.70642H105.733C105.724 5.41831 105.179 9.73713 102.25 13.1412L101.124 12.3671ZM117.133 4.80259C117.142 7.45897 119.068 10.1593 121.373 11.1533L120.599 12.244C118.769 11.4172 117.195 9.61398 116.465 7.45018C115.735 9.74592 114.152 11.7338 112.366 12.631L111.539 11.5403C113.782 10.4672 115.735 7.51175 115.744 4.80259V2.76193H112.049V1.61846H120.863V2.76193H117.133V4.80259ZM123.044 15.6392V0H124.434V15.6392H123.044ZM134.815 3.39524C134.815 5.24239 136.046 7.04556 138.034 7.77563L137.365 8.84874C135.844 8.24181 134.753 7.07195 134.199 5.6646C133.654 7.1951 132.554 8.46171 130.997 9.13021L130.311 8.09228C132.308 7.27426 133.495 5.38313 133.513 3.39524V3.20173H130.628V2.07585H133.513V0.193511H134.815V2.07585H137.647V3.20173H134.815V3.39524ZM132.932 11.5579V10.432H143.47V15.6392H142.115V11.5579H132.932ZM138.773 9.51723V0.299063H140.11V4.20447H142.15V0.0175919H143.47V9.5876H142.15V5.34794H140.11V9.51723H138.773ZM157.949 0.0175919V8.95429H156.577V0.0175919H157.949ZM145.406 4.50353C145.397 2.32213 147.13 0.844412 149.505 0.844412C151.879 0.844412 153.595 2.32213 153.604 4.50353C153.595 6.64975 151.879 8.14506 149.505 8.14506C147.13 8.14506 145.397 6.64975 145.406 4.50353ZM146.76 4.50353C146.743 5.95487 147.895 6.9752 149.505 6.9664C151.097 6.9752 152.249 5.95487 152.249 4.50353C152.249 3.0434 151.097 2.01427 149.505 2.02307C147.895 2.01427 146.743 3.0434 146.76 4.50353ZM147.781 15.4281V9.7987H157.949V15.4281H147.781ZM149.135 14.3022H156.594V10.9246H149.135V14.3022ZM165.479 4.80259C165.488 7.45897 167.414 10.1593 169.718 11.1533L168.944 12.244C167.115 11.4172 165.54 9.61398 164.81 7.45018C164.08 9.74592 162.497 11.7338 160.711 12.631L159.885 11.5403C162.127 10.4672 164.08 7.51175 164.089 4.80259V2.76193H160.395V1.61846H169.208V2.76193H165.479V4.80259ZM171.39 15.6392V0H172.779V15.6392H171.39ZM187.381 4.74982V5.85811H176.668V0.580533H178.04V4.74982H187.381ZM174.715 9.11261V7.98673H189.035V9.11261H174.715ZM176.58 15.2522V10.7135H177.952V14.1087H187.469V15.2522H176.58ZM199.011 3.36006C199.02 5.47109 200.682 7.37101 203.022 8.10988L202.318 9.21817C200.498 8.59365 199.055 7.30944 198.343 5.6646C197.665 7.44138 196.196 8.84874 194.332 9.53482L193.61 8.42653C195.959 7.60851 197.613 5.57664 197.621 3.36006V2.44528H193.962V1.31939H202.617V2.44528H199.011V3.36006ZM196.196 15.305V10.3968H197.569V14.1439H206.787V15.305H196.196ZM204.922 11.4875V0.0175919H206.294V11.4875H204.922ZM222.55 12.543V13.7041H208.23V12.543H212.258V9.57H210.024V4.74982H219.383V2.30454H209.989V1.16107H220.738V5.89329H211.396V8.42653H221.107V9.57H218.662V12.543H222.55ZM213.613 12.543H217.307V9.57H213.613V12.543ZM224.732 14.3198C224.116 14.311 223.588 13.8009 223.606 13.1763C223.588 12.5606 224.116 12.0505 224.732 12.0505C225.356 12.0505 225.867 12.5606 225.858 13.1763C225.867 13.8009 225.356 14.311 224.732 14.3198ZM12.8949 27.0212V42.6604H11.5051V27.0212H12.8949ZM0.316655 38.5615C2.63879 37.506 4.41557 34.8672 4.41557 32.1228V30.8738H0.738861V29.7479H4.39798V27.3203H5.77015V29.7479H9.41168V30.8738H5.77015V32.1228C5.77015 34.744 7.59971 37.2773 9.95703 38.28L9.18298 39.3531C7.37101 38.5527 5.84931 36.8639 5.11925 34.7968C4.41557 36.9782 2.90267 38.7814 1.0907 39.6346L0.316655 38.5615ZM19.0352 28.235C21.3397 28.2438 22.9758 30.3637 22.9933 33.6885C22.9758 37.0222 21.3397 39.1332 19.0352 39.1244C16.713 39.1332 15.0858 37.0222 15.0946 33.6885C15.0858 30.3637 16.713 28.2438 19.0352 28.235ZM16.3964 33.6885C16.4052 36.2306 17.4871 37.9018 19.0352 37.893C20.6008 37.9018 21.6564 36.2306 21.6564 33.6885C21.6564 31.1465 20.6008 29.4753 19.0352 29.4665C17.4871 29.4753 16.4052 31.1465 16.3964 33.6885ZM25.5794 42.6604V27.0212H26.9515V33.2663H29.5727V34.4626H26.9515V42.6604H25.5794ZM45.6004 27.0212V33.4774H48.2216V34.6209H45.6004V42.6604H44.2282V27.0212H45.6004ZM33.4092 30.6803V29.5368H37.4377V27.2147H38.8099V29.5368H42.7153V30.6803H33.4092ZM34.3064 35.5709C34.2976 33.4598 35.916 31.9821 38.1414 31.9821C40.3492 31.9821 41.9588 33.4598 41.9764 35.5709C41.9588 37.6907 40.3492 39.1596 38.1414 39.1596C35.916 39.1596 34.2976 37.6907 34.3064 35.5709ZM35.6258 35.5709C35.617 36.9958 36.6813 37.9985 38.1414 37.981C39.5839 37.9985 40.6394 36.9958 40.657 35.5709C40.6394 34.1547 39.5839 33.1344 38.1414 33.1432C36.6813 33.1344 35.617 34.1547 35.6258 35.5709ZM62.9819 33.2663V34.4274H60.4487V42.6604H59.0765V27.0212H60.4487V33.2663H62.9819ZM48.9963 38.6846V28.5693H50.3685V37.5236C52.6554 37.5236 54.9864 37.3476 57.5636 36.8023L57.7395 37.981C55.0391 38.5263 52.6115 38.6846 50.2453 38.6846H48.9963ZM71.0925 28.4461V35.6412H63.8622V28.4461H71.0925ZM65.2168 34.5329H69.7555V29.572H65.2168V34.5329ZM65.639 42.3262V37.4004H66.9936V41.1651H76.1414V42.3262H65.639ZM74.0479 38.4911V27.0212H75.4201V31.7886H77.7774V32.9497H75.4201V38.4911H74.0479ZM96.1624 39.5115V40.6549H81.8425V39.5115H88.2812V36.1338H83.5314V28.1295H84.9211V30.9618H93.0486V28.1295H94.4032V36.1338H89.6358V39.5115H96.1624ZM84.9211 35.0079H93.0486V32.0877H84.9211V35.0079ZM102.285 31.8238C102.294 34.4802 104.22 37.1805 106.525 38.1745L105.751 39.2652C103.921 38.4383 102.347 36.6352 101.617 34.4714C100.886 36.7671 99.3032 38.755 97.5176 39.6522L96.6908 38.5615C98.9338 37.4884 100.886 34.5329 100.895 31.8238V29.7831H97.201V28.6396H106.015V29.7831H102.285V31.8238ZM108.196 42.6604V27.0212H109.586V42.6604H108.196ZM119.702 27.9184C122.042 27.9272 123.766 29.4137 123.766 31.5247C123.766 33.6621 122.042 35.1399 119.702 35.1487C117.372 35.1399 115.63 33.6621 115.639 31.5247C115.63 29.4137 117.372 27.9272 119.702 27.9184ZM116.993 31.5247C116.985 32.9585 118.163 34.0052 119.702 34.0052C121.251 34.0052 122.42 32.9585 122.412 31.5247C122.42 30.1174 121.251 29.0794 119.702 29.0794C118.163 29.0794 116.985 30.1174 116.993 31.5247ZM117.011 42.2382V36.5384H118.348V41.1035C119.254 41.0683 120.459 40.9364 121.567 40.567L121.778 41.6753C120.257 42.1766 118.77 42.247 117.75 42.2382H117.011ZM121.233 37.6819V36.6088H124.523V35.219H125.877V36.6088H129.132V37.6819H121.233ZM122.271 40.4262C122.262 39.0717 123.45 38.2097 125.174 38.2097C126.889 38.2097 128.094 39.0717 128.111 40.4262C128.094 41.7808 126.889 42.6252 125.174 42.6252C123.45 42.6252 122.262 41.7808 122.271 40.4262ZM123.502 40.4262C123.502 41.1651 124.197 41.6313 125.174 41.6401C126.15 41.6313 126.845 41.1651 126.845 40.4262C126.845 39.705 126.15 39.2212 125.174 39.2124C124.197 39.2212 123.502 39.705 123.502 40.4262ZM126.194 34.8496V27.0212H127.566V30.5572H129.923V31.7006H127.566V34.8496H126.194ZM142.731 28.6045V30.1701C142.713 32.0877 142.713 34.2339 142.15 37.3828L140.743 37.2245C141.332 34.2339 141.332 32.0437 141.341 30.1701V29.7479H131.701V28.6045H142.731ZM130.188 40.4438V39.3004H135.782V33.7061H137.137V39.3004H144.437V40.4438H130.188ZM147.605 40.0568L146.232 44.8418H144.931L145.898 40.0568H147.605ZM165.691 27.0388V38.5087H164.301V32.5099H161.081V31.3664H164.301V27.0388H165.691ZM152.796 35.3774C155.1 34.5681 156.771 32.5011 156.771 30.2581V29.4489H153.235V28.3054H161.662V29.4489H158.161V30.2581C158.161 32.2812 159.727 34.2427 162.014 35.0255L161.293 36.1338C159.533 35.4917 158.17 34.1811 157.493 32.5626C156.815 34.3746 155.373 35.8084 153.517 36.5032L152.796 35.3774ZM155.646 42.3262V37.4708H157.035V41.1651H166.13V42.3262H155.646ZM172.147 31.8414C172.156 34.357 173.432 36.9342 175.56 38.0689L174.769 39.1068C173.212 38.2536 172.086 36.6352 171.514 34.7528C170.96 36.7583 169.843 38.5175 168.277 39.4587L167.45 38.4032C169.579 37.1717 170.837 34.4274 170.846 31.8414V31.0673H167.873V29.9239H170.846V27.6017H172.165V29.9239H175.085V31.0673H172.147V31.8414ZM174.012 34.3746V33.196H176.475V27.4082H177.777V41.8512H176.475V34.3746H174.012ZM179.624 42.6604V27.0212H180.943V42.6604H179.624ZM187.541 28.1647C189.995 28.1735 191.737 29.6688 191.746 31.8414C191.737 34.0228 189.995 35.5093 187.541 35.5181C185.069 35.5093 183.31 34.0228 183.319 31.8414C183.31 29.6688 185.069 28.1735 187.541 28.1647ZM182.51 38.0689C185.395 38.0777 189.379 38.0513 192.836 37.5412L192.942 38.5615C189.362 39.23 185.518 39.2476 182.703 39.2476L182.51 38.0689ZM184.674 31.8414C184.665 33.3015 185.87 34.3042 187.541 34.3042C189.195 34.3042 190.4 33.3015 190.391 31.8414C190.4 30.39 189.195 29.3785 187.541 29.3785C185.87 29.3785 184.665 30.39 184.674 31.8414ZM193.874 42.6956V27.0212H195.246V42.6956H193.874ZM213.438 28.0415V29.4137C213.438 30.8914 213.438 32.5187 212.989 34.7616H215.32V35.9051H208.864V42.6956H207.474V35.9051H201.071V34.7616H211.591C212.066 32.5099 212.066 30.8738 212.066 29.4137V29.185H202.865V28.0415H213.438ZM228.145 27.0212V31.1025H230.503V32.246H228.145V36.4153H226.773V27.0212H228.145ZM215.937 35.307C219.71 34.2163 222.12 32.0437 222.402 29.3257H216.623V28.1823H223.888C223.879 32.1668 221.073 35.0871 216.517 36.4329L215.937 35.307ZM218.083 39.5994C218.074 37.7259 220.088 36.5824 223.202 36.5912C226.342 36.5824 228.321 37.7259 228.321 39.5994C228.321 41.4993 226.342 42.6252 223.202 42.6252C220.088 42.6252 218.074 41.4993 218.083 39.5994ZM219.455 39.5994C219.437 40.7781 220.906 41.5257 223.202 41.5169C225.498 41.5257 226.984 40.7781 226.984 39.5994C226.984 38.4208 225.498 37.6907 223.202 37.6995C220.906 37.6907 219.437 38.4208 219.455 39.5994ZM247.533 27.0388V38.5967H246.143V33.02H242.678V31.859H246.143V27.0388H247.533ZM234.814 35.6588C238.412 34.4714 240.919 32.2196 241.235 29.3961H235.606V28.235H242.748C242.731 32.2548 239.854 35.3158 235.412 36.7671L234.814 35.6588ZM237.576 42.3262V37.418H238.983V41.1651H247.938V42.3262H237.576ZM261.643 27.0212V31.1025H264V32.246H261.643V36.4153H260.27V27.0212H261.643ZM249.434 35.307C253.207 34.2163 255.617 32.0437 255.899 29.3257H250.12V28.1823H257.385C257.376 32.1668 254.571 35.0871 250.014 36.4329L249.434 35.307ZM251.58 39.5994C251.571 37.7259 253.585 36.5824 256.699 36.5912C259.839 36.5824 261.818 37.7259 261.818 39.5994C261.818 41.4993 259.839 42.6252 256.699 42.6252C253.585 42.6252 251.571 41.4993 251.58 39.5994ZM252.952 39.5994C252.935 40.7781 254.403 41.5257 256.699 41.5169C258.995 41.5257 260.481 40.7781 260.481 39.5994C260.481 38.4208 258.995 37.6907 256.699 37.6995C254.403 37.6907 252.935 38.4208 252.952 39.5994ZM13.5106 56.4701V57.6135H0.703677V56.4701H6.43864V54.3414H7.79322V56.4701H13.5106ZM0 67.7641V66.6206H14.3198V67.7641H0ZM1.98789 61.73C1.9703 59.7949 3.94059 58.6427 7.12473 58.6515C10.2737 58.6427 12.2704 59.7949 12.2616 61.73C12.2704 63.6564 10.2737 64.8086 7.12473 64.8086C3.94059 64.8086 1.9703 63.6564 1.98789 61.73ZM3.36006 61.73C3.35126 62.9439 4.80259 63.6915 7.12473 63.6828C9.40288 63.6915 10.863 62.9439 10.8542 61.73C10.863 60.5162 9.40288 59.7598 7.12473 59.7773C4.80259 59.7598 3.35126 60.5162 3.36006 61.73ZM29.1505 62.1171V63.2605H14.8307V62.1171H29.1505ZM16.6427 55.5377V54.4294H27.3034V58.1237H18.0676V59.6894H27.6376V60.7625H16.6954V57.0858H25.9136V55.5377H16.6427ZM16.7834 69.4705V64.6855H27.3034V69.4705H16.7834ZM18.138 68.3446H25.9488V65.8114H18.138V68.3446ZM36.8213 54.3239C40.2957 54.3239 42.3364 55.2826 42.3452 57.0154C42.3364 58.7922 40.2957 59.751 36.8213 59.7598C33.3293 59.751 31.2798 58.7922 31.2798 57.0154C31.2798 55.2826 33.3293 54.3239 36.8213 54.3239ZM29.6966 61.9412V60.8153H43.946V61.9412H29.6966ZM31.4206 64.3512V63.2957H42.1165V66.7965H32.8279V68.415H42.5914V69.5057H31.4558V65.7762H40.7619V64.3512H31.4206ZM32.7224 57.0154C32.7048 58.1061 34.2265 58.7042 36.8213 58.7042C39.4161 58.7042 40.929 58.1061 40.9378 57.0154C40.929 55.9863 39.4161 55.3706 36.8213 55.3618C34.2265 55.3706 32.7048 55.9863 32.7224 57.0154ZM61.3107 54.0424V62.1347H59.9209V58.0709H56.4377V56.9275H59.9209V54.0424H61.3107ZM48.3278 61.0616C50.6851 60.2787 52.3036 58.3172 52.3212 56.0303V54.5525H53.6758V56.0303C53.6582 58.0797 55.2766 59.9621 57.5636 60.7097L56.8247 61.7828C55.0919 61.1671 53.7109 59.9357 53.0161 58.3524C52.3476 60.138 50.9314 61.5014 49.0843 62.1698L48.3278 61.0616ZM51.1777 64.0346V62.9263H61.3107V66.6558H52.5675V68.3622H61.8912V69.4705H51.2129V65.6003H59.9385V64.0346H51.1777ZM76.5812 54.0424V69.6816H75.2618V54.0424H76.5812ZM63.1761 65.3012C66.5801 63.2869 68.2866 60.4634 68.5592 57.1913H63.8798V56.0479H69.9314C69.9314 56.8483 69.861 57.6399 69.7203 58.4052H72.0952V54.4646H73.4146V68.89H72.0952V63.4717H69.1925V62.3282H72.0952V59.5487H69.4476C68.6912 62.1962 66.976 64.536 64.0205 66.3039L63.1761 65.3012ZM90.1452 54.0424V60.4986H92.7664V61.6421H90.1452V69.6816H88.7731V54.0424H90.1452ZM77.954 57.7015V56.558H81.9826V54.2359H83.3547V56.558H87.2601V57.7015H77.954ZM78.8512 62.5921C78.8424 60.481 80.4609 59.0033 82.6862 59.0033C84.894 59.0033 86.5037 60.481 86.5213 62.5921C86.5037 64.7119 84.894 66.1808 82.6862 66.1808C80.4609 66.1808 78.8424 64.7119 78.8512 62.5921ZM80.1706 62.5921C80.1618 64.017 81.2261 65.0197 82.6862 65.0021C84.1288 65.0197 85.1843 64.017 85.2019 62.5921C85.1843 61.1759 84.1288 60.1556 82.6862 60.1644C81.2261 60.1556 80.1618 61.1759 80.1706 62.5921ZM105.539 58.7922V59.9005H94.8254V54.6229H96.1975V58.7922H105.539ZM92.8727 63.155V62.0291H107.192V63.155H92.8727ZM94.7374 69.2946V64.7559H96.1096V68.1511H105.627V69.2946H94.7374ZM117.169 57.4024C117.177 59.5135 118.84 61.4134 121.179 62.1523L120.476 63.2605C118.655 62.636 117.213 61.3518 116.5 59.707C115.823 61.4838 114.354 62.8911 112.489 63.5772L111.768 62.4689C114.116 61.6509 115.77 59.619 115.779 57.4024V56.4877H112.12V55.3618H120.775V56.4877H117.169V57.4024ZM114.354 69.3474V64.4392H115.726V68.1863H124.944V69.3474H114.354ZM123.079 65.5299V54.06H124.452V65.5299H123.079ZM140.707 66.5854V67.7465H126.387V66.5854H130.416V63.6124H128.182V58.7922H137.541V56.3469H128.147V55.2034H138.895V59.9357H129.554V62.4689H139.265V63.6124H136.819V66.5854H140.707ZM131.771 66.5854H135.465V63.6124H131.771V66.5854ZM155.538 61.3078V62.3985H141.218V61.3078H155.538ZM142.942 64.6855V63.6476H153.744V66.9724H144.349V68.4678H154.254V69.4705H142.96V66.0225H152.371V64.6855H142.942ZM143.03 55.5201V54.5174H153.691V57.7543H144.455V59.1264H153.972V60.1292H143.083V56.8043H152.301V55.5201H143.03ZM172.779 54.0424V69.7168H171.39V54.0424H172.779ZM160.465 60.7097C160.474 57.3848 162.127 55.265 164.458 55.2562C166.781 55.265 168.461 57.3848 168.452 60.7097C168.461 64.0434 166.781 66.1544 164.458 66.1456C162.127 66.1544 160.474 64.0434 160.465 60.7097ZM161.802 60.7097C161.802 63.2518 162.893 64.923 164.458 64.9142C166.033 64.923 167.115 63.2518 167.115 60.7097C167.115 58.1677 166.033 56.4965 164.458 56.4877C162.893 56.4965 161.802 58.1677 161.802 60.7097ZM178.937 55.2562C181.066 55.265 182.605 57.0946 182.816 60.0236H186.326V54.0424H187.698V69.7168H186.326V61.1671H182.834C182.684 64.2369 181.119 66.1544 178.937 66.1456C176.624 66.1544 175.005 64.0434 175.014 60.7097C175.005 57.3848 176.624 55.265 178.937 55.2562ZM176.334 60.7097C176.342 63.2518 177.398 64.923 178.937 64.9142C180.468 64.923 181.541 63.2518 181.541 60.7097C181.541 58.1677 180.468 56.4965 178.937 56.4877C177.398 56.4965 176.342 58.1677 176.334 60.7097ZM201.807 54.0424V57.7719H204.165V58.9329H201.807V62.5041H200.418V54.0424H201.807ZM189.616 61.5717C193.486 60.6481 195.791 58.6691 196.037 56.1358H190.302V55.0099H197.55C197.541 58.9153 194.762 61.5717 190.144 62.7152L189.616 61.5717ZM191.868 69.4705V63.2254H193.258V65.2133H200.435V63.2254H201.807V69.4705H191.868ZM193.258 68.3446H200.435V66.3215H193.258V68.3446ZM217.324 54.0424V69.6816H215.952V54.0424H217.324ZM205.45 65.653V55.5905H206.804V64.4568C209.197 64.4392 211.66 64.2545 214.281 63.7003L214.474 64.879C211.695 65.4595 209.223 65.653 206.716 65.653H205.45ZM231.381 54.0424V60.2347H234.002V61.3958H231.381V69.7168H230.009V54.0424H231.381ZM219.964 65.7938V55.5729H227.264V56.7164H221.336V64.6327C224.168 64.6239 226.165 64.5008 228.496 64.0698L228.672 65.266C226.218 65.7058 224.168 65.7938 221.195 65.7938H219.964ZM235.78 68.3622C235.164 68.3534 234.636 67.8432 234.654 67.2187C234.636 66.603 235.164 66.0928 235.78 66.0928C236.404 66.0928 236.914 66.603 236.905 67.2187C236.914 67.8432 236.404 68.3534 235.78 68.3622Z" fill="#333333"/>
</svg>
