<svg width="60" height="60" viewBox="0 0 60 60" fill="none" xmlns="http://www.w3.org/2000/svg">
<rect width="60" height="60" fill="white"/>
<path d="M39.9707 38.4805V39.2539H36.0098V41.4102H39.7363V42.1602H36.0098V44.6797C37.8848 44.6797 39.2031 44.6035 40.7676 44.3398L40.873 45.1016C39.2441 45.3711 37.873 45.4297 35.9043 45.4414H35.084V38.4805H39.9707ZM42.6895 37.5312V41.7266H44.4355V42.5117H42.6895V47.9492H41.7754V37.5312H42.6895Z" fill="#333333"/>
<path d="M29.9277 39.0664C29.9277 40.8477 31.9668 42.4414 33.7832 42.7812L33.3613 43.5547C31.791 43.1914 30.1328 42.0723 29.459 40.5312C28.7852 42.0664 27.1328 43.1855 25.5566 43.5547L25.1348 42.7812C26.9395 42.4297 28.9668 40.8594 28.9668 39.0664V38.2695H29.9277V39.0664ZM34.2754 45.7695V46.5312H24.7363V45.7695H34.2754Z" fill="#333333"/>
<path d="M23.4473 37.543V45.1602H22.5332V37.543H23.4473ZM23.7754 46.9531V47.7266H16.7207V44.3867H17.6348V46.9531H23.7754ZM17.8223 38.2695C19.3809 38.2695 20.5527 39.3242 20.5527 40.8242C20.5527 42.3477 19.3809 43.3906 17.8223 43.3906C16.2637 43.3906 15.0918 42.3477 15.0918 40.8242C15.0918 39.3242 16.2637 38.2695 17.8223 38.2695ZM17.8223 39.0781C16.7676 39.0781 15.9824 39.8047 15.9941 40.8242C15.9824 41.8672 16.7676 42.582 17.8223 42.582C18.8535 42.582 19.6504 41.8672 19.6504 40.8242C19.6504 39.8047 18.8535 39.0781 17.8223 39.0781Z" fill="#333333"/>
<g clip-path="url(#clip0_1105_1884)">
<path d="M30 10.8023C32.6717 10.8023 32.9853 10.8142 34.0413 10.8619C35.0179 10.9055 35.5459 11.0683 35.8992 11.2072C36.3676 11.3898 36.7011 11.6042 37.0504 11.9536C37.3998 12.3029 37.6181 12.6364 37.7968 13.1048C37.9317 13.4581 38.0985 13.9861 38.1421 14.9627C38.1898 16.0187 38.2017 16.3323 38.2017 19.004C38.2017 21.6757 38.1898 21.9893 38.1421 23.0453C38.0985 24.0218 37.9357 24.5498 37.7968 24.9031C37.6142 25.3716 37.3998 25.705 37.0504 26.0544C36.7011 26.4037 36.3676 26.6221 35.8992 26.8007C35.5459 26.9357 35.0179 27.1024 34.0413 27.1461C32.9853 27.1937 32.6717 27.2056 30 27.2056C27.3283 27.2056 27.0147 27.1937 25.9587 27.1461C24.9821 27.1024 24.4542 26.9397 24.1008 26.8007C23.6324 26.6181 23.2989 26.4037 22.9496 26.0544C22.6002 25.705 22.3819 25.3716 22.2033 24.9031C22.0683 24.5498 21.9016 24.0218 21.8579 23.0453C21.8102 21.9893 21.7983 21.6757 21.7983 19.004C21.7983 16.3323 21.8102 16.0187 21.8579 14.9627C21.9016 13.9861 22.0643 13.4581 22.2033 13.1048C22.3859 12.6364 22.6002 12.3029 22.9496 11.9536C23.2989 11.6042 23.6324 11.3859 24.1008 11.2072C24.4542 11.0723 24.9821 10.9055 25.9587 10.8619C27.0147 10.8102 27.3323 10.8023 30 10.8023ZM30 9C27.2846 9 26.9432 9.01191 25.8754 9.05955C24.8114 9.10719 24.085 9.27789 23.4498 9.52402C22.7908 9.77809 22.235 10.1235 21.6792 10.6792C21.1235 11.235 20.7821 11.7948 20.524 12.4498C20.2779 13.085 20.1072 13.8114 20.0595 14.8793C20.0119 15.9432 20 16.2846 20 19C20 21.7154 20.0119 22.0568 20.0595 23.1247C20.1072 24.1886 20.2779 24.915 20.524 25.5542C20.7781 26.2132 21.1235 26.769 21.6792 27.3247C22.235 27.8805 22.7948 28.2219 23.4498 28.48C24.085 28.7261 24.8114 28.8968 25.8793 28.9444C26.9472 28.9921 27.2846 29.004 30.004 29.004C32.7233 29.004 33.0608 28.9921 34.1286 28.9444C35.1926 28.8968 35.919 28.7261 36.5582 28.48C37.2172 28.2259 37.7729 27.8805 38.3287 27.3247C38.8845 26.769 39.2259 26.2092 39.4839 25.5542C39.7301 24.919 39.9008 24.1925 39.9484 23.1247C39.996 22.0568 40.008 21.7193 40.008 19C40.008 16.2807 39.996 15.9432 39.9484 14.8753C39.9008 13.8114 39.7301 13.085 39.4839 12.4458C39.2299 11.7868 38.8845 11.231 38.3287 10.6753C37.7729 10.1195 37.2132 9.77809 36.5582 9.52005C35.923 9.27392 35.1965 9.10322 34.1286 9.05558C33.0568 9.01191 32.7154 9 30 9Z" fill="#999999"/>
<path d="M30.0002 13.8672C27.1658 13.8672 24.8633 16.1657 24.8633 19.0041C24.8633 21.8426 27.1618 24.1411 30.0002 24.1411C32.8387 24.1411 35.1372 21.8426 35.1372 19.0041C35.1372 16.1657 32.8387 13.8672 30.0002 13.8672ZM30.0002 22.3348C28.1582 22.3348 26.6656 20.8422 26.6656 19.0002C26.6656 17.1582 28.1582 15.6655 30.0002 15.6655C31.8422 15.6655 33.3349 17.1582 33.3349 19.0002C33.3349 20.8422 31.8422 22.3348 30.0002 22.3348Z" fill="#999999"/>
<path d="M35.3395 14.8597C36.0016 14.8597 36.5384 14.3229 36.5384 13.6608C36.5384 12.9987 36.0016 12.4619 35.3395 12.4619C34.6774 12.4619 34.1406 12.9987 34.1406 13.6608C34.1406 14.3229 34.6774 14.8597 35.3395 14.8597Z" fill="#999999"/>
</g>
<defs>
<clipPath id="clip0_1105_1884">
<rect width="20" height="20" fill="white" transform="translate(20 9)"/>
</clipPath>
</defs>
</svg>
