<svg width="149" height="20" viewBox="0 0 149 20" fill="none" xmlns="http://www.w3.org/2000/svg">
<path d="M17.4907 15.256V16.6527H0V15.256H7.86436V11.1304H2.06278V1.3537H3.76028V4.81316H13.6874V1.3537H15.342V11.1304H9.51889V15.256H17.4907ZM3.76028 9.75525H13.6874V6.18835H3.76028V9.75525ZM33.9723 0.0214873V14.1387H32.2748V7.32718H28.0418V5.90902H32.2748V0.0214873H33.9723ZM18.437 10.5503C22.8312 9.09989 25.8931 6.34951 26.2799 2.90079H19.4039V1.48263H28.1278C28.1063 6.39248 24.5931 10.1313 19.1676 11.904L18.437 10.5503ZM21.8105 18.694V12.699H23.5295V17.2758H34.4665V18.694H21.8105ZM53.6771 9.88417V11.2808H36.2723V9.88417H44.1367V7.58503H38.593V0.451234H40.269V2.66443H49.7234V0.451234H51.3994V7.58503H45.8127V9.88417H53.6771ZM38.2062 14.5254V13.1717H51.5283V19.1022H49.8308V14.5254H38.2062ZM40.269 6.23133H49.7234V3.95367H40.269V6.23133ZM61.2415 5.86604C61.2522 9.11063 63.6051 12.4089 66.4199 13.623L65.4745 14.9552C63.2398 13.9453 61.3167 11.7428 60.425 9.09989C59.5332 11.904 57.5994 14.3321 55.4184 15.4279L54.4085 14.0957C57.1481 12.785 59.5332 9.17509 59.544 5.86604V3.37351H55.0316V1.97683H65.7968V3.37351H61.2415V5.86604ZM68.4612 19.1022V0H70.1587V19.1022H68.4612ZM79.3776 5.86604C79.3884 9.11063 81.7413 12.4089 84.5561 13.623L83.6107 14.9552C81.376 13.9453 79.4529 11.7428 78.5611 9.09989C77.6694 11.904 75.7355 14.3321 73.5546 15.4279L72.5447 14.0957C75.2843 12.785 77.6694 9.17509 77.6801 5.86604V3.37351H73.1678V1.97683H83.933V3.37351H79.3776V5.86604ZM86.5974 19.1022V0H88.2949V19.1022H86.5974ZM108.15 11.3453V12.7205H100.178V19.1022H98.5237V12.7205H90.6594V11.3453H108.15ZM92.894 9.02468V0.795031H94.57V3.43797H104.196V0.795031H105.894V9.02468H92.894ZM94.57 7.64949H104.196V4.81316H94.57V7.64949ZM129.231 0.0214873V13.9883H127.555V0.0214873H129.231ZM113.91 6.03794C113.9 3.28756 116.059 1.36445 118.917 1.3537C121.775 1.36445 123.913 3.28756 123.923 6.03794C123.913 8.82055 121.775 10.7544 118.917 10.7437C116.059 10.7544 113.9 8.82055 113.91 6.03794ZM115.565 6.03794C115.543 7.93957 116.983 9.26104 118.917 9.26104C120.819 9.26104 122.269 7.93957 122.269 6.03794C122.269 4.16854 120.819 2.83633 118.917 2.83633C116.983 2.83633 115.543 4.16854 115.565 6.03794ZM116.897 18.694V12.5701H118.573V17.2758H129.832V18.694H116.897ZM149 9.08914V10.4858H131.595V9.08914H149ZM132.584 6.59661C135.914 6.20984 139.127 4.56606 139.202 2.38509H133.185V0.988417H147.453V2.38509H141.394C141.469 4.54457 144.649 6.20984 148.033 6.59661L147.41 7.95031C144.284 7.5528 141.351 6.14538 140.298 4.02887C139.245 6.14538 136.333 7.5528 133.185 7.95031L132.584 6.59661ZM133.701 15.6213C133.69 13.4296 136.172 12.1618 140.298 12.1618C144.391 12.1618 146.851 13.4296 146.873 15.6213C146.851 17.8345 144.391 19.0593 140.298 19.0593C136.172 19.0593 133.69 17.8345 133.701 15.6213ZM135.42 15.6213C135.399 16.9535 137.236 17.7163 140.298 17.7056C143.327 17.7163 145.165 16.9535 145.175 15.6213C145.165 14.2783 143.327 13.5155 140.298 13.494C137.236 13.5155 135.399 14.2783 135.42 15.6213Z" fill="#999999"/>
</svg>
