<svg width="111" height="20" viewBox="0 0 111 20" fill="none" xmlns="http://www.w3.org/2000/svg">
<path d="M15.419 0V19.1713H13.7153V0H15.419ZM0 14.1466C2.84658 12.8527 5.02465 9.61799 5.02465 6.25385V4.72274H0.51756V3.34258H5.00308V0.366605H6.68515V3.34258H11.1491V4.72274H6.68515V6.25385C6.68515 9.46704 8.92791 12.5724 11.8176 13.8016L10.8688 15.1171C8.64757 14.1359 6.7822 12.0656 5.88725 9.53173C5.02465 12.2058 3.17006 14.4162 0.94886 15.4621L0 14.1466ZM27.4962 2.71719C27.4855 5.28343 30.9035 7.46149 34.2461 7.95749L33.6207 9.29452C30.634 8.78774 27.7119 7.19193 26.5474 4.88447C25.3829 7.19193 22.4608 8.78774 19.5172 9.29452L18.8487 7.95749C22.1805 7.46149 25.5877 5.28343 25.5985 2.71719V2.5878H19.4525V1.20764H33.6207V2.5878H27.4962V2.71719ZM17.8136 12.3352V10.9335H35.2812V12.3352H27.3453V19.1713H25.6848V12.3352H17.8136ZM46.6468 2.13494V3.12693C46.6361 4.64726 46.6361 7.18115 46.0862 10.7394L44.3825 10.5884C44.9109 7.37523 44.954 5.04621 44.9432 3.5151H36.8995V2.13494H46.6468ZM35.8212 13.5428C37.0828 13.532 38.4845 13.5213 39.9617 13.4889V7.61245H41.6222V13.435C43.7463 13.3595 45.9244 13.2194 47.9192 12.9821L48.0054 14.2545C43.9728 14.8799 39.4657 14.9661 36.0369 14.9446L35.8212 13.5428ZM49.1268 19.1713V0H50.8089V8.02218H53.9142V9.4886H50.8089V19.1713H49.1268ZM74.7693 0.021565V14.082H73.0657V6.72828H69.1193V5.32656H73.0657V0.021565H74.7693ZM58.9622 10.2434C61.7872 9.25139 63.8359 6.7175 63.8359 3.96796V2.97597H59.5013V1.57425H69.8309V2.97597H65.5395V3.96796C65.5395 6.44794 67.4588 8.85244 70.2622 9.81208L69.3781 11.1707C67.2216 10.3836 65.5503 8.77696 64.72 6.79298C63.8898 9.01417 62.1215 10.7717 59.8463 11.6235L58.9622 10.2434ZM62.4557 18.7616V12.8096H64.1594V17.3383H75.3085V18.7616H62.4557ZM94.61 9.81208V11.2138H86.8035V15.1386H85.1214V11.2138H77.0561V9.81208H94.61ZM79.2988 18.7616V13.2409H81.0025V17.3383H92.6476V18.7616H79.2988ZM79.342 7.61245V0.94886H92.3241V7.61245H79.342ZM81.0025 6.25385H90.642V2.28589H81.0025V6.25385ZM101.555 1.40173C104.563 1.41251 106.698 3.24553 106.709 5.90881C106.698 8.58287 104.563 10.4051 101.555 10.4159C98.5249 10.4051 96.3684 8.58287 96.3792 5.90881C96.3684 3.24553 98.5249 1.41251 101.555 1.40173ZM95.3872 13.5428C98.9239 13.5536 103.808 13.5213 108.046 12.8959L108.175 14.1466C103.787 14.9661 99.0748 14.9877 95.6244 14.9877L95.3872 13.5428ZM98.0397 5.90881C98.0289 7.69871 99.5061 8.92791 101.555 8.92791C103.582 8.92791 105.059 7.69871 105.048 5.90881C105.059 4.1297 103.582 2.88971 101.555 2.88971C99.5061 2.88971 98.0289 4.1297 98.0397 5.90881ZM109.318 19.2144V0H111V19.2144H109.318Z" fill="#333333"/>
</svg>
